<!-- <svg width="1301" height="573" viewBox="0 0 1301 573" fill="none" xmlns="http://www.w3.org/2000/svg">
<path d="M18.3395 255.241V220.042H27.2386V255.241H18.3395ZM5.18963 242.091V233.192H40.3885V242.091H5.18963ZM81.0748 258.621C78.1747 258.621 75.548 257.876 73.1948 256.384C70.8581 254.876 69.0021 252.664 67.6266 249.747C66.2677 246.814 65.5882 243.218 65.5882 238.959C65.5882 234.584 66.2926 230.946 67.7012 228.046C69.1098 225.129 70.9824 222.95 73.3191 221.509C75.6723 220.05 78.2492 219.321 81.0499 219.321C83.1877 219.321 84.9692 219.686 86.3944 220.415C87.8361 221.127 88.9962 222.022 89.8745 223.099C90.7694 224.16 91.4488 225.204 91.9128 226.232H92.236V207.091H102.801V258H92.3603V251.885H91.9128C91.4157 252.946 90.7114 253.998 89.7999 255.042C88.905 256.069 87.7367 256.923 86.2949 257.602C84.8697 258.282 83.1297 258.621 81.0748 258.621ZM84.4306 250.195C86.1375 250.195 87.5792 249.731 88.7559 248.803C89.949 247.858 90.8605 246.54 91.4902 244.85C92.1365 243.16 92.4597 241.179 92.4597 238.909C92.4597 236.639 92.1448 234.667 91.5151 232.993C90.8854 231.319 89.9739 230.027 88.7807 229.115C87.5875 228.204 86.1375 227.748 84.4306 227.748C82.6905 227.748 81.2239 228.22 80.0307 229.165C78.8375 230.109 77.9344 231.419 77.3212 233.092C76.708 234.766 76.4015 236.705 76.4015 238.909C76.4015 241.13 76.708 243.094 77.3212 244.8C77.9509 246.491 78.8541 247.817 80.0307 248.778C81.2239 249.722 82.6905 250.195 84.4306 250.195ZM128.908 258.746C124.98 258.746 121.599 257.95 118.766 256.359C115.948 254.752 113.777 252.482 112.253 249.548C110.728 246.598 109.966 243.11 109.966 239.083C109.966 235.156 110.728 231.709 112.253 228.742C113.777 225.776 115.924 223.464 118.691 221.807C121.475 220.15 124.74 219.321 128.485 219.321C131.004 219.321 133.349 219.727 135.52 220.539C137.707 221.335 139.613 222.536 141.237 224.143C142.878 225.751 144.154 227.773 145.065 230.209C145.977 232.628 146.433 235.462 146.433 238.71V241.619H114.192V235.056H136.464C136.464 233.531 136.133 232.181 135.47 231.004C134.807 229.828 133.888 228.908 132.711 228.245C131.551 227.566 130.2 227.226 128.659 227.226C127.052 227.226 125.626 227.599 124.384 228.344C123.157 229.074 122.196 230.06 121.5 231.303C120.804 232.529 120.448 233.896 120.431 235.404V241.643C120.431 243.533 120.779 245.165 121.475 246.54C122.188 247.916 123.19 248.977 124.483 249.722C125.776 250.468 127.308 250.841 129.082 250.841C130.258 250.841 131.335 250.675 132.313 250.344C133.291 250.012 134.128 249.515 134.824 248.852C135.52 248.189 136.05 247.377 136.415 246.416L146.209 247.062C145.712 249.416 144.692 251.471 143.151 253.227C141.627 254.967 139.655 256.326 137.235 257.304C134.832 258.265 132.056 258.746 128.908 258.746ZM191.593 207.091V258H180.83V217.308H180.531L168.873 224.616V215.07L181.476 207.091H191.593ZM202.922 249.051V240.575L224.176 207.091H231.484V218.824H227.159L213.76 240.028V240.425H243.963V249.051H202.922ZM227.358 258V246.466L227.556 242.712V207.091H237.649V258H227.358ZM28.4567 357.318V336.885H28.1335C27.6364 337.946 26.9321 338.998 26.0206 340.042C25.1257 341.069 23.9574 341.923 22.5156 342.602C21.0904 343.282 19.3504 343.621 17.2955 343.621C14.3954 343.621 11.7687 342.876 9.41548 341.384C7.07884 339.876 5.22277 337.664 3.8473 334.747C2.4884 331.814 1.80895 328.218 1.80895 323.959C1.80895 319.584 2.51326 315.946 3.92188 313.046C5.33049 310.129 7.20313 307.95 9.53977 306.509C11.893 305.05 14.4699 304.321 17.2706 304.321C19.4084 304.321 21.1899 304.686 22.6151 305.415C24.0568 306.127 25.2169 307.022 26.0952 308.099C26.9901 309.16 27.6695 310.204 28.1335 311.232H28.581V304.818H39.0213V357.318H28.4567ZM20.6513 335.195C22.3582 335.195 23.8 334.731 24.9766 333.803C26.1697 332.858 27.0812 331.54 27.7109 329.85C28.3572 328.16 28.6804 326.179 28.6804 323.909C28.6804 321.639 28.3655 319.667 27.7358 317.993C27.1061 316.319 26.1946 315.027 25.0014 314.115C23.8082 313.204 22.3582 312.748 20.6513 312.748C18.9112 312.748 17.4446 313.22 16.2514 314.165C15.0582 315.109 14.1551 316.419 13.5419 318.092C12.9287 319.766 12.6222 321.705 12.6222 323.909C12.6222 326.13 12.9287 328.094 13.5419 329.8C14.1716 331.491 15.0748 332.817 16.2514 333.778C17.4446 334.722 18.9112 335.195 20.6513 335.195ZM72.0078 326.743V304.818H82.5973V343H72.4304V336.065H72.0327C71.1709 338.302 69.7375 340.1 67.7322 341.459C65.7436 342.818 63.3158 343.497 60.4489 343.497C57.8968 343.497 55.6513 342.917 53.7124 341.757C51.7734 340.597 50.2571 338.948 49.1634 336.81C48.0862 334.673 47.5393 332.112 47.5227 329.129V304.818H58.1122V327.24C58.1288 329.494 58.7337 331.275 59.9268 332.585C61.12 333.894 62.7192 334.548 64.7244 334.548C66.0005 334.548 67.1937 334.258 68.304 333.678C69.4143 333.082 70.3092 332.203 70.9886 331.043C71.6847 329.883 72.0244 328.45 72.0078 326.743ZM91.0676 343V304.818H101.657V343H91.0676ZM96.3873 299.896C94.8129 299.896 93.4623 299.374 92.3354 298.33C91.2251 297.27 90.6699 296.002 90.6699 294.527C90.6699 293.069 91.2251 291.817 92.3354 290.773C93.4623 289.713 94.8129 289.183 96.3873 289.183C97.9616 289.183 99.3039 289.713 100.414 290.773C101.541 291.817 102.105 293.069 102.105 294.527C102.105 296.002 101.541 297.27 100.414 298.33C99.3039 299.374 97.9616 299.896 96.3873 299.896ZM109.941 343V336.686L128.634 313.543V313.27H110.587V304.818H141.386V311.704L123.837 334.275V334.548H142.033V343H109.941ZM149.931 343V336.686L168.624 313.543V313.27H150.578V304.818H181.377V311.704L163.827 334.275V334.548H182.023V343H149.931ZM206.427 343.746C202.5 343.746 199.119 342.95 196.285 341.359C193.468 339.752 191.297 337.482 189.772 334.548C188.248 331.598 187.485 328.11 187.485 324.083C187.485 320.156 188.248 316.709 189.772 313.742C191.297 310.776 193.443 308.464 196.211 306.807C198.995 305.15 202.259 304.321 206.005 304.321C208.524 304.321 210.868 304.727 213.039 305.539C215.227 306.335 217.133 307.536 218.757 309.143C220.397 310.751 221.673 312.773 222.585 315.209C223.496 317.628 223.952 320.462 223.952 323.71V326.619H191.711V320.056H213.984C213.984 318.531 213.653 317.181 212.99 316.004C212.327 314.828 211.407 313.908 210.23 313.245C209.07 312.566 207.72 312.226 206.179 312.226C204.571 312.226 203.146 312.599 201.903 313.344C200.677 314.074 199.716 315.06 199.02 316.303C198.324 317.529 197.967 318.896 197.951 320.404V326.643C197.951 328.533 198.299 330.165 198.995 331.54C199.707 332.916 200.71 333.977 202.002 334.722C203.295 335.468 204.828 335.841 206.601 335.841C207.778 335.841 208.855 335.675 209.833 335.344C210.81 335.012 211.647 334.515 212.343 333.852C213.039 333.189 213.57 332.377 213.934 331.416L223.728 332.062C223.231 334.416 222.212 336.471 220.671 338.227C219.146 339.967 217.174 341.326 214.755 342.304C212.352 343.265 209.576 343.746 206.427 343.746ZM262.631 315.706L252.936 316.303C252.771 315.474 252.414 314.728 251.868 314.065C251.321 313.386 250.6 312.847 249.705 312.45C248.827 312.035 247.774 311.828 246.548 311.828C244.907 311.828 243.524 312.176 242.397 312.872C241.27 313.552 240.706 314.463 240.706 315.607C240.706 316.518 241.071 317.289 241.8 317.918C242.529 318.548 243.78 319.054 245.554 319.435L252.464 320.827C256.176 321.589 258.944 322.815 260.767 324.506C262.59 326.196 263.501 328.417 263.501 331.168C263.501 333.67 262.764 335.866 261.289 337.755C259.83 339.644 257.825 341.119 255.273 342.18C252.738 343.224 249.813 343.746 246.498 343.746C241.444 343.746 237.417 342.693 234.417 340.589C231.434 338.468 229.686 335.584 229.172 331.938L239.588 331.391C239.903 332.933 240.665 334.109 241.875 334.921C243.084 335.717 244.634 336.114 246.523 336.114C248.379 336.114 249.871 335.758 250.998 335.045C252.141 334.316 252.721 333.38 252.738 332.237C252.721 331.275 252.315 330.488 251.52 329.875C250.724 329.245 249.498 328.765 247.841 328.433L241.228 327.116C237.5 326.37 234.724 325.077 232.901 323.238C231.095 321.398 230.191 319.054 230.191 316.203C230.191 313.75 230.854 311.638 232.18 309.864C233.522 308.091 235.403 306.724 237.823 305.763C240.259 304.802 243.109 304.321 246.374 304.321C251.196 304.321 254.991 305.34 257.759 307.379C260.543 309.417 262.167 312.193 262.631 315.706ZM300.44 343.621C297.54 343.621 294.913 342.876 292.56 341.384C290.223 339.876 288.367 337.664 286.992 334.747C285.633 331.814 284.953 328.218 284.953 323.959C284.953 319.584 285.658 315.946 287.066 313.046C288.475 310.129 290.348 307.95 292.684 306.509C295.038 305.05 297.614 304.321 300.415 304.321C302.553 304.321 304.334 304.686 305.76 305.415C307.201 306.127 308.361 307.022 309.24 308.099C310.135 309.16 310.814 310.204 311.278 311.232H311.601V292.091H322.166V343H311.725V336.885H311.278C310.781 337.946 310.077 338.998 309.165 340.042C308.27 341.069 307.102 341.923 305.66 342.602C304.235 343.282 302.495 343.621 300.44 343.621ZM303.796 335.195C305.503 335.195 306.944 334.731 308.121 333.803C309.314 332.858 310.226 331.54 310.855 329.85C311.502 328.16 311.825 326.179 311.825 323.909C311.825 321.639 311.51 319.667 310.88 317.993C310.251 316.319 309.339 315.027 308.146 314.115C306.953 313.204 305.503 312.748 303.796 312.748C302.056 312.748 300.589 313.22 299.396 314.165C298.203 315.109 297.3 316.419 296.686 318.092C296.073 319.766 295.767 321.705 295.767 323.909C295.767 326.13 296.073 328.094 296.686 329.8C297.316 331.491 298.219 332.817 299.396 333.778C300.589 334.722 302.056 335.195 303.796 335.195ZM348.273 343.746C344.345 343.746 340.965 342.95 338.131 341.359C335.314 339.752 333.143 337.482 331.618 334.548C330.093 331.598 329.331 328.11 329.331 324.083C329.331 320.156 330.093 316.709 331.618 313.742C333.143 310.776 335.289 308.464 338.056 306.807C340.84 305.15 344.105 304.321 347.85 304.321C350.369 304.321 352.714 304.727 354.885 305.539C357.073 306.335 358.978 307.536 360.602 309.143C362.243 310.751 363.519 312.773 364.431 315.209C365.342 317.628 365.798 320.462 365.798 323.71V326.619H333.557V320.056H355.83C355.83 318.531 355.498 317.181 354.835 316.004C354.173 314.828 353.253 313.908 352.076 313.245C350.916 312.566 349.566 312.226 348.024 312.226C346.417 312.226 344.992 312.599 343.749 313.344C342.522 314.074 341.561 315.06 340.865 316.303C340.169 317.529 339.813 318.896 339.796 320.404V326.643C339.796 328.533 340.144 330.165 340.84 331.54C341.553 332.916 342.556 333.977 343.848 334.722C345.141 335.468 346.674 335.841 348.447 335.841C349.624 335.841 350.701 335.675 351.678 335.344C352.656 335.012 353.493 334.515 354.189 333.852C354.885 333.189 355.415 332.377 355.78 331.416L365.574 332.062C365.077 334.416 364.058 336.471 362.517 338.227C360.992 339.967 359.02 341.326 356.6 342.304C354.197 343.265 351.422 343.746 348.273 343.746ZM17.2955 428.621C14.3954 428.621 11.7687 427.876 9.41548 426.384C7.07884 424.876 5.22277 422.664 3.8473 419.747C2.4884 416.814 1.80895 413.218 1.80895 408.959C1.80895 404.584 2.51326 400.946 3.92188 398.046C5.33049 395.129 7.20313 392.95 9.53977 391.509C11.893 390.05 14.4699 389.321 17.2706 389.321C19.4084 389.321 21.1899 389.686 22.6151 390.415C24.0568 391.127 25.2169 392.022 26.0952 393.099C26.9901 394.16 27.6695 395.204 28.1335 396.232H28.4567V377.091H39.0213V428H28.581V421.885H28.1335C27.6364 422.946 26.9321 423.998 26.0206 425.042C25.1257 426.069 23.9574 426.923 22.5156 427.602C21.0904 428.282 19.3504 428.621 17.2955 428.621ZM20.6513 420.195C22.3582 420.195 23.8 419.731 24.9766 418.803C26.1697 417.858 27.0812 416.54 27.7109 414.85C28.3572 413.16 28.6804 411.179 28.6804 408.909C28.6804 406.639 28.3655 404.667 27.7358 402.993C27.1061 401.319 26.1946 400.027 25.0014 399.115C23.8082 398.204 22.3582 397.748 20.6513 397.748C18.9112 397.748 17.4446 398.22 16.2514 399.165C15.0582 400.109 14.1551 401.419 13.5419 403.092C12.9287 404.766 12.6222 406.705 12.6222 408.909C12.6222 411.13 12.9287 413.094 13.5419 414.8C14.1716 416.491 15.0748 417.817 16.2514 418.778C17.4446 419.722 18.9112 420.195 20.6513 420.195ZM47.7278 428V389.818H58.3173V428H47.7278ZM53.0474 384.896C51.4731 384.896 50.1225 384.374 48.9956 383.33C47.8852 382.27 47.3301 381.002 47.3301 379.527C47.3301 378.069 47.8852 376.817 48.9956 375.773C50.1225 374.713 51.4731 374.183 53.0474 374.183C54.6217 374.183 55.9641 374.713 57.0744 375.773C58.2013 376.817 58.7647 378.069 58.7647 379.527C58.7647 381.002 58.2013 382.27 57.0744 383.33C55.9641 384.374 54.6217 384.896 53.0474 384.896ZM87.3327 389.818V397.773H63.7674V389.818H87.3327ZM69.1616 428V387.059C69.1616 384.291 69.7002 381.996 70.7773 380.173C71.8711 378.35 73.3626 376.983 75.2518 376.072C77.141 375.16 79.2871 374.705 81.69 374.705C83.314 374.705 84.7972 374.829 86.1396 375.077C87.4985 375.326 88.5094 375.55 89.1722 375.749L87.283 383.703C86.8687 383.571 86.355 383.446 85.7418 383.33C85.1452 383.214 84.5321 383.156 83.9023 383.156C82.3446 383.156 81.2591 383.521 80.646 384.25C80.0328 384.963 79.7262 385.965 79.7262 387.258V428H69.1616ZM109.835 428.746C105.908 428.746 102.527 427.95 99.6934 426.359C96.8761 424.752 94.7052 422.482 93.1806 419.548C91.656 416.598 90.8936 413.11 90.8936 409.083C90.8936 405.156 91.656 401.709 93.1806 398.742C94.7052 395.776 96.8513 393.464 99.6188 391.807C102.403 390.15 105.668 389.321 109.413 389.321C111.932 389.321 114.277 389.727 116.448 390.539C118.635 391.335 120.541 392.536 122.165 394.143C123.806 395.751 125.082 397.773 125.993 400.209C126.905 402.628 127.36 405.462 127.36 408.71V411.619H95.1195V405.056H117.392C117.392 403.531 117.061 402.181 116.398 401.004C115.735 399.828 114.815 398.908 113.639 398.245C112.479 397.566 111.128 397.226 109.587 397.226C107.979 397.226 106.554 397.599 105.311 398.344C104.085 399.074 103.124 400.06 102.428 401.303C101.732 402.529 101.375 403.896 101.359 405.404V411.643C101.359 413.533 101.707 415.165 102.403 416.54C103.115 417.916 104.118 418.977 105.411 419.722C106.703 420.468 108.236 420.841 110.009 420.841C111.186 420.841 112.263 420.675 113.241 420.344C114.219 420.012 115.056 419.515 115.752 418.852C116.448 418.189 116.978 417.377 117.343 416.416L127.137 417.062C126.639 419.416 125.62 421.471 124.079 423.227C122.554 424.967 120.582 426.326 118.163 427.304C115.76 428.265 112.984 428.746 109.835 428.746ZM134.271 428V389.818H144.537V396.48H144.935C145.631 394.11 146.799 392.321 148.44 391.111C150.08 389.884 151.97 389.271 154.107 389.271C154.638 389.271 155.209 389.304 155.823 389.371C156.436 389.437 156.974 389.528 157.438 389.644V399.04C156.941 398.891 156.253 398.759 155.375 398.643C154.497 398.527 153.693 398.469 152.964 398.469C151.406 398.469 150.014 398.808 148.788 399.488C147.578 400.151 146.617 401.079 145.904 402.272C145.208 403.465 144.86 404.841 144.86 406.398V428H134.271ZM178.537 428.746C174.609 428.746 171.228 427.95 168.395 426.359C165.577 424.752 163.406 422.482 161.882 419.548C160.357 416.598 159.595 413.11 159.595 409.083C159.595 405.156 160.357 401.709 161.882 398.742C163.406 395.776 165.552 393.464 168.32 391.807C171.104 390.15 174.369 389.321 178.114 389.321C180.633 389.321 182.978 389.727 185.149 390.539C187.336 391.335 189.242 392.536 190.866 394.143C192.507 395.751 193.783 397.773 194.694 400.209C195.606 402.628 196.061 405.462 196.061 408.71V411.619H163.821V405.056H186.093C186.093 403.531 185.762 402.181 185.099 401.004C184.436 399.828 183.516 398.908 182.34 398.245C181.18 397.566 179.829 397.226 178.288 397.226C176.681 397.226 175.255 397.599 174.012 398.344C172.786 399.074 171.825 400.06 171.129 401.303C170.433 402.529 170.077 403.896 170.06 405.404V411.643C170.06 413.533 170.408 415.165 171.104 416.54C171.817 417.916 172.819 418.977 174.112 419.722C175.404 420.468 176.937 420.841 178.711 420.841C179.887 420.841 180.964 420.675 181.942 420.344C182.92 420.012 183.757 419.515 184.453 418.852C185.149 418.189 185.679 417.377 186.044 416.416L195.838 417.062C195.341 419.416 194.321 421.471 192.78 423.227C191.256 424.967 189.283 426.326 186.864 427.304C184.461 428.265 181.685 428.746 178.537 428.746ZM213.561 405.926V428H202.972V389.818H213.064V396.555H213.512C214.357 394.334 215.774 392.577 217.762 391.285C219.751 389.976 222.162 389.321 224.996 389.321C227.648 389.321 229.959 389.901 231.931 391.061C233.904 392.221 235.436 393.878 236.53 396.033C237.624 398.17 238.171 400.723 238.171 403.689V428H227.581V405.578C227.598 403.241 227.001 401.419 225.792 400.109C224.582 398.784 222.916 398.121 220.795 398.121C219.37 398.121 218.11 398.427 217.017 399.04C215.94 399.654 215.094 400.549 214.481 401.725C213.885 402.885 213.578 404.286 213.561 405.926ZM266.826 389.818V397.773H243.832V389.818H266.826ZM249.052 380.67H259.642V416.267C259.642 417.245 259.791 418.007 260.089 418.554C260.388 419.084 260.802 419.457 261.332 419.673C261.879 419.888 262.509 419.996 263.221 419.996C263.719 419.996 264.216 419.954 264.713 419.871C265.21 419.772 265.591 419.697 265.856 419.648L267.522 427.528C266.992 427.693 266.246 427.884 265.285 428.099C264.323 428.331 263.155 428.472 261.78 428.522C259.228 428.621 256.99 428.282 255.068 427.503C253.162 426.724 251.679 425.514 250.618 423.874C249.558 422.233 249.036 420.161 249.052 417.659V380.67ZM290.714 428.746C286.787 428.746 283.406 427.95 280.572 426.359C277.755 424.752 275.584 422.482 274.059 419.548C272.535 416.598 271.773 413.11 271.773 409.083C271.773 405.156 272.535 401.709 274.059 398.742C275.584 395.776 277.73 393.464 280.498 391.807C283.282 390.15 286.546 389.321 290.292 389.321C292.811 389.321 295.156 389.727 297.327 390.539C299.514 391.335 301.42 392.536 303.044 394.143C304.684 395.751 305.961 397.773 306.872 400.209C307.783 402.628 308.239 405.462 308.239 408.71V411.619H275.998V405.056H298.271C298.271 403.531 297.94 402.181 297.277 401.004C296.614 399.828 295.694 398.908 294.518 398.245C293.358 397.566 292.007 397.226 290.466 397.226C288.858 397.226 287.433 397.599 286.19 398.344C284.964 399.074 284.003 400.06 283.307 401.303C282.611 402.529 282.254 403.896 282.238 405.404V411.643C282.238 413.533 282.586 415.165 283.282 416.54C283.994 417.916 284.997 418.977 286.29 419.722C287.582 420.468 289.115 420.841 290.888 420.841C292.065 420.841 293.142 420.675 294.12 420.344C295.098 420.012 295.934 419.515 296.631 418.852C297.327 418.189 297.857 417.377 298.221 416.416L308.015 417.062C307.518 419.416 306.499 421.471 304.958 423.227C303.433 424.967 301.461 426.326 299.042 427.304C296.639 428.265 293.863 428.746 290.714 428.746ZM346.918 400.706L337.224 401.303C337.058 400.474 336.702 399.728 336.155 399.065C335.608 398.386 334.887 397.847 333.992 397.45C333.114 397.035 332.061 396.828 330.835 396.828C329.194 396.828 327.811 397.176 326.684 397.872C325.557 398.552 324.993 399.463 324.993 400.607C324.993 401.518 325.358 402.289 326.087 402.918C326.816 403.548 328.068 404.054 329.841 404.435L336.751 405.827C340.463 406.589 343.231 407.815 345.054 409.506C346.877 411.196 347.788 413.417 347.788 416.168C347.788 418.67 347.051 420.866 345.576 422.755C344.117 424.644 342.112 426.119 339.56 427.18C337.025 428.224 334.1 428.746 330.785 428.746C325.731 428.746 321.704 427.693 318.704 425.589C315.721 423.468 313.973 420.584 313.459 416.938L323.875 416.391C324.19 417.933 324.952 419.109 326.162 419.921C327.372 420.717 328.921 421.114 330.81 421.114C332.666 421.114 334.158 420.758 335.285 420.045C336.428 419.316 337.008 418.38 337.025 417.237C337.008 416.275 336.602 415.488 335.807 414.875C335.011 414.245 333.785 413.765 332.128 413.433L325.515 412.116C321.787 411.37 319.011 410.077 317.188 408.238C315.382 406.398 314.479 404.054 314.479 401.203C314.479 398.75 315.141 396.638 316.467 394.864C317.809 393.091 319.69 391.724 322.11 390.763C324.546 389.802 327.396 389.321 330.661 389.321C335.483 389.321 339.278 390.34 342.046 392.379C344.83 394.417 346.454 397.193 346.918 400.706ZM23.5348 474.818V482.773H0.541193V474.818H23.5348ZM5.76136 465.67H16.3509V501.267C16.3509 502.245 16.5 503.007 16.7983 503.554C17.0966 504.084 17.5109 504.457 18.0412 504.673C18.5881 504.888 19.2178 504.996 19.9304 504.996C20.4276 504.996 20.9247 504.954 21.4219 504.871C21.919 504.772 22.3002 504.697 22.5653 504.648L24.2308 512.528C23.7005 512.693 22.9548 512.884 21.9936 513.099C21.0324 513.331 19.8641 513.472 18.4886 513.522C15.9366 513.621 13.6993 513.282 11.777 512.503C9.87121 511.724 8.38802 510.514 7.32741 508.874C6.26681 507.233 5.74479 505.161 5.76136 502.659V465.67ZM47.4233 513.746C43.4957 513.746 40.1151 512.95 37.2812 511.359C34.464 509.752 32.2931 507.482 30.7685 504.548C29.2438 501.598 28.4815 498.11 28.4815 494.083C28.4815 490.156 29.2438 486.709 30.7685 483.742C32.2931 480.776 34.4392 478.464 37.2067 476.807C39.9908 475.15 43.2554 474.321 47.0007 474.321C49.5197 474.321 51.8646 474.727 54.0355 475.539C56.223 476.335 58.1288 477.536 59.7528 479.143C61.3935 480.751 62.6695 482.773 63.581 485.209C64.4924 487.628 64.9482 490.462 64.9482 493.71V496.619H32.7074V490.056H54.9801C54.9801 488.531 54.6487 487.181 53.9858 486.004C53.3229 484.828 52.4032 483.908 51.2266 483.245C50.0665 482.566 48.7159 482.226 47.1747 482.226C45.5672 482.226 44.142 482.599 42.8991 483.344C41.6728 484.074 40.7116 485.06 40.0156 486.303C39.3196 487.529 38.9633 488.896 38.9467 490.404V496.643C38.9467 498.533 39.2947 500.165 39.9908 501.54C40.7034 502.916 41.706 503.977 42.9986 504.722C44.2912 505.468 45.8241 505.841 47.5973 505.841C48.7739 505.841 49.8511 505.675 50.8288 505.344C51.8066 505.012 52.6435 504.515 53.3395 503.852C54.0355 503.189 54.5658 502.377 54.9304 501.416L64.7244 502.062C64.2273 504.416 63.2081 506.471 61.6669 508.227C60.1423 509.967 58.1702 511.326 55.7507 512.304C53.3478 513.265 50.572 513.746 47.4233 513.746ZM71.8587 513V474.818H81.951V481.555H82.3984C83.1939 479.317 84.5197 477.553 86.3757 476.26C88.2318 474.967 90.4524 474.321 93.0376 474.321C95.656 474.321 97.8849 474.976 99.7244 476.285C101.564 477.577 102.79 479.334 103.403 481.555H103.801C104.58 479.367 105.989 477.619 108.027 476.31C110.082 474.984 112.51 474.321 115.31 474.321C118.873 474.321 121.765 475.456 123.986 477.727C126.223 479.98 127.342 483.179 127.342 487.322V513H116.777V489.41C116.777 487.289 116.214 485.698 115.087 484.637C113.96 483.576 112.551 483.046 110.861 483.046C108.938 483.046 107.439 483.659 106.362 484.886C105.284 486.095 104.746 487.695 104.746 489.683V513H94.4794V489.186C94.4794 487.313 93.9408 485.822 92.8636 484.712C91.803 483.601 90.4027 483.046 88.6626 483.046C87.486 483.046 86.4254 483.344 85.4808 483.941C84.5528 484.521 83.8153 485.341 83.2685 486.402C82.7216 487.446 82.4482 488.672 82.4482 490.081V513H71.8587ZM146.594 513.721C144.158 513.721 141.987 513.298 140.081 512.453C138.176 511.591 136.667 510.324 135.557 508.65C134.463 506.96 133.917 504.855 133.917 502.336C133.917 500.215 134.306 498.433 135.085 496.991C135.864 495.55 136.924 494.39 138.267 493.511C139.609 492.633 141.134 491.97 142.841 491.523C144.564 491.075 146.37 490.76 148.26 490.578C150.48 490.346 152.27 490.131 153.629 489.932C154.988 489.716 155.974 489.402 156.587 488.987C157.2 488.573 157.507 487.96 157.507 487.148V486.999C157.507 485.424 157.01 484.206 156.015 483.344C155.038 482.483 153.645 482.052 151.839 482.052C149.933 482.052 148.417 482.474 147.29 483.32C146.163 484.148 145.417 485.192 145.053 486.452L135.259 485.656C135.756 483.336 136.734 481.331 138.192 479.641C139.65 477.934 141.531 476.625 143.835 475.713C146.155 474.785 148.84 474.321 151.889 474.321C154.01 474.321 156.04 474.57 157.979 475.067C159.935 475.564 161.666 476.335 163.174 477.379C164.699 478.423 165.9 479.765 166.779 481.406C167.657 483.03 168.096 484.977 168.096 487.247V513H158.054V507.705H157.755C157.142 508.898 156.322 509.951 155.294 510.862C154.267 511.757 153.032 512.461 151.591 512.975C150.149 513.472 148.483 513.721 146.594 513.721ZM149.627 506.413C151.185 506.413 152.56 506.106 153.753 505.493C154.946 504.863 155.883 504.018 156.562 502.957C157.242 501.897 157.581 500.695 157.581 499.353V495.301C157.25 495.517 156.794 495.715 156.214 495.898C155.651 496.063 155.013 496.221 154.3 496.37C153.587 496.503 152.875 496.627 152.162 496.743C151.45 496.842 150.803 496.933 150.223 497.016C148.98 497.199 147.895 497.489 146.967 497.886C146.039 498.284 145.318 498.823 144.804 499.502C144.291 500.165 144.034 500.994 144.034 501.988C144.034 503.43 144.556 504.532 145.6 505.294C146.66 506.04 148.003 506.413 149.627 506.413ZM208.08 485.706L198.386 486.303C198.22 485.474 197.864 484.728 197.317 484.065C196.77 483.386 196.049 482.847 195.154 482.45C194.276 482.035 193.223 481.828 191.997 481.828C190.357 481.828 188.973 482.176 187.846 482.872C186.719 483.552 186.156 484.463 186.156 485.607C186.156 486.518 186.52 487.289 187.249 487.918C187.978 488.548 189.23 489.054 191.003 489.435L197.913 490.827C201.625 491.589 204.393 492.815 206.216 494.506C208.039 496.196 208.95 498.417 208.95 501.168C208.95 503.67 208.213 505.866 206.738 507.755C205.28 509.644 203.274 511.119 200.722 512.18C198.187 513.224 195.262 513.746 191.947 513.746C186.893 513.746 182.866 512.693 179.866 510.589C176.884 508.468 175.135 505.584 174.621 501.938L185.037 501.391C185.352 502.933 186.114 504.109 187.324 504.921C188.534 505.717 190.083 506.114 191.972 506.114C193.828 506.114 195.32 505.758 196.447 505.045C197.59 504.316 198.17 503.38 198.187 502.237C198.17 501.275 197.764 500.488 196.969 499.875C196.173 499.245 194.947 498.765 193.29 498.433L186.678 497.116C182.949 496.37 180.173 495.077 178.35 493.238C176.544 491.398 175.641 489.054 175.641 486.203C175.641 483.75 176.304 481.638 177.629 479.864C178.972 478.091 180.853 476.724 183.272 475.763C185.708 474.802 188.558 474.321 191.823 474.321C196.646 474.321 200.441 475.34 203.208 477.379C205.992 479.417 207.616 482.193 208.08 485.706Z" fill="#2A292E"/>
<path d="M585.176 232.741C584.789 233.612 585.079 241.739 585.659 250.833C586.336 259.927 587.688 273.375 588.848 280.825C589.911 288.274 591.844 299.4 593.293 305.495C594.646 311.59 597.448 322.522 599.574 329.682C601.604 336.841 605.759 348.838 608.754 356.287C611.653 363.737 617.065 375.733 620.64 382.893C624.216 390.052 629.241 399.436 631.753 403.693C634.265 407.95 639.87 416.657 644.122 423.042C648.471 429.428 655.621 439.199 660.163 444.81C664.608 450.422 672.049 459.032 676.591 463.966C681.132 468.9 690.506 478.091 697.463 484.38C704.421 490.668 715.051 499.472 721.138 504.02C727.226 508.47 736.213 514.855 740.948 518.048C745.683 521.24 754.187 526.368 759.792 529.464C765.396 532.56 774.673 537.397 780.568 540.203C786.462 542.912 798.155 547.846 806.658 550.942C815.162 554.134 826.855 558.101 832.749 559.746C838.644 561.39 849.66 564.099 857.391 565.647C865.121 567.195 876.621 569.227 882.998 570.001C889.376 570.872 901.649 571.936 910.345 572.323L926 573V421.108C904.644 419.366 893.918 417.915 888.313 416.754C882.708 415.593 872.465 412.787 865.604 410.465C858.744 408.24 848.307 403.983 842.413 400.984C836.518 398.082 827.628 392.954 822.603 389.665C817.578 386.279 810.33 381.054 806.658 378.055C802.986 374.959 795.546 367.993 790.231 362.479C784.916 356.868 777.958 348.934 774.77 344.678C771.581 340.421 766.749 333.261 764.043 328.714C761.338 324.167 756.893 315.653 754.187 309.849C751.578 304.044 747.809 294.369 745.973 288.564C744.04 282.76 741.625 273.569 740.562 268.248C739.499 262.926 738.049 252.381 737.373 244.738L736.116 231C590.298 231 585.756 231.097 585.176 232.645V232.741Z" fill="#010101"/>
<path d="M1300.82 231.741C1301.21 232.612 1300.92 240.739 1300.34 249.833C1299.66 258.927 1298.31 272.375 1297.15 279.825C1296.09 287.274 1294.16 298.4 1292.71 304.495C1291.35 310.59 1288.55 321.522 1286.43 328.682C1284.4 335.841 1280.24 347.838 1277.25 355.287C1274.35 362.737 1268.94 374.733 1265.36 381.893C1261.78 389.052 1256.76 398.436 1254.25 402.693C1251.73 406.95 1246.13 415.657 1241.88 422.042C1237.53 428.428 1230.38 438.199 1225.84 443.81C1221.39 449.422 1213.95 458.032 1209.41 462.966C1204.87 467.9 1195.49 477.091 1188.54 483.38C1181.58 489.668 1170.95 498.472 1164.86 503.02C1158.77 507.47 1149.79 513.855 1145.05 517.048C1140.32 520.24 1131.81 525.368 1126.21 528.464C1120.6 531.56 1111.33 536.397 1105.43 539.203C1099.54 541.912 1087.85 546.846 1079.34 549.942C1070.84 553.134 1059.15 557.101 1053.25 558.746C1047.36 560.39 1036.34 563.099 1028.61 564.647C1020.88 566.195 1009.38 568.227 1003 569.001C996.624 569.872 984.351 570.936 975.655 571.323L960 572V420.108C981.356 418.366 992.082 416.915 997.687 415.754C1003.29 414.593 1013.53 411.787 1020.4 409.465C1027.26 407.24 1037.69 402.983 1043.59 399.984C1049.48 397.082 1058.37 391.954 1063.4 388.665C1068.42 385.279 1075.67 380.054 1079.34 377.055C1083.01 373.959 1090.45 366.993 1095.77 361.479C1101.08 355.868 1108.04 347.934 1111.23 343.678C1114.42 339.421 1119.25 332.261 1121.96 327.714C1124.66 323.167 1129.11 314.653 1131.81 308.849C1134.42 303.044 1138.19 293.369 1140.03 287.564C1141.96 281.76 1144.38 272.569 1145.44 267.248C1146.5 261.926 1147.95 251.381 1148.63 243.738L1149.88 230C1295.7 230 1300.24 230.097 1300.82 231.645V231.741Z" fill="#010101"/>
<path d="M925.855 280.564C926.173 279.846 925.935 273.145 925.457 265.646C924.899 258.148 923.785 247.059 922.829 240.917C921.953 234.774 920.36 225.6 919.166 220.574C918.051 215.549 915.742 206.534 913.99 200.631C912.318 194.728 908.894 184.836 906.425 178.693C904.036 172.55 899.577 162.659 896.631 156.755C893.684 150.852 889.544 143.114 887.473 139.604C885.403 136.094 880.784 128.914 877.281 123.649C873.697 118.384 867.805 110.327 864.062 105.7C860.399 101.073 854.268 93.9734 850.525 89.9049C846.782 85.8365 839.058 78.258 833.325 73.0727C827.592 67.8874 818.832 60.628 813.816 56.8786C808.799 53.209 801.393 47.944 797.491 45.3114C793.59 42.6789 786.582 38.4509 781.964 35.8982C777.345 33.3454 769.701 29.3567 764.843 27.0433C759.986 24.8096 750.35 20.7411 743.343 18.1884C736.336 15.5559 726.7 12.2851 721.843 10.929C716.986 9.57284 707.908 7.33918 701.537 6.0628C695.167 4.78642 685.691 3.11117 680.435 2.47298C675.18 1.75502 665.067 0.877511 657.9 0.558416L645 -9.26852e-06V125.245C662.598 126.681 671.437 127.877 676.056 128.835C680.674 129.792 689.115 132.105 694.769 134.02C700.422 135.855 709.023 139.365 713.88 141.838C718.737 144.231 726.063 148.459 730.204 151.171C734.345 153.963 740.317 158.271 743.343 160.744C746.369 163.297 752.5 169.04 756.88 173.588C761.26 178.214 766.993 184.756 769.621 188.266C772.249 191.776 776.23 197.679 778.46 201.429C780.69 205.178 784.352 212.198 786.582 216.984C788.732 221.771 791.838 229.748 793.351 234.535C794.943 239.321 796.934 246.9 797.81 251.287C798.686 255.675 799.88 264.37 800.438 270.672L801.473 282C921.635 282 925.377 281.92 925.855 280.644V280.564Z" fill="#010101"/>
<path d="M1240.56 1.14503C1239.85 0.826512 1233.15 1.0654 1225.65 1.54318C1218.15 2.10059 1207.06 3.21541 1200.92 4.17097C1194.77 5.0469 1185.6 6.6395 1180.57 7.83395C1175.55 8.94877 1166.53 11.258 1160.63 13.0099C1154.73 14.6821 1144.84 18.1062 1138.69 20.5747C1132.55 22.9636 1122.66 27.4229 1116.76 30.3692C1110.85 33.3155 1103.11 37.4563 1099.6 39.5267C1096.09 41.5971 1088.91 46.2156 1083.65 49.7193C1078.38 53.3027 1070.33 59.1953 1065.7 62.9379C1061.07 66.6009 1053.97 72.7324 1049.9 76.475C1045.84 80.2176 1038.26 87.9417 1033.07 93.6751C1027.89 99.4084 1020.63 108.168 1016.88 113.184C1013.21 118.201 1007.94 125.607 1005.31 129.509C1002.68 133.41 998.451 140.418 995.898 145.036C993.345 149.655 989.357 157.299 987.043 162.157C984.81 167.014 980.741 176.65 978.188 183.657C975.556 190.664 972.285 200.3 970.929 205.157C969.573 210.014 967.339 219.092 966.063 225.463C964.786 231.833 963.111 241.309 962.473 246.565C961.755 251.82 960.878 261.933 960.558 269.1L960 282L1085.24 282C1086.68 264.402 1087.88 255.563 1088.83 250.944C1089.79 246.326 1092.11 237.885 1094.02 232.231C1095.85 226.578 1099.36 217.977 1101.84 213.12C1104.23 208.263 1108.46 200.937 1111.17 196.796C1113.96 192.655 1118.27 186.683 1120.74 183.657C1123.3 180.631 1129.04 174.5 1133.59 170.12C1138.21 165.74 1144.76 160.007 1148.27 157.379C1151.78 154.751 1157.68 150.77 1161.43 148.54C1165.18 146.31 1172.2 142.648 1176.98 140.418C1181.77 138.268 1189.75 135.162 1194.53 133.649C1199.32 132.057 1206.9 130.066 1211.29 129.19C1215.67 128.314 1224.37 127.12 1230.67 126.562L1242 125.527C1242 5.36542 1241.92 1.62281 1240.64 1.14503H1240.56Z" fill="#010101"/>
<path d="M644.893 570.936C645.128 570.404 644.952 565.437 644.598 559.88C644.185 554.322 643.36 546.104 642.653 541.552C642.004 536.999 640.826 530.2 639.941 526.475C639.116 522.75 637.407 516.07 636.11 511.694C634.872 507.319 632.338 499.988 630.511 495.436C628.742 490.883 625.441 483.552 623.26 479.177C621.08 474.802 618.015 469.067 616.482 466.465C614.95 463.864 611.531 458.543 608.937 454.641C606.285 450.739 601.923 444.767 599.153 441.338C596.441 437.909 591.903 432.647 589.132 429.632C586.362 426.616 580.645 421 576.401 417.157C572.157 413.314 565.673 407.934 561.96 405.155C558.246 402.435 552.764 398.533 549.876 396.582C546.988 394.631 541.801 391.497 538.382 389.605C534.964 387.713 529.305 384.757 525.71 383.043C522.114 381.387 514.982 378.372 509.795 376.48C504.608 374.529 497.476 372.105 493.88 371.1C490.285 370.095 483.565 368.439 478.85 367.493C474.134 366.547 467.12 365.306 463.23 364.833C459.339 364.301 451.854 363.65 446.549 363.414L437 363V455.823C450.026 456.887 456.569 457.774 459.988 458.484C463.407 459.193 469.655 460.908 473.839 462.327C478.024 463.687 484.39 466.288 487.986 468.121C491.581 469.894 497.004 473.028 500.069 475.038C503.134 477.107 507.555 480.3 509.795 482.133C512.035 484.025 516.573 488.282 519.815 491.652C523.057 495.081 527.301 499.929 529.246 502.53C531.191 505.132 534.138 509.507 535.789 512.286C537.439 515.064 540.151 520.267 541.801 523.815C543.392 527.362 545.691 533.274 546.811 536.822C547.99 540.369 549.464 545.986 550.112 549.238C550.76 552.489 551.645 558.934 552.057 563.605L552.823 572C641.769 572 644.539 571.941 644.893 570.995V570.936Z" fill="#010101"/>
<path d="M340.145 280.564C339.827 279.846 340.065 273.145 340.543 265.646C341.101 258.148 342.215 247.059 343.171 240.917C344.047 234.774 345.64 225.6 346.834 220.574C347.949 215.549 350.258 206.534 352.01 200.631C353.682 194.728 357.106 184.836 359.575 178.693C361.964 172.55 366.423 162.659 369.369 156.755C372.316 150.852 376.456 143.114 378.527 139.604C380.597 136.094 385.216 128.914 388.719 123.649C392.303 118.384 398.195 110.327 401.938 105.7C405.601 101.073 411.732 93.9734 415.475 89.9049C419.218 85.8365 426.942 78.258 432.675 73.0727C438.408 67.8874 447.168 60.628 452.184 56.8786C457.201 53.209 464.607 47.944 468.509 45.3114C472.41 42.6789 479.418 38.4509 484.036 35.8982C488.655 33.3454 496.299 29.3567 501.157 27.0433C506.014 24.8096 515.65 20.7411 522.657 18.1884C529.664 15.5559 539.3 12.2851 544.157 10.929C549.014 9.57284 558.092 7.33918 564.463 6.0628C570.833 4.78642 580.309 3.11117 585.565 2.47298C590.82 1.75502 600.933 0.877511 608.1 0.558416L621 -9.26852e-06V125.245C603.402 126.681 594.563 127.877 589.944 128.835C585.326 129.792 576.885 132.105 571.231 134.02C565.578 135.855 556.977 139.365 552.12 141.838C547.263 144.231 539.937 148.459 535.796 151.171C531.655 153.963 525.683 158.271 522.657 160.744C519.631 163.297 513.5 169.04 509.12 173.588C504.74 178.214 499.007 184.756 496.379 188.266C493.751 191.776 489.77 197.679 487.54 201.429C485.31 205.178 481.648 212.198 479.418 216.984C477.268 221.771 474.162 229.748 472.649 234.535C471.057 239.321 469.066 246.9 468.19 251.287C467.314 255.675 466.12 264.37 465.562 270.672L464.527 282C344.365 282 340.623 281.92 340.145 280.644V280.564Z" fill="#010101"/>
</svg> -->


<svg width="1303" height="573" viewBox="0 0 1303 573" fill="none" xmlns="http://www.w3.org/2000/svg">
<path d="M21.9439 345.696C18.2318 345.696 14.9257 345.058 12.0256 343.782C9.14205 342.489 6.8634 340.716 5.18963 338.462C3.53243 336.192 2.67898 333.574 2.62926 330.607H13.4673C13.5336 331.85 13.9396 332.944 14.6854 333.888C15.4477 334.817 16.4586 335.537 17.718 336.051C18.9775 336.565 20.3944 336.822 21.9688 336.822C23.6094 336.822 25.0594 336.532 26.3189 335.952C27.5784 335.372 28.5644 334.568 29.277 333.54C29.9896 332.513 30.3459 331.328 30.3459 329.986C30.3459 328.627 29.9647 327.425 29.2024 326.381C28.4567 325.321 27.3795 324.492 25.9709 323.896C24.5788 323.299 22.9216 323.001 20.9993 323.001H16.2514V315.096H20.9993C22.6233 315.096 24.0568 314.814 25.2997 314.251C26.5592 313.687 27.5369 312.908 28.233 311.914C28.929 310.903 29.277 309.727 29.277 308.384C29.277 307.108 28.9704 305.99 28.3572 305.028C27.7607 304.051 26.9155 303.288 25.8217 302.741C24.7446 302.195 23.4851 301.921 22.0433 301.921C20.585 301.921 19.2509 302.186 18.0412 302.717C16.8314 303.23 15.862 303.968 15.1328 304.929C14.4036 305.89 14.0142 307.017 13.9645 308.31H3.64844C3.69815 305.376 4.53504 302.791 6.15909 300.554C7.78314 298.317 9.97064 296.568 12.7216 295.309C15.4891 294.033 18.6129 293.395 22.093 293.395C25.6063 293.395 28.6804 294.033 31.3153 295.309C33.9503 296.585 35.9969 298.308 37.4553 300.479C38.9302 302.634 39.6593 305.053 39.6428 307.738C39.6593 310.588 38.7727 312.966 36.983 314.872C35.2098 316.778 32.898 317.988 30.0476 318.501V318.899C33.7929 319.38 36.6432 320.681 38.5987 322.802C40.5708 324.906 41.5485 327.541 41.532 330.707C41.5485 333.607 40.7116 336.184 39.0213 338.438C37.3475 340.691 35.0357 342.464 32.0859 343.757C29.1361 345.05 25.7554 345.696 21.9439 345.696ZM90.8004 359.318V338.885H90.4773C89.9801 339.946 89.2758 340.998 88.3643 342.042C87.4695 343.069 86.3011 343.923 84.8594 344.602C83.4342 345.282 81.6941 345.621 79.6392 345.621C76.7391 345.621 74.1125 344.876 71.7592 343.384C69.4226 341.876 67.5665 339.664 66.1911 336.747C64.8321 333.814 64.1527 330.218 64.1527 325.959C64.1527 321.584 64.857 317.946 66.2656 315.046C67.6742 312.129 69.5469 309.95 71.8835 308.509C74.2367 307.05 76.8137 306.321 79.6143 306.321C81.7521 306.321 83.5336 306.686 84.9588 307.415C86.4006 308.127 87.5606 309.022 88.4389 310.099C89.3338 311.16 90.0133 312.204 90.4773 313.232H90.9247V306.818H101.365V359.318H90.8004ZM82.995 337.195C84.7019 337.195 86.1437 336.731 87.3203 335.803C88.5135 334.858 89.425 333.54 90.0547 331.85C90.701 330.16 91.0241 328.179 91.0241 325.909C91.0241 323.639 90.7093 321.667 90.0795 319.993C89.4498 318.319 88.5384 317.027 87.3452 316.115C86.152 315.204 84.7019 314.748 82.995 314.748C81.255 314.748 79.7884 315.22 78.5952 316.165C77.402 317.109 76.4988 318.419 75.8857 320.092C75.2725 321.766 74.9659 323.705 74.9659 325.909C74.9659 328.13 75.2725 330.094 75.8857 331.8C76.5154 333.491 77.4186 334.817 78.5952 335.778C79.7884 336.722 81.255 337.195 82.995 337.195ZM134.352 328.743V306.818H144.941V345H134.774V338.065H134.376C133.515 340.302 132.081 342.1 130.076 343.459C128.087 344.818 125.66 345.497 122.793 345.497C120.241 345.497 117.995 344.917 116.056 343.757C114.117 342.597 112.601 340.948 111.507 338.81C110.43 336.673 109.883 334.112 109.866 331.129V306.818H120.456V329.24C120.473 331.494 121.077 333.275 122.271 334.585C123.464 335.894 125.063 336.548 127.068 336.548C128.344 336.548 129.537 336.258 130.648 335.678C131.758 335.082 132.653 334.203 133.332 333.043C134.028 331.883 134.368 330.45 134.352 328.743ZM153.411 345V306.818H164.001V345H153.411ZM158.731 301.896C157.157 301.896 155.806 301.374 154.679 300.33C153.569 299.27 153.014 298.002 153.014 296.527C153.014 295.069 153.569 293.817 154.679 292.773C155.806 291.713 157.157 291.183 158.731 291.183C160.305 291.183 161.648 291.713 162.758 292.773C163.885 293.817 164.448 295.069 164.448 296.527C164.448 298.002 163.885 299.27 162.758 300.33C161.648 301.374 160.305 301.896 158.731 301.896ZM172.285 345V338.686L190.978 315.543V315.27H172.931V306.818H203.73V313.704L186.18 336.275V336.548H204.376V345H172.285ZM212.275 345V338.686L230.968 315.543V315.27H212.921V306.818H243.72V313.704L226.171 336.275V336.548H244.367V345H212.275ZM268.771 345.746C264.843 345.746 261.463 344.95 258.629 343.359C255.812 341.752 253.641 339.482 252.116 336.548C250.592 333.598 249.829 330.11 249.829 326.083C249.829 322.156 250.592 318.709 252.116 315.742C253.641 312.776 255.787 310.464 258.554 308.807C261.338 307.15 264.603 306.321 268.348 306.321C270.867 306.321 273.212 306.727 275.383 307.539C277.571 308.335 279.476 309.536 281.1 311.143C282.741 312.751 284.017 314.773 284.929 317.209C285.84 319.628 286.296 322.462 286.296 325.71V328.619H254.055V322.056H276.328C276.328 320.531 275.996 319.181 275.333 318.004C274.671 316.828 273.751 315.908 272.574 315.245C271.414 314.566 270.064 314.226 268.522 314.226C266.915 314.226 265.49 314.599 264.247 315.344C263.02 316.074 262.059 317.06 261.363 318.303C260.667 319.529 260.311 320.896 260.294 322.404V328.643C260.294 330.533 260.642 332.165 261.338 333.54C262.051 334.916 263.054 335.977 264.346 336.722C265.639 337.468 267.172 337.841 268.945 337.841C270.122 337.841 271.199 337.675 272.176 337.344C273.154 337.012 273.991 336.515 274.687 335.852C275.383 335.189 275.913 334.377 276.278 333.416L286.072 334.062C285.575 336.416 284.556 338.471 283.015 340.227C281.49 341.967 279.518 343.326 277.098 344.304C274.695 345.265 271.92 345.746 268.771 345.746ZM324.975 317.706L315.28 318.303C315.114 317.474 314.758 316.728 314.211 316.065C313.664 315.386 312.944 314.847 312.049 314.45C311.17 314.035 310.118 313.828 308.892 313.828C307.251 313.828 305.867 314.176 304.74 314.872C303.614 315.552 303.05 316.463 303.05 317.607C303.05 318.518 303.415 319.289 304.144 319.918C304.873 320.548 306.124 321.054 307.897 321.435L314.808 322.827C318.52 323.589 321.288 324.815 323.11 326.506C324.933 328.196 325.845 330.417 325.845 333.168C325.845 335.67 325.107 337.866 323.632 339.755C322.174 341.644 320.169 343.119 317.617 344.18C315.081 345.224 312.156 345.746 308.842 345.746C303.788 345.746 299.761 344.693 296.761 342.589C293.778 340.468 292.03 337.584 291.516 333.938L301.931 333.391C302.246 334.933 303.009 336.109 304.218 336.921C305.428 337.717 306.978 338.114 308.867 338.114C310.723 338.114 312.214 337.758 313.341 337.045C314.485 336.316 315.065 335.38 315.081 334.237C315.065 333.275 314.659 332.488 313.863 331.875C313.068 331.245 311.842 330.765 310.184 330.433L303.572 329.116C299.843 328.37 297.068 327.077 295.245 325.238C293.438 323.398 292.535 321.054 292.535 318.203C292.535 315.75 293.198 313.638 294.524 311.864C295.866 310.091 297.747 308.724 300.167 307.763C302.603 306.802 305.453 306.321 308.718 306.321C313.54 306.321 317.335 307.34 320.103 309.379C322.887 311.417 324.511 314.193 324.975 317.706ZM362.784 345.621C359.884 345.621 357.257 344.876 354.904 343.384C352.567 341.876 350.711 339.664 349.336 336.747C347.977 333.814 347.297 330.218 347.297 325.959C347.297 321.584 348.002 317.946 349.41 315.046C350.819 312.129 352.691 309.95 355.028 308.509C357.381 307.05 359.958 306.321 362.759 306.321C364.897 306.321 366.678 306.686 368.103 307.415C369.545 308.127 370.705 309.022 371.583 310.099C372.478 311.16 373.158 312.204 373.622 313.232H373.945V294.091H384.51V345H374.069V338.885H373.622C373.125 339.946 372.42 340.998 371.509 342.042C370.614 343.069 369.446 343.923 368.004 344.602C366.579 345.282 364.839 345.621 362.784 345.621ZM366.14 337.195C367.846 337.195 369.288 336.731 370.465 335.803C371.658 334.858 372.569 333.54 373.199 331.85C373.846 330.16 374.169 328.179 374.169 325.909C374.169 323.639 373.854 321.667 373.224 319.993C372.594 318.319 371.683 317.027 370.49 316.115C369.297 315.204 367.846 314.748 366.14 314.748C364.4 314.748 362.933 315.22 361.74 316.165C360.547 317.109 359.643 318.419 359.03 320.092C358.417 321.766 358.11 323.705 358.11 325.909C358.11 328.13 358.417 330.094 359.03 331.8C359.66 333.491 360.563 334.817 361.74 335.778C362.933 336.722 364.4 337.195 366.14 337.195ZM410.617 345.746C406.689 345.746 403.308 344.95 400.475 343.359C397.657 341.752 395.486 339.482 393.962 336.548C392.437 333.598 391.675 330.11 391.675 326.083C391.675 322.156 392.437 318.709 393.962 315.742C395.486 312.776 397.633 310.464 400.4 308.807C403.184 307.15 406.449 306.321 410.194 306.321C412.713 306.321 415.058 306.727 417.229 307.539C419.416 308.335 421.322 309.536 422.946 311.143C424.587 312.751 425.863 314.773 426.774 317.209C427.686 319.628 428.142 322.462 428.142 325.71V328.619H395.901V322.056H418.173C418.173 320.531 417.842 319.181 417.179 318.004C416.516 316.828 415.597 315.908 414.42 315.245C413.26 314.566 411.909 314.226 410.368 314.226C408.761 314.226 407.335 314.599 406.093 315.344C404.866 316.074 403.905 317.06 403.209 318.303C402.513 319.529 402.157 320.896 402.14 322.404V328.643C402.14 330.533 402.488 332.165 403.184 333.54C403.897 334.916 404.899 335.977 406.192 336.722C407.485 337.468 409.017 337.841 410.791 337.841C411.967 337.841 413.044 337.675 414.022 337.344C415 337.012 415.837 336.515 416.533 335.852C417.229 335.189 417.759 334.377 418.124 333.416L427.918 334.062C427.421 336.416 426.401 338.471 424.86 340.227C423.336 341.967 421.364 343.326 418.944 344.304C416.541 345.265 413.765 345.746 410.617 345.746ZM17.2955 430.621C14.3954 430.621 11.7687 429.876 9.41548 428.384C7.07884 426.876 5.22277 424.664 3.8473 421.747C2.4884 418.814 1.80895 415.218 1.80895 410.959C1.80895 406.584 2.51326 402.946 3.92188 400.046C5.33049 397.129 7.20313 394.95 9.53977 393.509C11.893 392.05 14.4699 391.321 17.2706 391.321C19.4084 391.321 21.1899 391.686 22.6151 392.415C24.0568 393.127 25.2169 394.022 26.0952 395.099C26.9901 396.16 27.6695 397.204 28.1335 398.232H28.4567V379.091H39.0213V430H28.581V423.885H28.1335C27.6364 424.946 26.9321 425.998 26.0206 427.042C25.1257 428.069 23.9574 428.923 22.5156 429.602C21.0904 430.282 19.3504 430.621 17.2955 430.621ZM20.6513 422.195C22.3582 422.195 23.8 421.731 24.9766 420.803C26.1697 419.858 27.0812 418.54 27.7109 416.85C28.3572 415.16 28.6804 413.179 28.6804 410.909C28.6804 408.639 28.3655 406.667 27.7358 404.993C27.1061 403.319 26.1946 402.027 25.0014 401.115C23.8082 400.204 22.3582 399.748 20.6513 399.748C18.9112 399.748 17.4446 400.22 16.2514 401.165C15.0582 402.109 14.1551 403.419 13.5419 405.092C12.9287 406.766 12.6222 408.705 12.6222 410.909C12.6222 413.13 12.9287 415.094 13.5419 416.8C14.1716 418.491 15.0748 419.817 16.2514 420.778C17.4446 421.722 18.9112 422.195 20.6513 422.195ZM47.7278 430V391.818H58.3173V430H47.7278ZM53.0474 386.896C51.4731 386.896 50.1225 386.374 48.9956 385.33C47.8852 384.27 47.3301 383.002 47.3301 381.527C47.3301 380.069 47.8852 378.817 48.9956 377.773C50.1225 376.713 51.4731 376.183 53.0474 376.183C54.6217 376.183 55.9641 376.713 57.0744 377.773C58.2013 378.817 58.7647 380.069 58.7647 381.527C58.7647 383.002 58.2013 384.27 57.0744 385.33C55.9641 386.374 54.6217 386.896 53.0474 386.896ZM87.3327 391.818V399.773H63.7674V391.818H87.3327ZM69.1616 430V389.059C69.1616 386.291 69.7002 383.996 70.7773 382.173C71.8711 380.35 73.3626 378.983 75.2518 378.072C77.141 377.16 79.2871 376.705 81.69 376.705C83.314 376.705 84.7972 376.829 86.1396 377.077C87.4985 377.326 88.5094 377.55 89.1722 377.749L87.283 385.703C86.8687 385.571 86.355 385.446 85.7418 385.33C85.1452 385.214 84.5321 385.156 83.9023 385.156C82.3446 385.156 81.2591 385.521 80.646 386.25C80.0328 386.963 79.7262 387.965 79.7262 389.258V430H69.1616ZM109.835 430.746C105.908 430.746 102.527 429.95 99.6934 428.359C96.8761 426.752 94.7052 424.482 93.1806 421.548C91.656 418.598 90.8936 415.11 90.8936 411.083C90.8936 407.156 91.656 403.709 93.1806 400.742C94.7052 397.776 96.8513 395.464 99.6188 393.807C102.403 392.15 105.668 391.321 109.413 391.321C111.932 391.321 114.277 391.727 116.448 392.539C118.635 393.335 120.541 394.536 122.165 396.143C123.806 397.751 125.082 399.773 125.993 402.209C126.905 404.628 127.36 407.462 127.36 410.71V413.619H95.1195V407.056H117.392C117.392 405.531 117.061 404.181 116.398 403.004C115.735 401.828 114.815 400.908 113.639 400.245C112.479 399.566 111.128 399.226 109.587 399.226C107.979 399.226 106.554 399.599 105.311 400.344C104.085 401.074 103.124 402.06 102.428 403.303C101.732 404.529 101.375 405.896 101.359 407.404V413.643C101.359 415.533 101.707 417.165 102.403 418.54C103.115 419.916 104.118 420.977 105.411 421.722C106.703 422.468 108.236 422.841 110.009 422.841C111.186 422.841 112.263 422.675 113.241 422.344C114.219 422.012 115.056 421.515 115.752 420.852C116.448 420.189 116.978 419.377 117.343 418.416L127.137 419.062C126.639 421.416 125.62 423.471 124.079 425.227C122.554 426.967 120.582 428.326 118.163 429.304C115.76 430.265 112.984 430.746 109.835 430.746ZM134.271 430V391.818H144.537V398.48H144.935C145.631 396.11 146.799 394.321 148.44 393.111C150.08 391.884 151.97 391.271 154.107 391.271C154.638 391.271 155.209 391.304 155.823 391.371C156.436 391.437 156.974 391.528 157.438 391.644V401.04C156.941 400.891 156.253 400.759 155.375 400.643C154.497 400.527 153.693 400.469 152.964 400.469C151.406 400.469 150.014 400.808 148.788 401.488C147.578 402.151 146.617 403.079 145.904 404.272C145.208 405.465 144.86 406.841 144.86 408.398V430H134.271ZM178.537 430.746C174.609 430.746 171.228 429.95 168.395 428.359C165.577 426.752 163.406 424.482 161.882 421.548C160.357 418.598 159.595 415.11 159.595 411.083C159.595 407.156 160.357 403.709 161.882 400.742C163.406 397.776 165.552 395.464 168.32 393.807C171.104 392.15 174.369 391.321 178.114 391.321C180.633 391.321 182.978 391.727 185.149 392.539C187.336 393.335 189.242 394.536 190.866 396.143C192.507 397.751 193.783 399.773 194.694 402.209C195.606 404.628 196.061 407.462 196.061 410.71V413.619H163.821V407.056H186.093C186.093 405.531 185.762 404.181 185.099 403.004C184.436 401.828 183.516 400.908 182.34 400.245C181.18 399.566 179.829 399.226 178.288 399.226C176.681 399.226 175.255 399.599 174.012 400.344C172.786 401.074 171.825 402.06 171.129 403.303C170.433 404.529 170.077 405.896 170.06 407.404V413.643C170.06 415.533 170.408 417.165 171.104 418.54C171.817 419.916 172.819 420.977 174.112 421.722C175.404 422.468 176.937 422.841 178.711 422.841C179.887 422.841 180.964 422.675 181.942 422.344C182.92 422.012 183.757 421.515 184.453 420.852C185.149 420.189 185.679 419.377 186.044 418.416L195.838 419.062C195.341 421.416 194.321 423.471 192.78 425.227C191.256 426.967 189.283 428.326 186.864 429.304C184.461 430.265 181.685 430.746 178.537 430.746ZM213.561 407.926V430H202.972V391.818H213.064V398.555H213.512C214.357 396.334 215.774 394.577 217.762 393.285C219.751 391.976 222.162 391.321 224.996 391.321C227.648 391.321 229.959 391.901 231.931 393.061C233.904 394.221 235.436 395.878 236.53 398.033C237.624 400.17 238.171 402.723 238.171 405.689V430H227.581V407.578C227.598 405.241 227.001 403.419 225.792 402.109C224.582 400.784 222.916 400.121 220.795 400.121C219.37 400.121 218.11 400.427 217.017 401.04C215.94 401.654 215.094 402.549 214.481 403.725C213.885 404.885 213.578 406.286 213.561 407.926ZM266.826 391.818V399.773H243.832V391.818H266.826ZM249.052 382.67H259.642V418.267C259.642 419.245 259.791 420.007 260.089 420.554C260.388 421.084 260.802 421.457 261.332 421.673C261.879 421.888 262.509 421.996 263.221 421.996C263.719 421.996 264.216 421.954 264.713 421.871C265.21 421.772 265.591 421.697 265.856 421.648L267.522 429.528C266.992 429.693 266.246 429.884 265.285 430.099C264.323 430.331 263.155 430.472 261.78 430.522C259.228 430.621 256.99 430.282 255.068 429.503C253.162 428.724 251.679 427.514 250.618 425.874C249.558 424.233 249.036 422.161 249.052 419.659V382.67ZM290.714 430.746C286.787 430.746 283.406 429.95 280.572 428.359C277.755 426.752 275.584 424.482 274.059 421.548C272.535 418.598 271.773 415.11 271.773 411.083C271.773 407.156 272.535 403.709 274.059 400.742C275.584 397.776 277.73 395.464 280.498 393.807C283.282 392.15 286.546 391.321 290.292 391.321C292.811 391.321 295.156 391.727 297.327 392.539C299.514 393.335 301.42 394.536 303.044 396.143C304.684 397.751 305.961 399.773 306.872 402.209C307.783 404.628 308.239 407.462 308.239 410.71V413.619H275.998V407.056H298.271C298.271 405.531 297.94 404.181 297.277 403.004C296.614 401.828 295.694 400.908 294.518 400.245C293.358 399.566 292.007 399.226 290.466 399.226C288.858 399.226 287.433 399.599 286.19 400.344C284.964 401.074 284.003 402.06 283.307 403.303C282.611 404.529 282.254 405.896 282.238 407.404V413.643C282.238 415.533 282.586 417.165 283.282 418.54C283.994 419.916 284.997 420.977 286.29 421.722C287.582 422.468 289.115 422.841 290.888 422.841C292.065 422.841 293.142 422.675 294.12 422.344C295.098 422.012 295.934 421.515 296.631 420.852C297.327 420.189 297.857 419.377 298.221 418.416L308.015 419.062C307.518 421.416 306.499 423.471 304.958 425.227C303.433 426.967 301.461 428.326 299.042 429.304C296.639 430.265 293.863 430.746 290.714 430.746ZM346.918 402.706L337.224 403.303C337.058 402.474 336.702 401.728 336.155 401.065C335.608 400.386 334.887 399.847 333.992 399.45C333.114 399.035 332.061 398.828 330.835 398.828C329.194 398.828 327.811 399.176 326.684 399.872C325.557 400.552 324.993 401.463 324.993 402.607C324.993 403.518 325.358 404.289 326.087 404.918C326.816 405.548 328.068 406.054 329.841 406.435L336.751 407.827C340.463 408.589 343.231 409.815 345.054 411.506C346.877 413.196 347.788 415.417 347.788 418.168C347.788 420.67 347.051 422.866 345.576 424.755C344.117 426.644 342.112 428.119 339.56 429.18C337.025 430.224 334.1 430.746 330.785 430.746C325.731 430.746 321.704 429.693 318.704 427.589C315.721 425.468 313.973 422.584 313.459 418.938L323.875 418.391C324.19 419.933 324.952 421.109 326.162 421.921C327.372 422.717 328.921 423.114 330.81 423.114C332.666 423.114 334.158 422.758 335.285 422.045C336.428 421.316 337.008 420.38 337.025 419.237C337.008 418.275 336.602 417.488 335.807 416.875C335.011 416.245 333.785 415.765 332.128 415.433L325.515 414.116C321.787 413.37 319.011 412.077 317.188 410.238C315.382 408.398 314.479 406.054 314.479 403.203C314.479 400.75 315.141 398.638 316.467 396.864C317.809 395.091 319.69 393.724 322.11 392.763C324.546 391.802 327.396 391.321 330.661 391.321C335.483 391.321 339.278 392.34 342.046 394.379C344.83 396.417 346.454 399.193 346.918 402.706ZM23.5348 476.818V484.773H0.541193V476.818H23.5348ZM5.76136 467.67H16.3509V503.267C16.3509 504.245 16.5 505.007 16.7983 505.554C17.0966 506.084 17.5109 506.457 18.0412 506.673C18.5881 506.888 19.2178 506.996 19.9304 506.996C20.4276 506.996 20.9247 506.954 21.4219 506.871C21.919 506.772 22.3002 506.697 22.5653 506.648L24.2308 514.528C23.7005 514.693 22.9548 514.884 21.9936 515.099C21.0324 515.331 19.8641 515.472 18.4886 515.522C15.9366 515.621 13.6993 515.282 11.777 514.503C9.87121 513.724 8.38802 512.514 7.32741 510.874C6.26681 509.233 5.74479 507.161 5.76136 504.659V467.67ZM47.4233 515.746C43.4957 515.746 40.1151 514.95 37.2812 513.359C34.464 511.752 32.2931 509.482 30.7685 506.548C29.2438 503.598 28.4815 500.11 28.4815 496.083C28.4815 492.156 29.2438 488.709 30.7685 485.742C32.2931 482.776 34.4392 480.464 37.2067 478.807C39.9908 477.15 43.2554 476.321 47.0007 476.321C49.5197 476.321 51.8646 476.727 54.0355 477.539C56.223 478.335 58.1288 479.536 59.7528 481.143C61.3935 482.751 62.6695 484.773 63.581 487.209C64.4924 489.628 64.9482 492.462 64.9482 495.71V498.619H32.7074V492.056H54.9801C54.9801 490.531 54.6487 489.181 53.9858 488.004C53.3229 486.828 52.4032 485.908 51.2266 485.245C50.0665 484.566 48.7159 484.226 47.1747 484.226C45.5672 484.226 44.142 484.599 42.8991 485.344C41.6728 486.074 40.7116 487.06 40.0156 488.303C39.3196 489.529 38.9633 490.896 38.9467 492.404V498.643C38.9467 500.533 39.2947 502.165 39.9908 503.54C40.7034 504.916 41.706 505.977 42.9986 506.722C44.2912 507.468 45.8241 507.841 47.5973 507.841C48.7739 507.841 49.8511 507.675 50.8288 507.344C51.8066 507.012 52.6435 506.515 53.3395 505.852C54.0355 505.189 54.5658 504.377 54.9304 503.416L64.7244 504.062C64.2273 506.416 63.2081 508.471 61.6669 510.227C60.1423 511.967 58.1702 513.326 55.7507 514.304C53.3478 515.265 50.572 515.746 47.4233 515.746ZM71.8587 515V476.818H81.951V483.555H82.3984C83.1939 481.317 84.5197 479.553 86.3757 478.26C88.2318 476.967 90.4524 476.321 93.0376 476.321C95.656 476.321 97.8849 476.976 99.7244 478.285C101.564 479.577 102.79 481.334 103.403 483.555H103.801C104.58 481.367 105.989 479.619 108.027 478.31C110.082 476.984 112.51 476.321 115.31 476.321C118.873 476.321 121.765 477.456 123.986 479.727C126.223 481.98 127.342 485.179 127.342 489.322V515H116.777V491.41C116.777 489.289 116.214 487.698 115.087 486.637C113.96 485.576 112.551 485.046 110.861 485.046C108.938 485.046 107.439 485.659 106.362 486.886C105.284 488.095 104.746 489.695 104.746 491.683V515H94.4794V491.186C94.4794 489.313 93.9408 487.822 92.8636 486.712C91.803 485.601 90.4027 485.046 88.6626 485.046C87.486 485.046 86.4254 485.344 85.4808 485.941C84.5528 486.521 83.8153 487.341 83.2685 488.402C82.7216 489.446 82.4482 490.672 82.4482 492.081V515H71.8587ZM146.594 515.721C144.158 515.721 141.987 515.298 140.081 514.453C138.176 513.591 136.667 512.324 135.557 510.65C134.463 508.96 133.917 506.855 133.917 504.336C133.917 502.215 134.306 500.433 135.085 498.991C135.864 497.55 136.924 496.39 138.267 495.511C139.609 494.633 141.134 493.97 142.841 493.523C144.564 493.075 146.37 492.76 148.26 492.578C150.48 492.346 152.27 492.131 153.629 491.932C154.988 491.716 155.974 491.402 156.587 490.987C157.2 490.573 157.507 489.96 157.507 489.148V488.999C157.507 487.424 157.01 486.206 156.015 485.344C155.038 484.483 153.645 484.052 151.839 484.052C149.933 484.052 148.417 484.474 147.29 485.32C146.163 486.148 145.417 487.192 145.053 488.452L135.259 487.656C135.756 485.336 136.734 483.331 138.192 481.641C139.65 479.934 141.531 478.625 143.835 477.713C146.155 476.785 148.84 476.321 151.889 476.321C154.01 476.321 156.04 476.57 157.979 477.067C159.935 477.564 161.666 478.335 163.174 479.379C164.699 480.423 165.9 481.765 166.779 483.406C167.657 485.03 168.096 486.977 168.096 489.247V515H158.054V509.705H157.755C157.142 510.898 156.322 511.951 155.294 512.862C154.267 513.757 153.032 514.461 151.591 514.975C150.149 515.472 148.483 515.721 146.594 515.721ZM149.627 508.413C151.185 508.413 152.56 508.106 153.753 507.493C154.946 506.863 155.883 506.018 156.562 504.957C157.242 503.897 157.581 502.695 157.581 501.353V497.301C157.25 497.517 156.794 497.715 156.214 497.898C155.651 498.063 155.013 498.221 154.3 498.37C153.587 498.503 152.875 498.627 152.162 498.743C151.45 498.842 150.803 498.933 150.223 499.016C148.98 499.199 147.895 499.489 146.967 499.886C146.039 500.284 145.318 500.823 144.804 501.502C144.291 502.165 144.034 502.994 144.034 503.988C144.034 505.43 144.556 506.532 145.6 507.294C146.66 508.04 148.003 508.413 149.627 508.413ZM208.08 487.706L198.386 488.303C198.22 487.474 197.864 486.728 197.317 486.065C196.77 485.386 196.049 484.847 195.154 484.45C194.276 484.035 193.223 483.828 191.997 483.828C190.357 483.828 188.973 484.176 187.846 484.872C186.719 485.552 186.156 486.463 186.156 487.607C186.156 488.518 186.52 489.289 187.249 489.918C187.978 490.548 189.23 491.054 191.003 491.435L197.913 492.827C201.625 493.589 204.393 494.815 206.216 496.506C208.039 498.196 208.95 500.417 208.95 503.168C208.95 505.67 208.213 507.866 206.738 509.755C205.28 511.644 203.274 513.119 200.722 514.18C198.187 515.224 195.262 515.746 191.947 515.746C186.893 515.746 182.866 514.693 179.866 512.589C176.884 510.468 175.135 507.584 174.621 503.938L185.037 503.391C185.352 504.933 186.114 506.109 187.324 506.921C188.534 507.717 190.083 508.114 191.972 508.114C193.828 508.114 195.32 507.758 196.447 507.045C197.59 506.316 198.17 505.38 198.187 504.237C198.17 503.275 197.764 502.488 196.969 501.875C196.173 501.245 194.947 500.765 193.29 500.433L186.678 499.116C182.949 498.37 180.173 497.077 178.35 495.238C176.544 493.398 175.641 491.054 175.641 488.203C175.641 485.75 176.304 483.638 177.629 481.864C178.972 480.091 180.853 478.724 183.272 477.763C185.708 476.802 188.558 476.321 191.823 476.321C196.646 476.321 200.441 477.34 203.208 479.379C205.992 481.417 207.616 484.193 208.08 487.706ZM221.808 515.646C220.167 515.646 218.759 515.066 217.582 513.906C216.422 512.73 215.842 511.321 215.842 509.68C215.842 508.056 216.422 506.664 217.582 505.504C218.759 504.344 220.167 503.764 221.808 503.764C223.399 503.764 224.791 504.344 225.984 505.504C227.177 506.664 227.774 508.056 227.774 509.68C227.774 510.774 227.492 511.777 226.929 512.688C226.382 513.583 225.661 514.304 224.766 514.851C223.871 515.381 222.885 515.646 221.808 515.646Z" fill="#1E1E1E"/>
<path d="M587.176 232.741C586.789 233.612 587.079 241.739 587.659 250.833C588.336 259.927 589.688 273.375 590.848 280.825C591.911 288.274 593.844 299.4 595.293 305.495C596.646 311.59 599.448 322.522 601.574 329.682C603.604 336.841 607.759 348.838 610.754 356.287C613.653 363.737 619.065 375.733 622.64 382.893C626.216 390.052 631.241 399.436 633.753 403.693C636.265 407.95 641.87 416.657 646.122 423.042C650.471 429.428 657.621 439.199 662.163 444.81C666.608 450.422 674.049 459.032 678.591 463.966C683.132 468.9 692.506 478.091 699.463 484.38C706.421 490.668 717.051 499.472 723.138 504.02C729.226 508.47 738.213 514.855 742.948 518.048C747.683 521.24 756.187 526.368 761.792 529.464C767.396 532.56 776.673 537.397 782.568 540.203C788.462 542.912 800.155 547.846 808.658 550.942C817.162 554.134 828.855 558.101 834.749 559.746C840.644 561.39 851.66 564.099 859.391 565.647C867.121 567.195 878.621 569.227 884.998 570.001C891.376 570.872 903.649 571.936 912.345 572.323L928 573V421.107C906.644 419.366 895.918 417.915 890.313 416.754C884.708 415.593 874.465 412.787 867.604 410.465C860.744 408.24 850.307 403.983 844.413 400.984C838.518 398.082 829.628 392.954 824.603 389.665C819.578 386.279 812.33 381.054 808.658 378.055C804.986 374.959 797.546 367.993 792.231 362.479C786.916 356.868 779.958 348.934 776.77 344.678C773.581 340.421 768.749 333.261 766.043 328.714C763.338 324.167 758.893 315.653 756.187 309.849C753.578 304.044 749.809 294.369 747.973 288.564C746.04 282.76 743.625 273.569 742.562 268.248C741.499 262.926 740.049 252.381 739.373 244.738L738.116 231C592.298 231 587.756 231.097 587.176 232.645V232.741Z" fill="#1D1D20"/>
<path d="M1302.82 231.741C1303.21 232.612 1302.92 240.739 1302.34 249.833C1301.66 258.927 1300.31 272.375 1299.15 279.825C1298.09 287.274 1296.16 298.4 1294.71 304.495C1293.35 310.59 1290.55 321.522 1288.43 328.682C1286.4 335.841 1282.24 347.838 1279.25 355.287C1276.35 362.737 1270.94 374.733 1267.36 381.893C1263.78 389.052 1258.76 398.436 1256.25 402.693C1253.73 406.95 1248.13 415.657 1243.88 422.042C1239.53 428.428 1232.38 438.199 1227.84 443.81C1223.39 449.422 1215.95 458.032 1211.41 462.966C1206.87 467.9 1197.49 477.091 1190.54 483.38C1183.58 489.668 1172.95 498.472 1166.86 503.02C1160.77 507.47 1151.79 513.855 1147.05 517.048C1142.32 520.24 1133.81 525.368 1128.21 528.464C1122.6 531.56 1113.33 536.397 1107.43 539.203C1101.54 541.912 1089.85 546.846 1081.34 549.942C1072.84 553.134 1061.15 557.101 1055.25 558.746C1049.36 560.39 1038.34 563.099 1030.61 564.647C1022.88 566.195 1011.38 568.227 1005 569.001C998.624 569.872 986.351 570.936 977.655 571.323L962 572V420.107C983.356 418.366 994.082 416.915 999.687 415.754C1005.29 414.593 1015.53 411.787 1022.4 409.465C1029.26 407.24 1039.69 402.983 1045.59 399.984C1051.48 397.082 1060.37 391.954 1065.4 388.665C1070.42 385.279 1077.67 380.054 1081.34 377.055C1085.01 373.959 1092.45 366.993 1097.77 361.479C1103.08 355.868 1110.04 347.934 1113.23 343.678C1116.42 339.421 1121.25 332.261 1123.96 327.714C1126.66 323.167 1131.11 314.653 1133.81 308.849C1136.42 303.044 1140.19 293.369 1142.03 287.564C1143.96 281.76 1146.38 272.569 1147.44 267.248C1148.5 261.926 1149.95 251.381 1150.63 243.738L1151.88 230C1297.7 230 1302.24 230.097 1302.82 231.645V231.741Z" fill="#1D1D20"/>
<path d="M927.855 280.564C928.173 279.846 927.935 273.145 927.457 265.646C926.899 258.148 925.785 247.059 924.829 240.917C923.953 234.774 922.36 225.6 921.166 220.574C920.051 215.549 917.742 206.534 915.99 200.631C914.318 194.728 910.894 184.836 908.425 178.693C906.036 172.55 901.577 162.659 898.631 156.755C895.684 150.852 891.544 143.114 889.473 139.604C887.403 136.094 882.784 128.914 879.281 123.649C875.697 118.384 869.805 110.327 866.062 105.7C862.399 101.073 856.268 93.9734 852.525 89.9049C848.782 85.8365 841.058 78.258 835.325 73.0727C829.592 67.8874 820.832 60.628 815.816 56.8786C810.799 53.209 803.393 47.944 799.491 45.3114C795.59 42.6789 788.582 38.4509 783.964 35.8981C779.345 33.3454 771.701 29.3567 766.843 27.0433C761.986 24.8096 752.35 20.7411 745.343 18.1884C738.336 15.5558 728.7 12.2852 723.843 10.929C718.986 9.57285 709.908 7.33917 703.537 6.06281C697.167 4.78641 687.691 3.11118 682.435 2.47299C677.18 1.755 667.067 0.877502 659.9 0.558411L647 0V125.245C664.598 126.681 673.437 127.877 678.056 128.835C682.674 129.792 691.115 132.105 696.769 134.02C702.422 135.855 711.023 139.365 715.88 141.838C720.737 144.231 728.063 148.459 732.204 151.171C736.345 153.963 742.317 158.271 745.343 160.744C748.369 163.297 754.5 169.04 758.88 173.588C763.26 178.214 768.993 184.756 771.621 188.266C774.249 191.776 778.23 197.679 780.46 201.429C782.69 205.178 786.352 212.198 788.582 216.984C790.732 221.771 793.838 229.748 795.351 234.535C796.943 239.321 798.934 246.9 799.81 251.287C800.686 255.675 801.88 264.37 802.438 270.672L803.473 282C923.635 282 927.377 281.92 927.855 280.644V280.564Z" fill="#1D1D20"/>
<path d="M1242.56 1.14503C1241.85 0.826512 1235.15 1.0654 1227.65 1.54318C1220.15 2.10059 1209.06 3.21541 1202.92 4.17097C1196.77 5.0469 1187.6 6.6395 1182.57 7.83395C1177.55 8.94877 1168.53 11.258 1162.63 13.0099C1156.73 14.6821 1146.84 18.1062 1140.69 20.5747C1134.55 22.9636 1124.66 27.4229 1118.76 30.3692C1112.85 33.3155 1105.11 37.4563 1101.6 39.5267C1098.09 41.5971 1090.91 46.2156 1085.65 49.7193C1080.38 53.3027 1072.33 59.1953 1067.7 62.9379C1063.07 66.6009 1055.97 72.7324 1051.9 76.475C1047.84 80.2176 1040.26 87.9417 1035.07 93.6751C1029.89 99.4084 1022.63 108.168 1018.88 113.184C1015.21 118.201 1009.94 125.607 1007.31 129.509C1004.68 133.41 1000.45 140.418 997.898 145.036C995.345 149.655 991.357 157.299 989.043 162.157C986.81 167.014 982.741 176.65 980.188 183.657C977.556 190.664 974.285 200.3 972.929 205.157C971.573 210.014 969.339 219.092 968.063 225.463C966.786 231.833 965.111 241.309 964.473 246.565C963.755 251.82 962.878 261.933 962.558 269.1L962 282L1087.24 282C1088.68 264.402 1089.88 255.563 1090.83 250.944C1091.79 246.326 1094.11 237.885 1096.02 232.231C1097.85 226.578 1101.36 217.977 1103.84 213.12C1106.23 208.263 1110.46 200.937 1113.17 196.796C1115.96 192.655 1120.27 186.683 1122.74 183.657C1125.3 180.631 1131.04 174.5 1135.59 170.12C1140.21 165.74 1146.76 160.007 1150.27 157.379C1153.78 154.751 1159.68 150.77 1163.43 148.54C1167.18 146.31 1174.2 142.648 1178.98 140.418C1183.77 138.268 1191.75 135.162 1196.53 133.649C1201.32 132.057 1208.9 130.066 1213.29 129.19C1217.67 128.314 1226.37 127.12 1232.67 126.562L1244 125.527C1244 5.36542 1243.92 1.62281 1242.64 1.14503H1242.56Z" fill="#1D1D20"/>
<path d="M646.893 570.936C647.128 570.404 646.952 565.437 646.598 559.88C646.185 554.322 645.36 546.104 644.653 541.552C644.004 536.999 642.826 530.2 641.941 526.475C641.116 522.75 639.407 516.07 638.11 511.694C636.872 507.319 634.338 499.988 632.511 495.436C630.742 490.883 627.441 483.552 625.26 479.177C623.08 474.802 620.015 469.067 618.482 466.465C616.95 463.864 613.531 458.543 610.937 454.641C608.285 450.739 603.923 444.767 601.153 441.338C598.441 437.909 593.903 432.647 591.132 429.632C588.362 426.616 582.645 421 578.401 417.157C574.157 413.314 567.673 407.934 563.96 405.155C560.246 402.435 554.764 398.533 551.876 396.582C548.988 394.631 543.801 391.497 540.382 389.605C536.964 387.713 531.305 384.757 527.71 383.043C524.114 381.387 516.982 378.372 511.795 376.48C506.608 374.529 499.476 372.105 495.88 371.1C492.285 370.095 485.565 368.439 480.85 367.493C476.134 366.547 469.12 365.306 465.23 364.833C461.339 364.301 453.854 363.65 448.549 363.414L439 363V455.823C452.026 456.887 458.569 457.774 461.988 458.484C465.407 459.193 471.655 460.908 475.839 462.327C480.024 463.687 486.39 466.288 489.986 468.121C493.581 469.894 499.004 473.028 502.069 475.038C505.134 477.107 509.555 480.3 511.795 482.133C514.035 484.025 518.573 488.282 521.815 491.652C525.057 495.081 529.301 499.929 531.246 502.53C533.191 505.132 536.138 509.507 537.789 512.286C539.439 515.064 542.151 520.267 543.801 523.815C545.392 527.362 547.691 533.274 548.811 536.822C549.99 540.369 551.464 545.986 552.112 549.238C552.76 552.489 553.645 558.934 554.057 563.605L554.823 572C643.769 572 646.539 571.941 646.893 570.995V570.936Z" fill="#1D1D20"/>
<path d="M342.145 280.564C341.827 279.846 342.065 273.145 342.543 265.646C343.101 258.148 344.215 247.059 345.171 240.917C346.047 234.774 347.64 225.6 348.834 220.574C349.949 215.549 352.258 206.534 354.01 200.631C355.682 194.728 359.106 184.836 361.575 178.693C363.964 172.55 368.423 162.659 371.369 156.755C374.316 150.852 378.456 143.114 380.527 139.604C382.597 136.094 387.216 128.914 390.719 123.649C394.303 118.384 400.195 110.327 403.938 105.7C407.601 101.073 413.732 93.9734 417.475 89.9049C421.218 85.8365 428.942 78.258 434.675 73.0727C440.408 67.8874 449.168 60.628 454.184 56.8786C459.201 53.209 466.607 47.944 470.509 45.3114C474.41 42.6789 481.418 38.4509 486.036 35.8982C490.655 33.3454 498.299 29.3567 503.157 27.0433C508.014 24.8096 517.65 20.7411 524.657 18.1884C531.664 15.5559 541.3 12.2851 546.157 10.929C551.014 9.57284 560.092 7.33918 566.463 6.0628C572.833 4.78642 582.309 3.11117 587.565 2.47298C592.82 1.75502 602.933 0.877511 610.1 0.558416L623 -9.26852e-06V125.245C605.402 126.681 596.563 127.877 591.944 128.835C587.326 129.792 578.885 132.105 573.231 134.02C567.578 135.855 558.977 139.365 554.12 141.838C549.263 144.231 541.937 148.459 537.796 151.171C533.655 153.963 527.683 158.271 524.657 160.744C521.631 163.297 515.5 169.04 511.12 173.588C506.74 178.214 501.007 184.756 498.379 188.266C495.751 191.776 491.77 197.679 489.54 201.429C487.31 205.178 483.648 212.198 481.418 216.984C479.268 221.771 476.162 229.748 474.649 234.535C473.057 239.321 471.066 246.9 470.19 251.287C469.314 255.675 468.12 264.37 467.562 270.672L466.527 282C346.365 282 342.623 281.92 342.145 280.644V280.564Z" fill="#1D1D20"/>
</svg>

