<!-- <svg width="1301" height="573" viewBox="0 0 1301 573" fill="none" xmlns="http://www.w3.org/2000/svg">
<path d="M18.3395 255.241V220.042H27.2386V255.241H18.3395ZM5.18963 242.091V233.192H40.3885V242.091H5.18963ZM81.0748 258.621C78.1747 258.621 75.548 257.876 73.1948 256.384C70.8581 254.876 69.0021 252.664 67.6266 249.747C66.2677 246.814 65.5882 243.218 65.5882 238.959C65.5882 234.584 66.2926 230.946 67.7012 228.046C69.1098 225.129 70.9824 222.95 73.3191 221.509C75.6723 220.05 78.2492 219.321 81.0499 219.321C83.1877 219.321 84.9692 219.686 86.3944 220.415C87.8361 221.127 88.9962 222.022 89.8745 223.099C90.7694 224.16 91.4488 225.204 91.9128 226.232H92.236V207.091H102.801V258H92.3603V251.885H91.9128C91.4157 252.946 90.7114 253.998 89.7999 255.042C88.905 256.069 87.7367 256.923 86.2949 257.602C84.8697 258.282 83.1297 258.621 81.0748 258.621ZM84.4306 250.195C86.1375 250.195 87.5792 249.731 88.7559 248.803C89.949 247.858 90.8605 246.54 91.4902 244.85C92.1365 243.16 92.4597 241.179 92.4597 238.909C92.4597 236.639 92.1448 234.667 91.5151 232.993C90.8854 231.319 89.9739 230.027 88.7807 229.115C87.5875 228.204 86.1375 227.748 84.4306 227.748C82.6905 227.748 81.2239 228.22 80.0307 229.165C78.8375 230.109 77.9344 231.419 77.3212 233.092C76.708 234.766 76.4015 236.705 76.4015 238.909C76.4015 241.13 76.708 243.094 77.3212 244.8C77.9509 246.491 78.8541 247.817 80.0307 248.778C81.2239 249.722 82.6905 250.195 84.4306 250.195ZM128.908 258.746C124.98 258.746 121.599 257.95 118.766 256.359C115.948 254.752 113.777 252.482 112.253 249.548C110.728 246.598 109.966 243.11 109.966 239.083C109.966 235.156 110.728 231.709 112.253 228.742C113.777 225.776 115.924 223.464 118.691 221.807C121.475 220.15 124.74 219.321 128.485 219.321C131.004 219.321 133.349 219.727 135.52 220.539C137.707 221.335 139.613 222.536 141.237 224.143C142.878 225.751 144.154 227.773 145.065 230.209C145.977 232.628 146.433 235.462 146.433 238.71V241.619H114.192V235.056H136.464C136.464 233.531 136.133 232.181 135.47 231.004C134.807 229.828 133.888 228.908 132.711 228.245C131.551 227.566 130.2 227.226 128.659 227.226C127.052 227.226 125.626 227.599 124.384 228.344C123.157 229.074 122.196 230.06 121.5 231.303C120.804 232.529 120.448 233.896 120.431 235.404V241.643C120.431 243.533 120.779 245.165 121.475 246.54C122.188 247.916 123.19 248.977 124.483 249.722C125.776 250.468 127.308 250.841 129.082 250.841C130.258 250.841 131.335 250.675 132.313 250.344C133.291 250.012 134.128 249.515 134.824 248.852C135.52 248.189 136.05 247.377 136.415 246.416L146.209 247.062C145.712 249.416 144.692 251.471 143.151 253.227C141.627 254.967 139.655 256.326 137.235 257.304C134.832 258.265 132.056 258.746 128.908 258.746ZM191.593 207.091V258H180.83V217.308H180.531L168.873 224.616V215.07L181.476 207.091H191.593ZM202.922 249.051V240.575L224.176 207.091H231.484V218.824H227.159L213.76 240.028V240.425H243.963V249.051H202.922ZM227.358 258V246.466L227.556 242.712V207.091H237.649V258H227.358ZM28.4567 357.318V336.885H28.1335C27.6364 337.946 26.9321 338.998 26.0206 340.042C25.1257 341.069 23.9574 341.923 22.5156 342.602C21.0904 343.282 19.3504 343.621 17.2955 343.621C14.3954 343.621 11.7687 342.876 9.41548 341.384C7.07884 339.876 5.22277 337.664 3.8473 334.747C2.4884 331.814 1.80895 328.218 1.80895 323.959C1.80895 319.584 2.51326 315.946 3.92188 313.046C5.33049 310.129 7.20313 307.95 9.53977 306.509C11.893 305.05 14.4699 304.321 17.2706 304.321C19.4084 304.321 21.1899 304.686 22.6151 305.415C24.0568 306.127 25.2169 307.022 26.0952 308.099C26.9901 309.16 27.6695 310.204 28.1335 311.232H28.581V304.818H39.0213V357.318H28.4567ZM20.6513 335.195C22.3582 335.195 23.8 334.731 24.9766 333.803C26.1697 332.858 27.0812 331.54 27.7109 329.85C28.3572 328.16 28.6804 326.179 28.6804 323.909C28.6804 321.639 28.3655 319.667 27.7358 317.993C27.1061 316.319 26.1946 315.027 25.0014 314.115C23.8082 313.204 22.3582 312.748 20.6513 312.748C18.9112 312.748 17.4446 313.22 16.2514 314.165C15.0582 315.109 14.1551 316.419 13.5419 318.092C12.9287 319.766 12.6222 321.705 12.6222 323.909C12.6222 326.13 12.9287 328.094 13.5419 329.8C14.1716 331.491 15.0748 332.817 16.2514 333.778C17.4446 334.722 18.9112 335.195 20.6513 335.195ZM72.0078 326.743V304.818H82.5973V343H72.4304V336.065H72.0327C71.1709 338.302 69.7375 340.1 67.7322 341.459C65.7436 342.818 63.3158 343.497 60.4489 343.497C57.8968 343.497 55.6513 342.917 53.7124 341.757C51.7734 340.597 50.2571 338.948 49.1634 336.81C48.0862 334.673 47.5393 332.112 47.5227 329.129V304.818H58.1122V327.24C58.1288 329.494 58.7337 331.275 59.9268 332.585C61.12 333.894 62.7192 334.548 64.7244 334.548C66.0005 334.548 67.1937 334.258 68.304 333.678C69.4143 333.082 70.3092 332.203 70.9886 331.043C71.6847 329.883 72.0244 328.45 72.0078 326.743ZM91.0676 343V304.818H101.657V343H91.0676ZM96.3873 299.896C94.8129 299.896 93.4623 299.374 92.3354 298.33C91.2251 297.27 90.6699 296.002 90.6699 294.527C90.6699 293.069 91.2251 291.817 92.3354 290.773C93.4623 289.713 94.8129 289.183 96.3873 289.183C97.9616 289.183 99.3039 289.713 100.414 290.773C101.541 291.817 102.105 293.069 102.105 294.527C102.105 296.002 101.541 297.27 100.414 298.33C99.3039 299.374 97.9616 299.896 96.3873 299.896ZM109.941 343V336.686L128.634 313.543V313.27H110.587V304.818H141.386V311.704L123.837 334.275V334.548H142.033V343H109.941ZM149.931 343V336.686L168.624 313.543V313.27H150.578V304.818H181.377V311.704L163.827 334.275V334.548H182.023V343H149.931ZM206.427 343.746C202.5 343.746 199.119 342.95 196.285 341.359C193.468 339.752 191.297 337.482 189.772 334.548C188.248 331.598 187.485 328.11 187.485 324.083C187.485 320.156 188.248 316.709 189.772 313.742C191.297 310.776 193.443 308.464 196.211 306.807C198.995 305.15 202.259 304.321 206.005 304.321C208.524 304.321 210.868 304.727 213.039 305.539C215.227 306.335 217.133 307.536 218.757 309.143C220.397 310.751 221.673 312.773 222.585 315.209C223.496 317.628 223.952 320.462 223.952 323.71V326.619H191.711V320.056H213.984C213.984 318.531 213.653 317.181 212.99 316.004C212.327 314.828 211.407 313.908 210.23 313.245C209.07 312.566 207.72 312.226 206.179 312.226C204.571 312.226 203.146 312.599 201.903 313.344C200.677 314.074 199.716 315.06 199.02 316.303C198.324 317.529 197.967 318.896 197.951 320.404V326.643C197.951 328.533 198.299 330.165 198.995 331.54C199.707 332.916 200.71 333.977 202.002 334.722C203.295 335.468 204.828 335.841 206.601 335.841C207.778 335.841 208.855 335.675 209.833 335.344C210.81 335.012 211.647 334.515 212.343 333.852C213.039 333.189 213.57 332.377 213.934 331.416L223.728 332.062C223.231 334.416 222.212 336.471 220.671 338.227C219.146 339.967 217.174 341.326 214.755 342.304C212.352 343.265 209.576 343.746 206.427 343.746ZM262.631 315.706L252.936 316.303C252.771 315.474 252.414 314.728 251.868 314.065C251.321 313.386 250.6 312.847 249.705 312.45C248.827 312.035 247.774 311.828 246.548 311.828C244.907 311.828 243.524 312.176 242.397 312.872C241.27 313.552 240.706 314.463 240.706 315.607C240.706 316.518 241.071 317.289 241.8 317.918C242.529 318.548 243.78 319.054 245.554 319.435L252.464 320.827C256.176 321.589 258.944 322.815 260.767 324.506C262.59 326.196 263.501 328.417 263.501 331.168C263.501 333.67 262.764 335.866 261.289 337.755C259.83 339.644 257.825 341.119 255.273 342.18C252.738 343.224 249.813 343.746 246.498 343.746C241.444 343.746 237.417 342.693 234.417 340.589C231.434 338.468 229.686 335.584 229.172 331.938L239.588 331.391C239.903 332.933 240.665 334.109 241.875 334.921C243.084 335.717 244.634 336.114 246.523 336.114C248.379 336.114 249.871 335.758 250.998 335.045C252.141 334.316 252.721 333.38 252.738 332.237C252.721 331.275 252.315 330.488 251.52 329.875C250.724 329.245 249.498 328.765 247.841 328.433L241.228 327.116C237.5 326.37 234.724 325.077 232.901 323.238C231.095 321.398 230.191 319.054 230.191 316.203C230.191 313.75 230.854 311.638 232.18 309.864C233.522 308.091 235.403 306.724 237.823 305.763C240.259 304.802 243.109 304.321 246.374 304.321C251.196 304.321 254.991 305.34 257.759 307.379C260.543 309.417 262.167 312.193 262.631 315.706ZM300.44 343.621C297.54 343.621 294.913 342.876 292.56 341.384C290.223 339.876 288.367 337.664 286.992 334.747C285.633 331.814 284.953 328.218 284.953 323.959C284.953 319.584 285.658 315.946 287.066 313.046C288.475 310.129 290.348 307.95 292.684 306.509C295.038 305.05 297.614 304.321 300.415 304.321C302.553 304.321 304.334 304.686 305.76 305.415C307.201 306.127 308.361 307.022 309.24 308.099C310.135 309.16 310.814 310.204 311.278 311.232H311.601V292.091H322.166V343H311.725V336.885H311.278C310.781 337.946 310.077 338.998 309.165 340.042C308.27 341.069 307.102 341.923 305.66 342.602C304.235 343.282 302.495 343.621 300.44 343.621ZM303.796 335.195C305.503 335.195 306.944 334.731 308.121 333.803C309.314 332.858 310.226 331.54 310.855 329.85C311.502 328.16 311.825 326.179 311.825 323.909C311.825 321.639 311.51 319.667 310.88 317.993C310.251 316.319 309.339 315.027 308.146 314.115C306.953 313.204 305.503 312.748 303.796 312.748C302.056 312.748 300.589 313.22 299.396 314.165C298.203 315.109 297.3 316.419 296.686 318.092C296.073 319.766 295.767 321.705 295.767 323.909C295.767 326.13 296.073 328.094 296.686 329.8C297.316 331.491 298.219 332.817 299.396 333.778C300.589 334.722 302.056 335.195 303.796 335.195ZM348.273 343.746C344.345 343.746 340.965 342.95 338.131 341.359C335.314 339.752 333.143 337.482 331.618 334.548C330.093 331.598 329.331 328.11 329.331 324.083C329.331 320.156 330.093 316.709 331.618 313.742C333.143 310.776 335.289 308.464 338.056 306.807C340.84 305.15 344.105 304.321 347.85 304.321C350.369 304.321 352.714 304.727 354.885 305.539C357.073 306.335 358.978 307.536 360.602 309.143C362.243 310.751 363.519 312.773 364.431 315.209C365.342 317.628 365.798 320.462 365.798 323.71V326.619H333.557V320.056H355.83C355.83 318.531 355.498 317.181 354.835 316.004C354.173 314.828 353.253 313.908 352.076 313.245C350.916 312.566 349.566 312.226 348.024 312.226C346.417 312.226 344.992 312.599 343.749 313.344C342.522 314.074 341.561 315.06 340.865 316.303C340.169 317.529 339.813 318.896 339.796 320.404V326.643C339.796 328.533 340.144 330.165 340.84 331.54C341.553 332.916 342.556 333.977 343.848 334.722C345.141 335.468 346.674 335.841 348.447 335.841C349.624 335.841 350.701 335.675 351.678 335.344C352.656 335.012 353.493 334.515 354.189 333.852C354.885 333.189 355.415 332.377 355.78 331.416L365.574 332.062C365.077 334.416 364.058 336.471 362.517 338.227C360.992 339.967 359.02 341.326 356.6 342.304C354.197 343.265 351.422 343.746 348.273 343.746ZM17.2955 428.621C14.3954 428.621 11.7687 427.876 9.41548 426.384C7.07884 424.876 5.22277 422.664 3.8473 419.747C2.4884 416.814 1.80895 413.218 1.80895 408.959C1.80895 404.584 2.51326 400.946 3.92188 398.046C5.33049 395.129 7.20313 392.95 9.53977 391.509C11.893 390.05 14.4699 389.321 17.2706 389.321C19.4084 389.321 21.1899 389.686 22.6151 390.415C24.0568 391.127 25.2169 392.022 26.0952 393.099C26.9901 394.16 27.6695 395.204 28.1335 396.232H28.4567V377.091H39.0213V428H28.581V421.885H28.1335C27.6364 422.946 26.9321 423.998 26.0206 425.042C25.1257 426.069 23.9574 426.923 22.5156 427.602C21.0904 428.282 19.3504 428.621 17.2955 428.621ZM20.6513 420.195C22.3582 420.195 23.8 419.731 24.9766 418.803C26.1697 417.858 27.0812 416.54 27.7109 414.85C28.3572 413.16 28.6804 411.179 28.6804 408.909C28.6804 406.639 28.3655 404.667 27.7358 402.993C27.1061 401.319 26.1946 400.027 25.0014 399.115C23.8082 398.204 22.3582 397.748 20.6513 397.748C18.9112 397.748 17.4446 398.22 16.2514 399.165C15.0582 400.109 14.1551 401.419 13.5419 403.092C12.9287 404.766 12.6222 406.705 12.6222 408.909C12.6222 411.13 12.9287 413.094 13.5419 414.8C14.1716 416.491 15.0748 417.817 16.2514 418.778C17.4446 419.722 18.9112 420.195 20.6513 420.195ZM47.7278 428V389.818H58.3173V428H47.7278ZM53.0474 384.896C51.4731 384.896 50.1225 384.374 48.9956 383.33C47.8852 382.27 47.3301 381.002 47.3301 379.527C47.3301 378.069 47.8852 376.817 48.9956 375.773C50.1225 374.713 51.4731 374.183 53.0474 374.183C54.6217 374.183 55.9641 374.713 57.0744 375.773C58.2013 376.817 58.7647 378.069 58.7647 379.527C58.7647 381.002 58.2013 382.27 57.0744 383.33C55.9641 384.374 54.6217 384.896 53.0474 384.896ZM87.3327 389.818V397.773H63.7674V389.818H87.3327ZM69.1616 428V387.059C69.1616 384.291 69.7002 381.996 70.7773 380.173C71.8711 378.35 73.3626 376.983 75.2518 376.072C77.141 375.16 79.2871 374.705 81.69 374.705C83.314 374.705 84.7972 374.829 86.1396 375.077C87.4985 375.326 88.5094 375.55 89.1722 375.749L87.283 383.703C86.8687 383.571 86.355 383.446 85.7418 383.33C85.1452 383.214 84.5321 383.156 83.9023 383.156C82.3446 383.156 81.2591 383.521 80.646 384.25C80.0328 384.963 79.7262 385.965 79.7262 387.258V428H69.1616ZM109.835 428.746C105.908 428.746 102.527 427.95 99.6934 426.359C96.8761 424.752 94.7052 422.482 93.1806 419.548C91.656 416.598 90.8936 413.11 90.8936 409.083C90.8936 405.156 91.656 401.709 93.1806 398.742C94.7052 395.776 96.8513 393.464 99.6188 391.807C102.403 390.15 105.668 389.321 109.413 389.321C111.932 389.321 114.277 389.727 116.448 390.539C118.635 391.335 120.541 392.536 122.165 394.143C123.806 395.751 125.082 397.773 125.993 400.209C126.905 402.628 127.36 405.462 127.36 408.71V411.619H95.1195V405.056H117.392C117.392 403.531 117.061 402.181 116.398 401.004C115.735 399.828 114.815 398.908 113.639 398.245C112.479 397.566 111.128 397.226 109.587 397.226C107.979 397.226 106.554 397.599 105.311 398.344C104.085 399.074 103.124 400.06 102.428 401.303C101.732 402.529 101.375 403.896 101.359 405.404V411.643C101.359 413.533 101.707 415.165 102.403 416.54C103.115 417.916 104.118 418.977 105.411 419.722C106.703 420.468 108.236 420.841 110.009 420.841C111.186 420.841 112.263 420.675 113.241 420.344C114.219 420.012 115.056 419.515 115.752 418.852C116.448 418.189 116.978 417.377 117.343 416.416L127.137 417.062C126.639 419.416 125.62 421.471 124.079 423.227C122.554 424.967 120.582 426.326 118.163 427.304C115.76 428.265 112.984 428.746 109.835 428.746ZM134.271 428V389.818H144.537V396.48H144.935C145.631 394.11 146.799 392.321 148.44 391.111C150.08 389.884 151.97 389.271 154.107 389.271C154.638 389.271 155.209 389.304 155.823 389.371C156.436 389.437 156.974 389.528 157.438 389.644V399.04C156.941 398.891 156.253 398.759 155.375 398.643C154.497 398.527 153.693 398.469 152.964 398.469C151.406 398.469 150.014 398.808 148.788 399.488C147.578 400.151 146.617 401.079 145.904 402.272C145.208 403.465 144.86 404.841 144.86 406.398V428H134.271ZM178.537 428.746C174.609 428.746 171.228 427.95 168.395 426.359C165.577 424.752 163.406 422.482 161.882 419.548C160.357 416.598 159.595 413.11 159.595 409.083C159.595 405.156 160.357 401.709 161.882 398.742C163.406 395.776 165.552 393.464 168.32 391.807C171.104 390.15 174.369 389.321 178.114 389.321C180.633 389.321 182.978 389.727 185.149 390.539C187.336 391.335 189.242 392.536 190.866 394.143C192.507 395.751 193.783 397.773 194.694 400.209C195.606 402.628 196.061 405.462 196.061 408.71V411.619H163.821V405.056H186.093C186.093 403.531 185.762 402.181 185.099 401.004C184.436 399.828 183.516 398.908 182.34 398.245C181.18 397.566 179.829 397.226 178.288 397.226C176.681 397.226 175.255 397.599 174.012 398.344C172.786 399.074 171.825 400.06 171.129 401.303C170.433 402.529 170.077 403.896 170.06 405.404V411.643C170.06 413.533 170.408 415.165 171.104 416.54C171.817 417.916 172.819 418.977 174.112 419.722C175.404 420.468 176.937 420.841 178.711 420.841C179.887 420.841 180.964 420.675 181.942 420.344C182.92 420.012 183.757 419.515 184.453 418.852C185.149 418.189 185.679 417.377 186.044 416.416L195.838 417.062C195.341 419.416 194.321 421.471 192.78 423.227C191.256 424.967 189.283 426.326 186.864 427.304C184.461 428.265 181.685 428.746 178.537 428.746ZM213.561 405.926V428H202.972V389.818H213.064V396.555H213.512C214.357 394.334 215.774 392.577 217.762 391.285C219.751 389.976 222.162 389.321 224.996 389.321C227.648 389.321 229.959 389.901 231.931 391.061C233.904 392.221 235.436 393.878 236.53 396.033C237.624 398.17 238.171 400.723 238.171 403.689V428H227.581V405.578C227.598 403.241 227.001 401.419 225.792 400.109C224.582 398.784 222.916 398.121 220.795 398.121C219.37 398.121 218.11 398.427 217.017 399.04C215.94 399.654 215.094 400.549 214.481 401.725C213.885 402.885 213.578 404.286 213.561 405.926ZM266.826 389.818V397.773H243.832V389.818H266.826ZM249.052 380.67H259.642V416.267C259.642 417.245 259.791 418.007 260.089 418.554C260.388 419.084 260.802 419.457 261.332 419.673C261.879 419.888 262.509 419.996 263.221 419.996C263.719 419.996 264.216 419.954 264.713 419.871C265.21 419.772 265.591 419.697 265.856 419.648L267.522 427.528C266.992 427.693 266.246 427.884 265.285 428.099C264.323 428.331 263.155 428.472 261.78 428.522C259.228 428.621 256.99 428.282 255.068 427.503C253.162 426.724 251.679 425.514 250.618 423.874C249.558 422.233 249.036 420.161 249.052 417.659V380.67ZM290.714 428.746C286.787 428.746 283.406 427.95 280.572 426.359C277.755 424.752 275.584 422.482 274.059 419.548C272.535 416.598 271.773 413.11 271.773 409.083C271.773 405.156 272.535 401.709 274.059 398.742C275.584 395.776 277.73 393.464 280.498 391.807C283.282 390.15 286.546 389.321 290.292 389.321C292.811 389.321 295.156 389.727 297.327 390.539C299.514 391.335 301.42 392.536 303.044 394.143C304.684 395.751 305.961 397.773 306.872 400.209C307.783 402.628 308.239 405.462 308.239 408.71V411.619H275.998V405.056H298.271C298.271 403.531 297.94 402.181 297.277 401.004C296.614 399.828 295.694 398.908 294.518 398.245C293.358 397.566 292.007 397.226 290.466 397.226C288.858 397.226 287.433 397.599 286.19 398.344C284.964 399.074 284.003 400.06 283.307 401.303C282.611 402.529 282.254 403.896 282.238 405.404V411.643C282.238 413.533 282.586 415.165 283.282 416.54C283.994 417.916 284.997 418.977 286.29 419.722C287.582 420.468 289.115 420.841 290.888 420.841C292.065 420.841 293.142 420.675 294.12 420.344C295.098 420.012 295.934 419.515 296.631 418.852C297.327 418.189 297.857 417.377 298.221 416.416L308.015 417.062C307.518 419.416 306.499 421.471 304.958 423.227C303.433 424.967 301.461 426.326 299.042 427.304C296.639 428.265 293.863 428.746 290.714 428.746ZM346.918 400.706L337.224 401.303C337.058 400.474 336.702 399.728 336.155 399.065C335.608 398.386 334.887 397.847 333.992 397.45C333.114 397.035 332.061 396.828 330.835 396.828C329.194 396.828 327.811 397.176 326.684 397.872C325.557 398.552 324.993 399.463 324.993 400.607C324.993 401.518 325.358 402.289 326.087 402.918C326.816 403.548 328.068 404.054 329.841 404.435L336.751 405.827C340.463 406.589 343.231 407.815 345.054 409.506C346.877 411.196 347.788 413.417 347.788 416.168C347.788 418.67 347.051 420.866 345.576 422.755C344.117 424.644 342.112 426.119 339.56 427.18C337.025 428.224 334.1 428.746 330.785 428.746C325.731 428.746 321.704 427.693 318.704 425.589C315.721 423.468 313.973 420.584 313.459 416.938L323.875 416.391C324.19 417.933 324.952 419.109 326.162 419.921C327.372 420.717 328.921 421.114 330.81 421.114C332.666 421.114 334.158 420.758 335.285 420.045C336.428 419.316 337.008 418.38 337.025 417.237C337.008 416.275 336.602 415.488 335.807 414.875C335.011 414.245 333.785 413.765 332.128 413.433L325.515 412.116C321.787 411.37 319.011 410.077 317.188 408.238C315.382 406.398 314.479 404.054 314.479 401.203C314.479 398.75 315.141 396.638 316.467 394.864C317.809 393.091 319.69 391.724 322.11 390.763C324.546 389.802 327.396 389.321 330.661 389.321C335.483 389.321 339.278 390.34 342.046 392.379C344.83 394.417 346.454 397.193 346.918 400.706ZM23.5348 474.818V482.773H0.541193V474.818H23.5348ZM5.76136 465.67H16.3509V501.267C16.3509 502.245 16.5 503.007 16.7983 503.554C17.0966 504.084 17.5109 504.457 18.0412 504.673C18.5881 504.888 19.2178 504.996 19.9304 504.996C20.4276 504.996 20.9247 504.954 21.4219 504.871C21.919 504.772 22.3002 504.697 22.5653 504.648L24.2308 512.528C23.7005 512.693 22.9548 512.884 21.9936 513.099C21.0324 513.331 19.8641 513.472 18.4886 513.522C15.9366 513.621 13.6993 513.282 11.777 512.503C9.87121 511.724 8.38802 510.514 7.32741 508.874C6.26681 507.233 5.74479 505.161 5.76136 502.659V465.67ZM47.4233 513.746C43.4957 513.746 40.1151 512.95 37.2812 511.359C34.464 509.752 32.2931 507.482 30.7685 504.548C29.2438 501.598 28.4815 498.11 28.4815 494.083C28.4815 490.156 29.2438 486.709 30.7685 483.742C32.2931 480.776 34.4392 478.464 37.2067 476.807C39.9908 475.15 43.2554 474.321 47.0007 474.321C49.5197 474.321 51.8646 474.727 54.0355 475.539C56.223 476.335 58.1288 477.536 59.7528 479.143C61.3935 480.751 62.6695 482.773 63.581 485.209C64.4924 487.628 64.9482 490.462 64.9482 493.71V496.619H32.7074V490.056H54.9801C54.9801 488.531 54.6487 487.181 53.9858 486.004C53.3229 484.828 52.4032 483.908 51.2266 483.245C50.0665 482.566 48.7159 482.226 47.1747 482.226C45.5672 482.226 44.142 482.599 42.8991 483.344C41.6728 484.074 40.7116 485.06 40.0156 486.303C39.3196 487.529 38.9633 488.896 38.9467 490.404V496.643C38.9467 498.533 39.2947 500.165 39.9908 501.54C40.7034 502.916 41.706 503.977 42.9986 504.722C44.2912 505.468 45.8241 505.841 47.5973 505.841C48.7739 505.841 49.8511 505.675 50.8288 505.344C51.8066 505.012 52.6435 504.515 53.3395 503.852C54.0355 503.189 54.5658 502.377 54.9304 501.416L64.7244 502.062C64.2273 504.416 63.2081 506.471 61.6669 508.227C60.1423 509.967 58.1702 511.326 55.7507 512.304C53.3478 513.265 50.572 513.746 47.4233 513.746ZM71.8587 513V474.818H81.951V481.555H82.3984C83.1939 479.317 84.5197 477.553 86.3757 476.26C88.2318 474.967 90.4524 474.321 93.0376 474.321C95.656 474.321 97.8849 474.976 99.7244 476.285C101.564 477.577 102.79 479.334 103.403 481.555H103.801C104.58 479.367 105.989 477.619 108.027 476.31C110.082 474.984 112.51 474.321 115.31 474.321C118.873 474.321 121.765 475.456 123.986 477.727C126.223 479.98 127.342 483.179 127.342 487.322V513H116.777V489.41C116.777 487.289 116.214 485.698 115.087 484.637C113.96 483.576 112.551 483.046 110.861 483.046C108.938 483.046 107.439 483.659 106.362 484.886C105.284 486.095 104.746 487.695 104.746 489.683V513H94.4794V489.186C94.4794 487.313 93.9408 485.822 92.8636 484.712C91.803 483.601 90.4027 483.046 88.6626 483.046C87.486 483.046 86.4254 483.344 85.4808 483.941C84.5528 484.521 83.8153 485.341 83.2685 486.402C82.7216 487.446 82.4482 488.672 82.4482 490.081V513H71.8587ZM146.594 513.721C144.158 513.721 141.987 513.298 140.081 512.453C138.176 511.591 136.667 510.324 135.557 508.65C134.463 506.96 133.917 504.855 133.917 502.336C133.917 500.215 134.306 498.433 135.085 496.991C135.864 495.55 136.924 494.39 138.267 493.511C139.609 492.633 141.134 491.97 142.841 491.523C144.564 491.075 146.37 490.76 148.26 490.578C150.48 490.346 152.27 490.131 153.629 489.932C154.988 489.716 155.974 489.402 156.587 488.987C157.2 488.573 157.507 487.96 157.507 487.148V486.999C157.507 485.424 157.01 484.206 156.015 483.344C155.038 482.483 153.645 482.052 151.839 482.052C149.933 482.052 148.417 482.474 147.29 483.32C146.163 484.148 145.417 485.192 145.053 486.452L135.259 485.656C135.756 483.336 136.734 481.331 138.192 479.641C139.65 477.934 141.531 476.625 143.835 475.713C146.155 474.785 148.84 474.321 151.889 474.321C154.01 474.321 156.04 474.57 157.979 475.067C159.935 475.564 161.666 476.335 163.174 477.379C164.699 478.423 165.9 479.765 166.779 481.406C167.657 483.03 168.096 484.977 168.096 487.247V513H158.054V507.705H157.755C157.142 508.898 156.322 509.951 155.294 510.862C154.267 511.757 153.032 512.461 151.591 512.975C150.149 513.472 148.483 513.721 146.594 513.721ZM149.627 506.413C151.185 506.413 152.56 506.106 153.753 505.493C154.946 504.863 155.883 504.018 156.562 502.957C157.242 501.897 157.581 500.695 157.581 499.353V495.301C157.25 495.517 156.794 495.715 156.214 495.898C155.651 496.063 155.013 496.221 154.3 496.37C153.587 496.503 152.875 496.627 152.162 496.743C151.45 496.842 150.803 496.933 150.223 497.016C148.98 497.199 147.895 497.489 146.967 497.886C146.039 498.284 145.318 498.823 144.804 499.502C144.291 500.165 144.034 500.994 144.034 501.988C144.034 503.43 144.556 504.532 145.6 505.294C146.66 506.04 148.003 506.413 149.627 506.413ZM208.08 485.706L198.386 486.303C198.22 485.474 197.864 484.728 197.317 484.065C196.77 483.386 196.049 482.847 195.154 482.45C194.276 482.035 193.223 481.828 191.997 481.828C190.357 481.828 188.973 482.176 187.846 482.872C186.719 483.552 186.156 484.463 186.156 485.607C186.156 486.518 186.52 487.289 187.249 487.918C187.978 488.548 189.23 489.054 191.003 489.435L197.913 490.827C201.625 491.589 204.393 492.815 206.216 494.506C208.039 496.196 208.95 498.417 208.95 501.168C208.95 503.67 208.213 505.866 206.738 507.755C205.28 509.644 203.274 511.119 200.722 512.18C198.187 513.224 195.262 513.746 191.947 513.746C186.893 513.746 182.866 512.693 179.866 510.589C176.884 508.468 175.135 505.584 174.621 501.938L185.037 501.391C185.352 502.933 186.114 504.109 187.324 504.921C188.534 505.717 190.083 506.114 191.972 506.114C193.828 506.114 195.32 505.758 196.447 505.045C197.59 504.316 198.17 503.38 198.187 502.237C198.17 501.275 197.764 500.488 196.969 499.875C196.173 499.245 194.947 498.765 193.29 498.433L186.678 497.116C182.949 496.37 180.173 495.077 178.35 493.238C176.544 491.398 175.641 489.054 175.641 486.203C175.641 483.75 176.304 481.638 177.629 479.864C178.972 478.091 180.853 476.724 183.272 475.763C185.708 474.802 188.558 474.321 191.823 474.321C196.646 474.321 200.441 475.34 203.208 477.379C205.992 479.417 207.616 482.193 208.08 485.706Z" fill="#2A292E"/>
<path d="M585.176 232.741C584.789 233.612 585.079 241.739 585.659 250.833C586.336 259.927 587.688 273.375 588.848 280.825C589.911 288.274 591.844 299.4 593.293 305.495C594.646 311.59 597.448 322.522 599.574 329.682C601.604 336.841 605.759 348.838 608.754 356.287C611.653 363.737 617.065 375.733 620.64 382.893C624.216 390.052 629.241 399.436 631.753 403.693C634.265 407.95 639.87 416.657 644.122 423.042C648.471 429.428 655.621 439.199 660.163 444.81C664.608 450.422 672.049 459.032 676.591 463.966C681.132 468.9 690.506 478.091 697.463 484.38C704.421 490.668 715.051 499.472 721.138 504.02C727.226 508.47 736.213 514.855 740.948 518.048C745.683 521.24 754.187 526.368 759.792 529.464C765.396 532.56 774.673 537.397 780.568 540.203C786.462 542.912 798.155 547.846 806.658 550.942C815.162 554.134 826.855 558.101 832.749 559.746C838.644 561.39 849.66 564.099 857.391 565.647C865.121 567.195 876.621 569.227 882.998 570.001C889.376 570.872 901.649 571.936 910.345 572.323L926 573V421.108C904.644 419.366 893.918 417.915 888.313 416.754C882.708 415.593 872.465 412.787 865.604 410.465C858.744 408.24 848.307 403.983 842.413 400.984C836.518 398.082 827.628 392.954 822.603 389.665C817.578 386.279 810.33 381.054 806.658 378.055C802.986 374.959 795.546 367.993 790.231 362.479C784.916 356.868 777.958 348.934 774.77 344.678C771.581 340.421 766.749 333.261 764.043 328.714C761.338 324.167 756.893 315.653 754.187 309.849C751.578 304.044 747.809 294.369 745.973 288.564C744.04 282.76 741.625 273.569 740.562 268.248C739.499 262.926 738.049 252.381 737.373 244.738L736.116 231C590.298 231 585.756 231.097 585.176 232.645V232.741Z" fill="#010101"/>
<path d="M1300.82 231.741C1301.21 232.612 1300.92 240.739 1300.34 249.833C1299.66 258.927 1298.31 272.375 1297.15 279.825C1296.09 287.274 1294.16 298.4 1292.71 304.495C1291.35 310.59 1288.55 321.522 1286.43 328.682C1284.4 335.841 1280.24 347.838 1277.25 355.287C1274.35 362.737 1268.94 374.733 1265.36 381.893C1261.78 389.052 1256.76 398.436 1254.25 402.693C1251.73 406.95 1246.13 415.657 1241.88 422.042C1237.53 428.428 1230.38 438.199 1225.84 443.81C1221.39 449.422 1213.95 458.032 1209.41 462.966C1204.87 467.9 1195.49 477.091 1188.54 483.38C1181.58 489.668 1170.95 498.472 1164.86 503.02C1158.77 507.47 1149.79 513.855 1145.05 517.048C1140.32 520.24 1131.81 525.368 1126.21 528.464C1120.6 531.56 1111.33 536.397 1105.43 539.203C1099.54 541.912 1087.85 546.846 1079.34 549.942C1070.84 553.134 1059.15 557.101 1053.25 558.746C1047.36 560.39 1036.34 563.099 1028.61 564.647C1020.88 566.195 1009.38 568.227 1003 569.001C996.624 569.872 984.351 570.936 975.655 571.323L960 572V420.108C981.356 418.366 992.082 416.915 997.687 415.754C1003.29 414.593 1013.53 411.787 1020.4 409.465C1027.26 407.24 1037.69 402.983 1043.59 399.984C1049.48 397.082 1058.37 391.954 1063.4 388.665C1068.42 385.279 1075.67 380.054 1079.34 377.055C1083.01 373.959 1090.45 366.993 1095.77 361.479C1101.08 355.868 1108.04 347.934 1111.23 343.678C1114.42 339.421 1119.25 332.261 1121.96 327.714C1124.66 323.167 1129.11 314.653 1131.81 308.849C1134.42 303.044 1138.19 293.369 1140.03 287.564C1141.96 281.76 1144.38 272.569 1145.44 267.248C1146.5 261.926 1147.95 251.381 1148.63 243.738L1149.88 230C1295.7 230 1300.24 230.097 1300.82 231.645V231.741Z" fill="#010101"/>
<path d="M925.855 280.564C926.173 279.846 925.935 273.145 925.457 265.646C924.899 258.148 923.785 247.059 922.829 240.917C921.953 234.774 920.36 225.6 919.166 220.574C918.051 215.549 915.742 206.534 913.99 200.631C912.318 194.728 908.894 184.836 906.425 178.693C904.036 172.55 899.577 162.659 896.631 156.755C893.684 150.852 889.544 143.114 887.473 139.604C885.403 136.094 880.784 128.914 877.281 123.649C873.697 118.384 867.805 110.327 864.062 105.7C860.399 101.073 854.268 93.9734 850.525 89.9049C846.782 85.8365 839.058 78.258 833.325 73.0727C827.592 67.8874 818.832 60.628 813.816 56.8786C808.799 53.209 801.393 47.944 797.491 45.3114C793.59 42.6789 786.582 38.4509 781.964 35.8982C777.345 33.3454 769.701 29.3567 764.843 27.0433C759.986 24.8096 750.35 20.7411 743.343 18.1884C736.336 15.5559 726.7 12.2851 721.843 10.929C716.986 9.57284 707.908 7.33918 701.537 6.0628C695.167 4.78642 685.691 3.11117 680.435 2.47298C675.18 1.75502 665.067 0.877511 657.9 0.558416L645 -9.26852e-06V125.245C662.598 126.681 671.437 127.877 676.056 128.835C680.674 129.792 689.115 132.105 694.769 134.02C700.422 135.855 709.023 139.365 713.88 141.838C718.737 144.231 726.063 148.459 730.204 151.171C734.345 153.963 740.317 158.271 743.343 160.744C746.369 163.297 752.5 169.04 756.88 173.588C761.26 178.214 766.993 184.756 769.621 188.266C772.249 191.776 776.23 197.679 778.46 201.429C780.69 205.178 784.352 212.198 786.582 216.984C788.732 221.771 791.838 229.748 793.351 234.535C794.943 239.321 796.934 246.9 797.81 251.287C798.686 255.675 799.88 264.37 800.438 270.672L801.473 282C921.635 282 925.377 281.92 925.855 280.644V280.564Z" fill="#010101"/>
<path d="M1240.56 1.14503C1239.85 0.826512 1233.15 1.0654 1225.65 1.54318C1218.15 2.10059 1207.06 3.21541 1200.92 4.17097C1194.77 5.0469 1185.6 6.6395 1180.57 7.83395C1175.55 8.94877 1166.53 11.258 1160.63 13.0099C1154.73 14.6821 1144.84 18.1062 1138.69 20.5747C1132.55 22.9636 1122.66 27.4229 1116.76 30.3692C1110.85 33.3155 1103.11 37.4563 1099.6 39.5267C1096.09 41.5971 1088.91 46.2156 1083.65 49.7193C1078.38 53.3027 1070.33 59.1953 1065.7 62.9379C1061.07 66.6009 1053.97 72.7324 1049.9 76.475C1045.84 80.2176 1038.26 87.9417 1033.07 93.6751C1027.89 99.4084 1020.63 108.168 1016.88 113.184C1013.21 118.201 1007.94 125.607 1005.31 129.509C1002.68 133.41 998.451 140.418 995.898 145.036C993.345 149.655 989.357 157.299 987.043 162.157C984.81 167.014 980.741 176.65 978.188 183.657C975.556 190.664 972.285 200.3 970.929 205.157C969.573 210.014 967.339 219.092 966.063 225.463C964.786 231.833 963.111 241.309 962.473 246.565C961.755 251.82 960.878 261.933 960.558 269.1L960 282L1085.24 282C1086.68 264.402 1087.88 255.563 1088.83 250.944C1089.79 246.326 1092.11 237.885 1094.02 232.231C1095.85 226.578 1099.36 217.977 1101.84 213.12C1104.23 208.263 1108.46 200.937 1111.17 196.796C1113.96 192.655 1118.27 186.683 1120.74 183.657C1123.3 180.631 1129.04 174.5 1133.59 170.12C1138.21 165.74 1144.76 160.007 1148.27 157.379C1151.78 154.751 1157.68 150.77 1161.43 148.54C1165.18 146.31 1172.2 142.648 1176.98 140.418C1181.77 138.268 1189.75 135.162 1194.53 133.649C1199.32 132.057 1206.9 130.066 1211.29 129.19C1215.67 128.314 1224.37 127.12 1230.67 126.562L1242 125.527C1242 5.36542 1241.92 1.62281 1240.64 1.14503H1240.56Z" fill="#010101"/>
<path d="M644.893 570.936C645.128 570.404 644.952 565.437 644.598 559.88C644.185 554.322 643.36 546.104 642.653 541.552C642.004 536.999 640.826 530.2 639.941 526.475C639.116 522.75 637.407 516.07 636.11 511.694C634.872 507.319 632.338 499.988 630.511 495.436C628.742 490.883 625.441 483.552 623.26 479.177C621.08 474.802 618.015 469.067 616.482 466.465C614.95 463.864 611.531 458.543 608.937 454.641C606.285 450.739 601.923 444.767 599.153 441.338C596.441 437.909 591.903 432.647 589.132 429.632C586.362 426.616 580.645 421 576.401 417.157C572.157 413.314 565.673 407.934 561.96 405.155C558.246 402.435 552.764 398.533 549.876 396.582C546.988 394.631 541.801 391.497 538.382 389.605C534.964 387.713 529.305 384.757 525.71 383.043C522.114 381.387 514.982 378.372 509.795 376.48C504.608 374.529 497.476 372.105 493.88 371.1C490.285 370.095 483.565 368.439 478.85 367.493C474.134 366.547 467.12 365.306 463.23 364.833C459.339 364.301 451.854 363.65 446.549 363.414L437 363V455.823C450.026 456.887 456.569 457.774 459.988 458.484C463.407 459.193 469.655 460.908 473.839 462.327C478.024 463.687 484.39 466.288 487.986 468.121C491.581 469.894 497.004 473.028 500.069 475.038C503.134 477.107 507.555 480.3 509.795 482.133C512.035 484.025 516.573 488.282 519.815 491.652C523.057 495.081 527.301 499.929 529.246 502.53C531.191 505.132 534.138 509.507 535.789 512.286C537.439 515.064 540.151 520.267 541.801 523.815C543.392 527.362 545.691 533.274 546.811 536.822C547.99 540.369 549.464 545.986 550.112 549.238C550.76 552.489 551.645 558.934 552.057 563.605L552.823 572C641.769 572 644.539 571.941 644.893 570.995V570.936Z" fill="#010101"/>
<path d="M340.145 280.564C339.827 279.846 340.065 273.145 340.543 265.646C341.101 258.148 342.215 247.059 343.171 240.917C344.047 234.774 345.64 225.6 346.834 220.574C347.949 215.549 350.258 206.534 352.01 200.631C353.682 194.728 357.106 184.836 359.575 178.693C361.964 172.55 366.423 162.659 369.369 156.755C372.316 150.852 376.456 143.114 378.527 139.604C380.597 136.094 385.216 128.914 388.719 123.649C392.303 118.384 398.195 110.327 401.938 105.7C405.601 101.073 411.732 93.9734 415.475 89.9049C419.218 85.8365 426.942 78.258 432.675 73.0727C438.408 67.8874 447.168 60.628 452.184 56.8786C457.201 53.209 464.607 47.944 468.509 45.3114C472.41 42.6789 479.418 38.4509 484.036 35.8982C488.655 33.3454 496.299 29.3567 501.157 27.0433C506.014 24.8096 515.65 20.7411 522.657 18.1884C529.664 15.5559 539.3 12.2851 544.157 10.929C549.014 9.57284 558.092 7.33918 564.463 6.0628C570.833 4.78642 580.309 3.11117 585.565 2.47298C590.82 1.75502 600.933 0.877511 608.1 0.558416L621 -9.26852e-06V125.245C603.402 126.681 594.563 127.877 589.944 128.835C585.326 129.792 576.885 132.105 571.231 134.02C565.578 135.855 556.977 139.365 552.12 141.838C547.263 144.231 539.937 148.459 535.796 151.171C531.655 153.963 525.683 158.271 522.657 160.744C519.631 163.297 513.5 169.04 509.12 173.588C504.74 178.214 499.007 184.756 496.379 188.266C493.751 191.776 489.77 197.679 487.54 201.429C485.31 205.178 481.648 212.198 479.418 216.984C477.268 221.771 474.162 229.748 472.649 234.535C471.057 239.321 469.066 246.9 468.19 251.287C467.314 255.675 466.12 264.37 465.562 270.672L464.527 282C344.365 282 340.623 281.92 340.145 280.644V280.564Z" fill="#010101"/>
</svg> -->


<svg width="1301" height="573" viewBox="0 0 1301 573" fill="none" xmlns="http://www.w3.org/2000/svg">
<path d="M18.3395 255.241V220.042H27.2386V255.241H18.3395ZM5.18963 242.091V233.192H40.3885V242.091H5.18963ZM81.0748 258.621C78.1747 258.621 75.548 257.876 73.1948 256.384C70.8581 254.876 69.0021 252.664 67.6266 249.747C66.2677 246.814 65.5882 243.218 65.5882 238.959C65.5882 234.584 66.2926 230.946 67.7012 228.046C69.1098 225.129 70.9824 222.95 73.3191 221.509C75.6723 220.05 78.2492 219.321 81.0499 219.321C83.1877 219.321 84.9692 219.686 86.3944 220.415C87.8361 221.127 88.9962 222.022 89.8745 223.099C90.7694 224.16 91.4488 225.204 91.9128 226.232H92.236V207.091H102.801V258H92.3603V251.885H91.9128C91.4157 252.946 90.7114 253.998 89.7999 255.042C88.905 256.069 87.7367 256.923 86.2949 257.602C84.8697 258.282 83.1297 258.621 81.0748 258.621ZM84.4306 250.195C86.1375 250.195 87.5792 249.731 88.7559 248.803C89.949 247.858 90.8605 246.54 91.4902 244.85C92.1365 243.16 92.4597 241.179 92.4597 238.909C92.4597 236.639 92.1448 234.667 91.5151 232.993C90.8854 231.319 89.9739 230.027 88.7807 229.115C87.5875 228.204 86.1375 227.748 84.4306 227.748C82.6905 227.748 81.2239 228.22 80.0307 229.165C78.8375 230.109 77.9344 231.419 77.3212 233.092C76.708 234.766 76.4015 236.705 76.4015 238.909C76.4015 241.13 76.708 243.094 77.3212 244.8C77.9509 246.491 78.8541 247.817 80.0307 248.778C81.2239 249.722 82.6905 250.195 84.4306 250.195ZM128.908 258.746C124.98 258.746 121.599 257.95 118.766 256.359C115.948 254.752 113.777 252.482 112.253 249.548C110.728 246.598 109.966 243.11 109.966 239.083C109.966 235.156 110.728 231.709 112.253 228.742C113.777 225.776 115.924 223.464 118.691 221.807C121.475 220.15 124.74 219.321 128.485 219.321C131.004 219.321 133.349 219.727 135.52 220.539C137.707 221.335 139.613 222.536 141.237 224.143C142.878 225.751 144.154 227.773 145.065 230.209C145.977 232.628 146.433 235.462 146.433 238.71V241.619H114.192V235.056H136.464C136.464 233.531 136.133 232.181 135.47 231.004C134.807 229.828 133.888 228.908 132.711 228.245C131.551 227.566 130.2 227.226 128.659 227.226C127.052 227.226 125.626 227.599 124.384 228.344C123.157 229.074 122.196 230.06 121.5 231.303C120.804 232.529 120.448 233.896 120.431 235.404V241.643C120.431 243.533 120.779 245.165 121.475 246.54C122.188 247.916 123.19 248.977 124.483 249.722C125.776 250.468 127.308 250.841 129.082 250.841C130.258 250.841 131.335 250.675 132.313 250.344C133.291 250.012 134.128 249.515 134.824 248.852C135.52 248.189 136.05 247.377 136.415 246.416L146.209 247.062C145.712 249.416 144.692 251.471 143.151 253.227C141.627 254.967 139.655 256.326 137.235 257.304C134.832 258.265 132.056 258.746 128.908 258.746ZM191.593 207.091V258H180.83V217.308H180.531L168.873 224.616V215.07L181.476 207.091H191.593ZM202.922 249.051V240.575L224.176 207.091H231.484V218.824H227.159L213.76 240.028V240.425H243.963V249.051H202.922ZM227.358 258V246.466L227.556 242.712V207.091H237.649V258H227.358ZM28.4567 357.318V336.885H28.1335C27.6364 337.946 26.9321 338.998 26.0206 340.042C25.1257 341.069 23.9574 341.923 22.5156 342.602C21.0904 343.282 19.3504 343.621 17.2955 343.621C14.3954 343.621 11.7687 342.876 9.41548 341.384C7.07884 339.876 5.22277 337.664 3.8473 334.747C2.4884 331.814 1.80895 328.218 1.80895 323.959C1.80895 319.584 2.51326 315.946 3.92188 313.046C5.33049 310.129 7.20313 307.95 9.53977 306.509C11.893 305.05 14.4699 304.321 17.2706 304.321C19.4084 304.321 21.1899 304.686 22.6151 305.415C24.0568 306.127 25.2169 307.022 26.0952 308.099C26.9901 309.16 27.6695 310.204 28.1335 311.232H28.581V304.818H39.0213V357.318H28.4567ZM20.6513 335.195C22.3582 335.195 23.8 334.731 24.9766 333.803C26.1697 332.858 27.0812 331.54 27.7109 329.85C28.3572 328.16 28.6804 326.179 28.6804 323.909C28.6804 321.639 28.3655 319.667 27.7358 317.993C27.1061 316.319 26.1946 315.027 25.0014 314.115C23.8082 313.204 22.3582 312.748 20.6513 312.748C18.9112 312.748 17.4446 313.22 16.2514 314.165C15.0582 315.109 14.1551 316.419 13.5419 318.092C12.9287 319.766 12.6222 321.705 12.6222 323.909C12.6222 326.13 12.9287 328.094 13.5419 329.8C14.1716 331.491 15.0748 332.817 16.2514 333.778C17.4446 334.722 18.9112 335.195 20.6513 335.195ZM72.0078 326.743V304.818H82.5973V343H72.4304V336.065H72.0327C71.1709 338.302 69.7375 340.1 67.7322 341.459C65.7436 342.818 63.3158 343.497 60.4489 343.497C57.8968 343.497 55.6513 342.917 53.7124 341.757C51.7734 340.597 50.2571 338.948 49.1634 336.81C48.0862 334.673 47.5393 332.112 47.5227 329.129V304.818H58.1122V327.24C58.1288 329.494 58.7337 331.275 59.9268 332.585C61.12 333.894 62.7192 334.548 64.7244 334.548C66.0005 334.548 67.1937 334.258 68.304 333.678C69.4143 333.082 70.3092 332.203 70.9886 331.043C71.6847 329.883 72.0244 328.45 72.0078 326.743ZM91.0676 343V304.818H101.657V343H91.0676ZM96.3873 299.896C94.8129 299.896 93.4623 299.374 92.3354 298.33C91.2251 297.27 90.6699 296.002 90.6699 294.527C90.6699 293.069 91.2251 291.817 92.3354 290.773C93.4623 289.713 94.8129 289.183 96.3873 289.183C97.9616 289.183 99.3039 289.713 100.414 290.773C101.541 291.817 102.105 293.069 102.105 294.527C102.105 296.002 101.541 297.27 100.414 298.33C99.3039 299.374 97.9616 299.896 96.3873 299.896ZM109.941 343V336.686L128.634 313.543V313.27H110.587V304.818H141.386V311.704L123.837 334.275V334.548H142.033V343H109.941ZM149.931 343V336.686L168.624 313.543V313.27H150.578V304.818H181.377V311.704L163.827 334.275V334.548H182.023V343H149.931ZM206.427 343.746C202.5 343.746 199.119 342.95 196.285 341.359C193.468 339.752 191.297 337.482 189.772 334.548C188.248 331.598 187.485 328.11 187.485 324.083C187.485 320.156 188.248 316.709 189.772 313.742C191.297 310.776 193.443 308.464 196.211 306.807C198.995 305.15 202.259 304.321 206.005 304.321C208.524 304.321 210.868 304.727 213.039 305.539C215.227 306.335 217.133 307.536 218.757 309.143C220.397 310.751 221.673 312.773 222.585 315.209C223.496 317.628 223.952 320.462 223.952 323.71V326.619H191.711V320.056H213.984C213.984 318.531 213.653 317.181 212.99 316.004C212.327 314.828 211.407 313.908 210.23 313.245C209.07 312.566 207.72 312.226 206.179 312.226C204.571 312.226 203.146 312.599 201.903 313.344C200.677 314.074 199.716 315.06 199.02 316.303C198.324 317.529 197.967 318.896 197.951 320.404V326.643C197.951 328.533 198.299 330.165 198.995 331.54C199.707 332.916 200.71 333.977 202.002 334.722C203.295 335.468 204.828 335.841 206.601 335.841C207.778 335.841 208.855 335.675 209.833 335.344C210.81 335.012 211.647 334.515 212.343 333.852C213.039 333.189 213.57 332.377 213.934 331.416L223.728 332.062C223.231 334.416 222.212 336.471 220.671 338.227C219.146 339.967 217.174 341.326 214.755 342.304C212.352 343.265 209.576 343.746 206.427 343.746ZM262.631 315.706L252.936 316.303C252.771 315.474 252.414 314.728 251.868 314.065C251.321 313.386 250.6 312.847 249.705 312.45C248.827 312.035 247.774 311.828 246.548 311.828C244.907 311.828 243.524 312.176 242.397 312.872C241.27 313.552 240.706 314.463 240.706 315.607C240.706 316.518 241.071 317.289 241.8 317.918C242.529 318.548 243.78 319.054 245.554 319.435L252.464 320.827C256.176 321.589 258.944 322.815 260.767 324.506C262.59 326.196 263.501 328.417 263.501 331.168C263.501 333.67 262.764 335.866 261.289 337.755C259.83 339.644 257.825 341.119 255.273 342.18C252.738 343.224 249.813 343.746 246.498 343.746C241.444 343.746 237.417 342.693 234.417 340.589C231.434 338.468 229.686 335.584 229.172 331.938L239.588 331.391C239.903 332.933 240.665 334.109 241.875 334.921C243.084 335.717 244.634 336.114 246.523 336.114C248.379 336.114 249.871 335.758 250.998 335.045C252.141 334.316 252.721 333.38 252.738 332.237C252.721 331.275 252.315 330.488 251.52 329.875C250.724 329.245 249.498 328.765 247.841 328.433L241.228 327.116C237.5 326.37 234.724 325.077 232.901 323.238C231.095 321.398 230.191 319.054 230.191 316.203C230.191 313.75 230.854 311.638 232.18 309.864C233.522 308.091 235.403 306.724 237.823 305.763C240.259 304.802 243.109 304.321 246.374 304.321C251.196 304.321 254.991 305.34 257.759 307.379C260.543 309.417 262.167 312.193 262.631 315.706ZM300.44 343.621C297.54 343.621 294.913 342.876 292.56 341.384C290.223 339.876 288.367 337.664 286.992 334.747C285.633 331.814 284.953 328.218 284.953 323.959C284.953 319.584 285.658 315.946 287.066 313.046C288.475 310.129 290.348 307.95 292.684 306.509C295.038 305.05 297.614 304.321 300.415 304.321C302.553 304.321 304.334 304.686 305.76 305.415C307.201 306.127 308.361 307.022 309.24 308.099C310.135 309.16 310.814 310.204 311.278 311.232H311.601V292.091H322.166V343H311.725V336.885H311.278C310.781 337.946 310.077 338.998 309.165 340.042C308.27 341.069 307.102 341.923 305.66 342.602C304.235 343.282 302.495 343.621 300.44 343.621ZM303.796 335.195C305.503 335.195 306.944 334.731 308.121 333.803C309.314 332.858 310.226 331.54 310.855 329.85C311.502 328.16 311.825 326.179 311.825 323.909C311.825 321.639 311.51 319.667 310.88 317.993C310.251 316.319 309.339 315.027 308.146 314.115C306.953 313.204 305.503 312.748 303.796 312.748C302.056 312.748 300.589 313.22 299.396 314.165C298.203 315.109 297.3 316.419 296.686 318.092C296.073 319.766 295.767 321.705 295.767 323.909C295.767 326.13 296.073 328.094 296.686 329.8C297.316 331.491 298.219 332.817 299.396 333.778C300.589 334.722 302.056 335.195 303.796 335.195ZM348.273 343.746C344.345 343.746 340.965 342.95 338.131 341.359C335.314 339.752 333.143 337.482 331.618 334.548C330.093 331.598 329.331 328.11 329.331 324.083C329.331 320.156 330.093 316.709 331.618 313.742C333.143 310.776 335.289 308.464 338.056 306.807C340.84 305.15 344.105 304.321 347.85 304.321C350.369 304.321 352.714 304.727 354.885 305.539C357.073 306.335 358.978 307.536 360.602 309.143C362.243 310.751 363.519 312.773 364.431 315.209C365.342 317.628 365.798 320.462 365.798 323.71V326.619H333.557V320.056H355.83C355.83 318.531 355.498 317.181 354.835 316.004C354.173 314.828 353.253 313.908 352.076 313.245C350.916 312.566 349.566 312.226 348.024 312.226C346.417 312.226 344.992 312.599 343.749 313.344C342.522 314.074 341.561 315.06 340.865 316.303C340.169 317.529 339.813 318.896 339.796 320.404V326.643C339.796 328.533 340.144 330.165 340.84 331.54C341.553 332.916 342.556 333.977 343.848 334.722C345.141 335.468 346.674 335.841 348.447 335.841C349.624 335.841 350.701 335.675 351.678 335.344C352.656 335.012 353.493 334.515 354.189 333.852C354.885 333.189 355.415 332.377 355.78 331.416L365.574 332.062C365.077 334.416 364.058 336.471 362.517 338.227C360.992 339.967 359.02 341.326 356.6 342.304C354.197 343.265 351.422 343.746 348.273 343.746ZM17.2955 428.621C14.3954 428.621 11.7687 427.876 9.41548 426.384C7.07884 424.876 5.22277 422.664 3.8473 419.747C2.4884 416.814 1.80895 413.218 1.80895 408.959C1.80895 404.584 2.51326 400.946 3.92188 398.046C5.33049 395.129 7.20313 392.95 9.53977 391.509C11.893 390.05 14.4699 389.321 17.2706 389.321C19.4084 389.321 21.1899 389.686 22.6151 390.415C24.0568 391.127 25.2169 392.022 26.0952 393.099C26.9901 394.16 27.6695 395.204 28.1335 396.232H28.4567V377.091H39.0213V428H28.581V421.885H28.1335C27.6364 422.946 26.9321 423.998 26.0206 425.042C25.1257 426.069 23.9574 426.923 22.5156 427.602C21.0904 428.282 19.3504 428.621 17.2955 428.621ZM20.6513 420.195C22.3582 420.195 23.8 419.731 24.9766 418.803C26.1697 417.858 27.0812 416.54 27.7109 414.85C28.3572 413.16 28.6804 411.179 28.6804 408.909C28.6804 406.639 28.3655 404.667 27.7358 402.993C27.1061 401.319 26.1946 400.027 25.0014 399.115C23.8082 398.204 22.3582 397.748 20.6513 397.748C18.9112 397.748 17.4446 398.22 16.2514 399.165C15.0582 400.109 14.1551 401.419 13.5419 403.092C12.9287 404.766 12.6222 406.705 12.6222 408.909C12.6222 411.13 12.9287 413.094 13.5419 414.8C14.1716 416.491 15.0748 417.817 16.2514 418.778C17.4446 419.722 18.9112 420.195 20.6513 420.195ZM47.7278 428V389.818H58.3173V428H47.7278ZM53.0474 384.896C51.4731 384.896 50.1225 384.374 48.9956 383.33C47.8852 382.27 47.3301 381.002 47.3301 379.527C47.3301 378.069 47.8852 376.817 48.9956 375.773C50.1225 374.713 51.4731 374.183 53.0474 374.183C54.6217 374.183 55.9641 374.713 57.0744 375.773C58.2013 376.817 58.7647 378.069 58.7647 379.527C58.7647 381.002 58.2013 382.27 57.0744 383.33C55.9641 384.374 54.6217 384.896 53.0474 384.896ZM87.3327 389.818V397.773H63.7674V389.818H87.3327ZM69.1616 428V387.059C69.1616 384.291 69.7002 381.996 70.7773 380.173C71.8711 378.35 73.3626 376.983 75.2518 376.072C77.141 375.16 79.2871 374.705 81.69 374.705C83.314 374.705 84.7972 374.829 86.1396 375.077C87.4985 375.326 88.5094 375.55 89.1722 375.749L87.283 383.703C86.8687 383.571 86.355 383.446 85.7418 383.33C85.1452 383.214 84.5321 383.156 83.9023 383.156C82.3446 383.156 81.2591 383.521 80.646 384.25C80.0328 384.963 79.7262 385.965 79.7262 387.258V428H69.1616ZM109.835 428.746C105.908 428.746 102.527 427.95 99.6934 426.359C96.8761 424.752 94.7052 422.482 93.1806 419.548C91.656 416.598 90.8936 413.11 90.8936 409.083C90.8936 405.156 91.656 401.709 93.1806 398.742C94.7052 395.776 96.8513 393.464 99.6188 391.807C102.403 390.15 105.668 389.321 109.413 389.321C111.932 389.321 114.277 389.727 116.448 390.539C118.635 391.335 120.541 392.536 122.165 394.143C123.806 395.751 125.082 397.773 125.993 400.209C126.905 402.628 127.36 405.462 127.36 408.71V411.619H95.1195V405.056H117.392C117.392 403.531 117.061 402.181 116.398 401.004C115.735 399.828 114.815 398.908 113.639 398.245C112.479 397.566 111.128 397.226 109.587 397.226C107.979 397.226 106.554 397.599 105.311 398.344C104.085 399.074 103.124 400.06 102.428 401.303C101.732 402.529 101.375 403.896 101.359 405.404V411.643C101.359 413.533 101.707 415.165 102.403 416.54C103.115 417.916 104.118 418.977 105.411 419.722C106.703 420.468 108.236 420.841 110.009 420.841C111.186 420.841 112.263 420.675 113.241 420.344C114.219 420.012 115.056 419.515 115.752 418.852C116.448 418.189 116.978 417.377 117.343 416.416L127.137 417.062C126.639 419.416 125.62 421.471 124.079 423.227C122.554 424.967 120.582 426.326 118.163 427.304C115.76 428.265 112.984 428.746 109.835 428.746ZM134.271 428V389.818H144.537V396.48H144.935C145.631 394.11 146.799 392.321 148.44 391.111C150.08 389.884 151.97 389.271 154.107 389.271C154.638 389.271 155.209 389.304 155.823 389.371C156.436 389.437 156.974 389.528 157.438 389.644V399.04C156.941 398.891 156.253 398.759 155.375 398.643C154.497 398.527 153.693 398.469 152.964 398.469C151.406 398.469 150.014 398.808 148.788 399.488C147.578 400.151 146.617 401.079 145.904 402.272C145.208 403.465 144.86 404.841 144.86 406.398V428H134.271ZM178.537 428.746C174.609 428.746 171.228 427.95 168.395 426.359C165.577 424.752 163.406 422.482 161.882 419.548C160.357 416.598 159.595 413.11 159.595 409.083C159.595 405.156 160.357 401.709 161.882 398.742C163.406 395.776 165.552 393.464 168.32 391.807C171.104 390.15 174.369 389.321 178.114 389.321C180.633 389.321 182.978 389.727 185.149 390.539C187.336 391.335 189.242 392.536 190.866 394.143C192.507 395.751 193.783 397.773 194.694 400.209C195.606 402.628 196.061 405.462 196.061 408.71V411.619H163.821V405.056H186.093C186.093 403.531 185.762 402.181 185.099 401.004C184.436 399.828 183.516 398.908 182.34 398.245C181.18 397.566 179.829 397.226 178.288 397.226C176.681 397.226 175.255 397.599 174.012 398.344C172.786 399.074 171.825 400.06 171.129 401.303C170.433 402.529 170.077 403.896 170.06 405.404V411.643C170.06 413.533 170.408 415.165 171.104 416.54C171.817 417.916 172.819 418.977 174.112 419.722C175.404 420.468 176.937 420.841 178.711 420.841C179.887 420.841 180.964 420.675 181.942 420.344C182.92 420.012 183.757 419.515 184.453 418.852C185.149 418.189 185.679 417.377 186.044 416.416L195.838 417.062C195.341 419.416 194.321 421.471 192.78 423.227C191.256 424.967 189.283 426.326 186.864 427.304C184.461 428.265 181.685 428.746 178.537 428.746ZM213.561 405.926V428H202.972V389.818H213.064V396.555H213.512C214.357 394.334 215.774 392.577 217.762 391.285C219.751 389.976 222.162 389.321 224.996 389.321C227.648 389.321 229.959 389.901 231.931 391.061C233.904 392.221 235.436 393.878 236.53 396.033C237.624 398.17 238.171 400.723 238.171 403.689V428H227.581V405.578C227.598 403.241 227.001 401.419 225.792 400.109C224.582 398.784 222.916 398.121 220.795 398.121C219.37 398.121 218.11 398.427 217.017 399.04C215.94 399.654 215.094 400.549 214.481 401.725C213.885 402.885 213.578 404.286 213.561 405.926ZM266.826 389.818V397.773H243.832V389.818H266.826ZM249.052 380.67H259.642V416.267C259.642 417.245 259.791 418.007 260.089 418.554C260.388 419.084 260.802 419.457 261.332 419.673C261.879 419.888 262.509 419.996 263.221 419.996C263.719 419.996 264.216 419.954 264.713 419.871C265.21 419.772 265.591 419.697 265.856 419.648L267.522 427.528C266.992 427.693 266.246 427.884 265.285 428.099C264.323 428.331 263.155 428.472 261.78 428.522C259.228 428.621 256.99 428.282 255.068 427.503C253.162 426.724 251.679 425.514 250.618 423.874C249.558 422.233 249.036 420.161 249.052 417.659V380.67ZM290.714 428.746C286.787 428.746 283.406 427.95 280.572 426.359C277.755 424.752 275.584 422.482 274.059 419.548C272.535 416.598 271.773 413.11 271.773 409.083C271.773 405.156 272.535 401.709 274.059 398.742C275.584 395.776 277.73 393.464 280.498 391.807C283.282 390.15 286.546 389.321 290.292 389.321C292.811 389.321 295.156 389.727 297.327 390.539C299.514 391.335 301.42 392.536 303.044 394.143C304.684 395.751 305.961 397.773 306.872 400.209C307.783 402.628 308.239 405.462 308.239 408.71V411.619H275.998V405.056H298.271C298.271 403.531 297.94 402.181 297.277 401.004C296.614 399.828 295.694 398.908 294.518 398.245C293.358 397.566 292.007 397.226 290.466 397.226C288.858 397.226 287.433 397.599 286.19 398.344C284.964 399.074 284.003 400.06 283.307 401.303C282.611 402.529 282.254 403.896 282.238 405.404V411.643C282.238 413.533 282.586 415.165 283.282 416.54C283.994 417.916 284.997 418.977 286.29 419.722C287.582 420.468 289.115 420.841 290.888 420.841C292.065 420.841 293.142 420.675 294.12 420.344C295.098 420.012 295.934 419.515 296.631 418.852C297.327 418.189 297.857 417.377 298.221 416.416L308.015 417.062C307.518 419.416 306.499 421.471 304.958 423.227C303.433 424.967 301.461 426.326 299.042 427.304C296.639 428.265 293.863 428.746 290.714 428.746ZM346.918 400.706L337.224 401.303C337.058 400.474 336.702 399.728 336.155 399.065C335.608 398.386 334.887 397.847 333.992 397.45C333.114 397.035 332.061 396.828 330.835 396.828C329.194 396.828 327.811 397.176 326.684 397.872C325.557 398.552 324.993 399.463 324.993 400.607C324.993 401.518 325.358 402.289 326.087 402.918C326.816 403.548 328.068 404.054 329.841 404.435L336.751 405.827C340.463 406.589 343.231 407.815 345.054 409.506C346.877 411.196 347.788 413.417 347.788 416.168C347.788 418.67 347.051 420.866 345.576 422.755C344.117 424.644 342.112 426.119 339.56 427.18C337.025 428.224 334.1 428.746 330.785 428.746C325.731 428.746 321.704 427.693 318.704 425.589C315.721 423.468 313.973 420.584 313.459 416.938L323.875 416.391C324.19 417.933 324.952 419.109 326.162 419.921C327.372 420.717 328.921 421.114 330.81 421.114C332.666 421.114 334.158 420.758 335.285 420.045C336.428 419.316 337.008 418.38 337.025 417.237C337.008 416.275 336.602 415.488 335.807 414.875C335.011 414.245 333.785 413.765 332.128 413.433L325.515 412.116C321.787 411.37 319.011 410.077 317.188 408.238C315.382 406.398 314.479 404.054 314.479 401.203C314.479 398.75 315.141 396.638 316.467 394.864C317.809 393.091 319.69 391.724 322.11 390.763C324.546 389.802 327.396 389.321 330.661 389.321C335.483 389.321 339.278 390.34 342.046 392.379C344.83 394.417 346.454 397.193 346.918 400.706ZM23.5348 474.818V482.773H0.541193V474.818H23.5348ZM5.76136 465.67H16.3509V501.267C16.3509 502.245 16.5 503.007 16.7983 503.554C17.0966 504.084 17.5109 504.457 18.0412 504.673C18.5881 504.888 19.2178 504.996 19.9304 504.996C20.4276 504.996 20.9247 504.954 21.4219 504.871C21.919 504.772 22.3002 504.697 22.5653 504.648L24.2308 512.528C23.7005 512.693 22.9548 512.884 21.9936 513.099C21.0324 513.331 19.8641 513.472 18.4886 513.522C15.9366 513.621 13.6993 513.282 11.777 512.503C9.87121 511.724 8.38802 510.514 7.32741 508.874C6.26681 507.233 5.74479 505.161 5.76136 502.659V465.67ZM47.4233 513.746C43.4957 513.746 40.1151 512.95 37.2812 511.359C34.464 509.752 32.2931 507.482 30.7685 504.548C29.2438 501.598 28.4815 498.11 28.4815 494.083C28.4815 490.156 29.2438 486.709 30.7685 483.742C32.2931 480.776 34.4392 478.464 37.2067 476.807C39.9908 475.15 43.2554 474.321 47.0007 474.321C49.5197 474.321 51.8646 474.727 54.0355 475.539C56.223 476.335 58.1288 477.536 59.7528 479.143C61.3935 480.751 62.6695 482.773 63.581 485.209C64.4924 487.628 64.9482 490.462 64.9482 493.71V496.619H32.7074V490.056H54.9801C54.9801 488.531 54.6487 487.181 53.9858 486.004C53.3229 484.828 52.4032 483.908 51.2266 483.245C50.0665 482.566 48.7159 482.226 47.1747 482.226C45.5672 482.226 44.142 482.599 42.8991 483.344C41.6728 484.074 40.7116 485.06 40.0156 486.303C39.3196 487.529 38.9633 488.896 38.9467 490.404V496.643C38.9467 498.533 39.2947 500.165 39.9908 501.54C40.7034 502.916 41.706 503.977 42.9986 504.722C44.2912 505.468 45.8241 505.841 47.5973 505.841C48.7739 505.841 49.8511 505.675 50.8288 505.344C51.8066 505.012 52.6435 504.515 53.3395 503.852C54.0355 503.189 54.5658 502.377 54.9304 501.416L64.7244 502.062C64.2273 504.416 63.2081 506.471 61.6669 508.227C60.1423 509.967 58.1702 511.326 55.7507 512.304C53.3478 513.265 50.572 513.746 47.4233 513.746ZM71.8587 513V474.818H81.951V481.555H82.3984C83.1939 479.317 84.5197 477.553 86.3757 476.26C88.2318 474.967 90.4524 474.321 93.0376 474.321C95.656 474.321 97.8849 474.976 99.7244 476.285C101.564 477.577 102.79 479.334 103.403 481.555H103.801C104.58 479.367 105.989 477.619 108.027 476.31C110.082 474.984 112.51 474.321 115.31 474.321C118.873 474.321 121.765 475.456 123.986 477.727C126.223 479.98 127.342 483.179 127.342 487.322V513H116.777V489.41C116.777 487.289 116.214 485.698 115.087 484.637C113.96 483.576 112.551 483.046 110.861 483.046C108.938 483.046 107.439 483.659 106.362 484.886C105.284 486.095 104.746 487.695 104.746 489.683V513H94.4794V489.186C94.4794 487.313 93.9408 485.822 92.8636 484.712C91.803 483.601 90.4027 483.046 88.6626 483.046C87.486 483.046 86.4254 483.344 85.4808 483.941C84.5528 484.521 83.8153 485.341 83.2685 486.402C82.7216 487.446 82.4482 488.672 82.4482 490.081V513H71.8587ZM146.594 513.721C144.158 513.721 141.987 513.298 140.081 512.453C138.176 511.591 136.667 510.324 135.557 508.65C134.463 506.96 133.917 504.855 133.917 502.336C133.917 500.215 134.306 498.433 135.085 496.991C135.864 495.55 136.924 494.39 138.267 493.511C139.609 492.633 141.134 491.97 142.841 491.523C144.564 491.075 146.37 490.76 148.26 490.578C150.48 490.346 152.27 490.131 153.629 489.932C154.988 489.716 155.974 489.402 156.587 488.987C157.2 488.573 157.507 487.96 157.507 487.148V486.999C157.507 485.424 157.01 484.206 156.015 483.344C155.038 482.483 153.645 482.052 151.839 482.052C149.933 482.052 148.417 482.474 147.29 483.32C146.163 484.148 145.417 485.192 145.053 486.452L135.259 485.656C135.756 483.336 136.734 481.331 138.192 479.641C139.65 477.934 141.531 476.625 143.835 475.713C146.155 474.785 148.84 474.321 151.889 474.321C154.01 474.321 156.04 474.57 157.979 475.067C159.935 475.564 161.666 476.335 163.174 477.379C164.699 478.423 165.9 479.765 166.779 481.406C167.657 483.03 168.096 484.977 168.096 487.247V513H158.054V507.705H157.755C157.142 508.898 156.322 509.951 155.294 510.862C154.267 511.757 153.032 512.461 151.591 512.975C150.149 513.472 148.483 513.721 146.594 513.721ZM149.627 506.413C151.185 506.413 152.56 506.106 153.753 505.493C154.946 504.863 155.883 504.018 156.562 502.957C157.242 501.897 157.581 500.695 157.581 499.353V495.301C157.25 495.517 156.794 495.715 156.214 495.898C155.651 496.063 155.013 496.221 154.3 496.37C153.587 496.503 152.875 496.627 152.162 496.743C151.45 496.842 150.803 496.933 150.223 497.016C148.98 497.199 147.895 497.489 146.967 497.886C146.039 498.284 145.318 498.823 144.804 499.502C144.291 500.165 144.034 500.994 144.034 501.988C144.034 503.43 144.556 504.532 145.6 505.294C146.66 506.04 148.003 506.413 149.627 506.413ZM208.08 485.706L198.386 486.303C198.22 485.474 197.864 484.728 197.317 484.065C196.77 483.386 196.049 482.847 195.154 482.45C194.276 482.035 193.223 481.828 191.997 481.828C190.357 481.828 188.973 482.176 187.846 482.872C186.719 483.552 186.156 484.463 186.156 485.607C186.156 486.518 186.52 487.289 187.249 487.918C187.978 488.548 189.23 489.054 191.003 489.435L197.913 490.827C201.625 491.589 204.393 492.815 206.216 494.506C208.039 496.196 208.95 498.417 208.95 501.168C208.95 503.67 208.213 505.866 206.738 507.755C205.28 509.644 203.274 511.119 200.722 512.18C198.187 513.224 195.262 513.746 191.947 513.746C186.893 513.746 182.866 512.693 179.866 510.589C176.884 508.468 175.135 505.584 174.621 501.938L185.037 501.391C185.352 502.933 186.114 504.109 187.324 504.921C188.534 505.717 190.083 506.114 191.972 506.114C193.828 506.114 195.32 505.758 196.447 505.045C197.59 504.316 198.17 503.38 198.187 502.237C198.17 501.275 197.764 500.488 196.969 499.875C196.173 499.245 194.947 498.765 193.29 498.433L186.678 497.116C182.949 496.37 180.173 495.077 178.35 493.238C176.544 491.398 175.641 489.054 175.641 486.203C175.641 483.75 176.304 481.638 177.629 479.864C178.972 478.091 180.853 476.724 183.272 475.763C185.708 474.802 188.558 474.321 191.823 474.321C196.646 474.321 200.441 475.34 203.208 477.379C205.992 479.417 207.616 482.193 208.08 485.706ZM221.808 513.646C220.167 513.646 218.759 513.066 217.582 511.906C216.422 510.73 215.842 509.321 215.842 507.68C215.842 506.056 216.422 504.664 217.582 503.504C218.759 502.344 220.167 501.764 221.808 501.764C223.399 501.764 224.791 502.344 225.984 503.504C227.177 504.664 227.774 506.056 227.774 507.68C227.774 508.774 227.492 509.777 226.929 510.688C226.382 511.583 225.661 512.304 224.766 512.851C223.871 513.381 222.885 513.646 221.808 513.646Z" fill="#1D1D20"/>
<path d="M585.176 232.741C584.789 233.612 585.079 241.739 585.659 250.833C586.336 259.927 587.688 273.375 588.848 280.825C589.911 288.274 591.844 299.4 593.293 305.495C594.646 311.59 597.448 322.522 599.574 329.682C601.604 336.841 605.759 348.838 608.754 356.287C611.653 363.737 617.065 375.733 620.64 382.893C624.216 390.052 629.241 399.436 631.753 403.693C634.265 407.95 639.87 416.657 644.122 423.042C648.471 429.428 655.621 439.199 660.163 444.81C664.608 450.422 672.049 459.032 676.591 463.966C681.132 468.9 690.506 478.091 697.463 484.38C704.421 490.668 715.051 499.472 721.138 504.02C727.226 508.47 736.213 514.855 740.948 518.048C745.683 521.24 754.187 526.368 759.792 529.464C765.396 532.56 774.673 537.397 780.568 540.203C786.462 542.912 798.155 547.846 806.658 550.942C815.162 554.134 826.855 558.101 832.749 559.746C838.644 561.39 849.66 564.099 857.391 565.647C865.121 567.195 876.621 569.227 882.998 570.001C889.376 570.872 901.649 571.936 910.345 572.323L926 573V421.108C904.644 419.366 893.918 417.915 888.313 416.754C882.708 415.593 872.465 412.787 865.604 410.465C858.744 408.24 848.307 403.983 842.413 400.984C836.518 398.082 827.628 392.954 822.603 389.665C817.578 386.279 810.33 381.054 806.658 378.055C802.986 374.959 795.546 367.993 790.231 362.479C784.916 356.868 777.958 348.934 774.77 344.678C771.581 340.421 766.749 333.261 764.043 328.714C761.338 324.167 756.893 315.653 754.187 309.849C751.578 304.044 747.809 294.369 745.973 288.564C744.04 282.76 741.625 273.569 740.562 268.248C739.499 262.926 738.049 252.381 737.373 244.738L736.116 231C590.298 231 585.756 231.097 585.176 232.645V232.741Z" fill="#1D1D20"/>
<path d="M1300.82 231.741C1301.21 232.612 1300.92 240.739 1300.34 249.833C1299.66 258.927 1298.31 272.375 1297.15 279.825C1296.09 287.274 1294.16 298.4 1292.71 304.495C1291.35 310.59 1288.55 321.522 1286.43 328.682C1284.4 335.841 1280.24 347.838 1277.25 355.287C1274.35 362.737 1268.94 374.733 1265.36 381.893C1261.78 389.052 1256.76 398.436 1254.25 402.693C1251.73 406.95 1246.13 415.657 1241.88 422.042C1237.53 428.428 1230.38 438.199 1225.84 443.81C1221.39 449.422 1213.95 458.032 1209.41 462.966C1204.87 467.9 1195.49 477.091 1188.54 483.38C1181.58 489.668 1170.95 498.472 1164.86 503.02C1158.77 507.47 1149.79 513.855 1145.05 517.048C1140.32 520.24 1131.81 525.368 1126.21 528.464C1120.6 531.56 1111.33 536.397 1105.43 539.203C1099.54 541.912 1087.85 546.846 1079.34 549.942C1070.84 553.134 1059.15 557.101 1053.25 558.746C1047.36 560.39 1036.34 563.099 1028.61 564.647C1020.88 566.195 1009.38 568.227 1003 569.001C996.624 569.872 984.351 570.936 975.655 571.323L960 572V420.108C981.356 418.366 992.082 416.915 997.687 415.754C1003.29 414.593 1013.53 411.787 1020.4 409.465C1027.26 407.24 1037.69 402.983 1043.59 399.984C1049.48 397.082 1058.37 391.954 1063.4 388.665C1068.42 385.279 1075.67 380.054 1079.34 377.055C1083.01 373.959 1090.45 366.993 1095.77 361.479C1101.08 355.868 1108.04 347.934 1111.23 343.678C1114.42 339.421 1119.25 332.261 1121.96 327.714C1124.66 323.167 1129.11 314.653 1131.81 308.849C1134.42 303.044 1138.19 293.369 1140.03 287.564C1141.96 281.76 1144.38 272.569 1145.44 267.248C1146.5 261.926 1147.95 251.381 1148.63 243.738L1149.88 230C1295.7 230 1300.24 230.097 1300.82 231.645V231.741Z" fill="#1D1D20"/>
<path d="M925.855 280.564C926.173 279.846 925.935 273.145 925.457 265.646C924.899 258.148 923.785 247.059 922.829 240.917C921.953 234.774 920.36 225.6 919.166 220.574C918.051 215.549 915.742 206.534 913.99 200.631C912.318 194.728 908.894 184.836 906.425 178.693C904.036 172.55 899.577 162.659 896.631 156.755C893.684 150.852 889.544 143.114 887.473 139.604C885.403 136.094 880.784 128.914 877.281 123.649C873.697 118.384 867.805 110.327 864.062 105.7C860.399 101.073 854.268 93.9734 850.525 89.9049C846.782 85.8365 839.058 78.258 833.325 73.0727C827.592 67.8874 818.832 60.628 813.816 56.8786C808.799 53.209 801.393 47.944 797.491 45.3114C793.59 42.6789 786.582 38.4509 781.964 35.8982C777.345 33.3454 769.701 29.3567 764.843 27.0433C759.986 24.8096 750.35 20.7411 743.343 18.1884C736.336 15.5559 726.7 12.2851 721.843 10.929C716.986 9.57284 707.908 7.33918 701.537 6.0628C695.167 4.78642 685.691 3.11117 680.435 2.47298C675.18 1.75502 665.067 0.877511 657.9 0.558416L645 -9.26852e-06V125.245C662.598 126.681 671.437 127.877 676.056 128.835C680.674 129.792 689.115 132.105 694.769 134.02C700.422 135.855 709.023 139.365 713.88 141.838C718.737 144.231 726.063 148.459 730.204 151.171C734.345 153.963 740.317 158.271 743.343 160.744C746.369 163.297 752.5 169.04 756.88 173.588C761.26 178.214 766.993 184.756 769.621 188.266C772.249 191.776 776.23 197.679 778.46 201.429C780.69 205.178 784.352 212.198 786.582 216.984C788.732 221.771 791.838 229.748 793.351 234.535C794.943 239.321 796.934 246.9 797.81 251.287C798.686 255.675 799.88 264.37 800.438 270.672L801.473 282C921.635 282 925.377 281.92 925.855 280.644V280.564Z" fill="#1D1D20"/>
<path d="M1240.56 1.14503C1239.85 0.826512 1233.15 1.0654 1225.65 1.54318C1218.15 2.10059 1207.06 3.21541 1200.92 4.17097C1194.77 5.0469 1185.6 6.6395 1180.57 7.83395C1175.55 8.94877 1166.53 11.258 1160.63 13.0099C1154.73 14.6821 1144.84 18.1062 1138.69 20.5747C1132.55 22.9636 1122.66 27.4229 1116.76 30.3692C1110.85 33.3155 1103.11 37.4563 1099.6 39.5267C1096.09 41.5971 1088.91 46.2156 1083.65 49.7193C1078.38 53.3027 1070.33 59.1953 1065.7 62.9379C1061.07 66.6009 1053.97 72.7324 1049.9 76.475C1045.84 80.2176 1038.26 87.9417 1033.07 93.6751C1027.89 99.4084 1020.63 108.168 1016.88 113.184C1013.21 118.201 1007.94 125.607 1005.31 129.509C1002.68 133.41 998.451 140.418 995.898 145.036C993.345 149.655 989.357 157.299 987.043 162.157C984.81 167.014 980.741 176.65 978.188 183.657C975.556 190.664 972.285 200.3 970.929 205.157C969.573 210.014 967.339 219.092 966.063 225.463C964.786 231.833 963.111 241.309 962.473 246.565C961.755 251.82 960.878 261.933 960.558 269.1L960 282L1085.24 282C1086.68 264.402 1087.88 255.563 1088.83 250.944C1089.79 246.326 1092.11 237.885 1094.02 232.231C1095.85 226.578 1099.36 217.977 1101.84 213.12C1104.23 208.263 1108.46 200.937 1111.17 196.796C1113.96 192.655 1118.27 186.683 1120.74 183.657C1123.3 180.631 1129.04 174.5 1133.59 170.12C1138.21 165.74 1144.76 160.007 1148.27 157.379C1151.78 154.751 1157.68 150.77 1161.43 148.54C1165.18 146.31 1172.2 142.648 1176.98 140.418C1181.77 138.268 1189.75 135.162 1194.53 133.649C1199.32 132.057 1206.9 130.066 1211.29 129.19C1215.67 128.314 1224.37 127.12 1230.67 126.562L1242 125.527C1242 5.36542 1241.92 1.62281 1240.64 1.14503H1240.56Z" fill="#1D1D20"/>
<path d="M644.893 570.936C645.128 570.404 644.952 565.437 644.598 559.88C644.185 554.322 643.36 546.104 642.653 541.552C642.004 536.999 640.826 530.2 639.941 526.475C639.116 522.75 637.407 516.07 636.11 511.694C634.872 507.319 632.338 499.988 630.511 495.436C628.742 490.883 625.441 483.552 623.26 479.177C621.08 474.802 618.015 469.067 616.482 466.465C614.95 463.864 611.531 458.543 608.937 454.641C606.285 450.739 601.923 444.767 599.153 441.338C596.441 437.909 591.903 432.647 589.132 429.632C586.362 426.616 580.645 421 576.401 417.157C572.157 413.314 565.673 407.934 561.96 405.155C558.246 402.435 552.764 398.533 549.876 396.582C546.988 394.631 541.801 391.497 538.382 389.605C534.964 387.713 529.305 384.757 525.71 383.043C522.114 381.387 514.982 378.372 509.795 376.48C504.608 374.529 497.476 372.105 493.88 371.1C490.285 370.095 483.565 368.439 478.85 367.493C474.134 366.547 467.12 365.306 463.23 364.833C459.339 364.301 451.854 363.65 446.549 363.414L437 363V455.823C450.026 456.887 456.569 457.774 459.988 458.484C463.407 459.193 469.655 460.908 473.839 462.327C478.024 463.687 484.39 466.288 487.986 468.121C491.581 469.894 497.004 473.028 500.069 475.038C503.134 477.107 507.555 480.3 509.795 482.133C512.035 484.025 516.573 488.282 519.815 491.652C523.057 495.081 527.301 499.929 529.246 502.53C531.191 505.132 534.138 509.507 535.789 512.286C537.439 515.064 540.151 520.267 541.801 523.815C543.392 527.362 545.691 533.274 546.811 536.822C547.99 540.369 549.464 545.986 550.112 549.238C550.76 552.489 551.645 558.934 552.057 563.605L552.823 572C641.769 572 644.539 571.941 644.893 570.995V570.936Z" fill="#1D1D20"/>
<path d="M340.145 280.564C339.827 279.846 340.065 273.145 340.543 265.646C341.101 258.148 342.215 247.059 343.171 240.917C344.047 234.774 345.64 225.6 346.834 220.574C347.949 215.549 350.258 206.534 352.01 200.631C353.682 194.728 357.106 184.836 359.575 178.693C361.964 172.55 366.423 162.659 369.369 156.755C372.316 150.852 376.456 143.114 378.527 139.604C380.597 136.094 385.216 128.914 388.719 123.649C392.303 118.384 398.195 110.327 401.938 105.7C405.601 101.073 411.732 93.9734 415.475 89.9049C419.218 85.8365 426.942 78.258 432.675 73.0727C438.408 67.8874 447.168 60.628 452.184 56.8786C457.201 53.209 464.607 47.944 468.509 45.3114C472.41 42.6789 479.418 38.4509 484.036 35.8982C488.655 33.3454 496.299 29.3567 501.157 27.0433C506.014 24.8096 515.65 20.7411 522.657 18.1884C529.664 15.5559 539.3 12.2851 544.157 10.929C549.014 9.57284 558.092 7.33918 564.463 6.0628C570.833 4.78642 580.309 3.11117 585.565 2.47298C590.82 1.75502 600.933 0.877511 608.1 0.558416L621 -9.26852e-06V125.245C603.402 126.681 594.563 127.877 589.944 128.835C585.326 129.792 576.885 132.105 571.231 134.02C565.578 135.855 556.977 139.365 552.12 141.838C547.263 144.231 539.937 148.459 535.796 151.171C531.655 153.963 525.683 158.271 522.657 160.744C519.631 163.297 513.5 169.04 509.12 173.588C504.74 178.214 499.007 184.756 496.379 188.266C493.751 191.776 489.77 197.679 487.54 201.429C485.31 205.178 481.648 212.198 479.418 216.984C477.268 221.771 474.162 229.748 472.649 234.535C471.057 239.321 469.066 246.9 468.19 251.287C467.314 255.675 466.12 264.37 465.562 270.672L464.527 282C344.365 282 340.623 281.92 340.145 280.644V280.564Z" fill="#1D1D20"/>
</svg>
