<svg width="296" height="430" viewBox="0 0 296 430" fill="none" xmlns="http://www.w3.org/2000/svg">
<g filter="url(#filter0_d_0_1)">
<rect x="30" y="20" width="236" height="370" rx="20" fill="white"/>
</g>
<path d="M49.2955 77V53.7273H58.2045C59.8864 53.7273 61.2841 53.9924 62.3977 54.5227C63.5189 55.0455 64.3561 55.7614 64.9091 56.6705C65.4697 57.5795 65.75 58.6098 65.75 59.7614C65.75 60.7083 65.5682 61.5189 65.2045 62.1932C64.8409 62.8598 64.3523 63.4015 63.7386 63.8182C63.125 64.2348 62.4394 64.5341 61.6818 64.7159V64.9432C62.5076 64.9886 63.2992 65.2424 64.0568 65.7045C64.822 66.1591 65.447 66.803 65.9318 67.6364C66.4167 68.4697 66.6591 69.4773 66.6591 70.6591C66.6591 71.8636 66.3674 72.947 65.7841 73.9091C65.2008 74.8636 64.322 75.6174 63.1477 76.1705C61.9735 76.7235 60.4962 77 58.7159 77H49.2955ZM53.5114 73.4773H58.0455C59.5758 73.4773 60.678 73.1856 61.3523 72.6023C62.0341 72.0114 62.375 71.2538 62.375 70.3295C62.375 69.6402 62.2045 69.0189 61.8636 68.4659C61.5227 67.9053 61.0379 67.4659 60.4091 67.1477C59.7803 66.822 59.0303 66.6591 58.1591 66.6591H53.5114V73.4773ZM53.5114 63.625H57.6818C58.4091 63.625 59.0644 63.4924 59.6477 63.2273C60.2311 62.9545 60.6894 62.572 61.0227 62.0795C61.3636 61.5795 61.5341 60.9886 61.5341 60.3068C61.5341 59.4053 61.2159 58.6629 60.5795 58.0795C59.9508 57.4962 59.0152 57.2045 57.7727 57.2045H53.5114V63.625ZM75.1676 77.3523C74.0616 77.3523 73.0653 77.1553 72.179 76.7614C71.3002 76.3598 70.6032 75.7689 70.0881 74.9886C69.5805 74.2083 69.3267 73.2462 69.3267 72.1023C69.3267 71.1174 69.5085 70.303 69.8722 69.6591C70.2358 69.0152 70.732 68.5 71.3608 68.1136C71.9896 67.7273 72.6979 67.4356 73.4858 67.2386C74.2813 67.0341 75.1032 66.8864 75.9517 66.7955C76.9744 66.6894 77.804 66.5947 78.4403 66.5114C79.0767 66.4205 79.5388 66.2841 79.8267 66.1023C80.1222 65.9129 80.2699 65.6212 80.2699 65.2273V65.1591C80.2699 64.303 80.0161 63.6402 79.5085 63.1705C79.0009 62.7008 78.2699 62.4659 77.3153 62.4659C76.3078 62.4659 75.5085 62.6856 74.9176 63.125C74.3343 63.5644 73.9403 64.0833 73.7358 64.6818L69.8949 64.1364C70.1979 63.0758 70.6979 62.1894 71.3949 61.4773C72.0919 60.7576 72.9441 60.2197 73.9517 59.8636C74.9593 59.5 76.0729 59.3182 77.2926 59.3182C78.1335 59.3182 78.9706 59.4167 79.804 59.6136C80.6373 59.8106 81.3987 60.1364 82.0881 60.5909C82.7775 61.0379 83.3305 61.6477 83.7472 62.4205C84.1714 63.1932 84.3835 64.1591 84.3835 65.3182V77H80.429V74.6023H80.2926C80.0426 75.0871 79.6903 75.5417 79.2358 75.9659C78.7888 76.3826 78.2244 76.7197 77.5426 76.9773C76.8684 77.2273 76.0767 77.3523 75.1676 77.3523ZM76.2358 74.3295C77.0616 74.3295 77.7775 74.1667 78.3835 73.8409C78.9896 73.5076 79.4555 73.0682 79.7812 72.5227C80.1146 71.9773 80.2812 71.3826 80.2812 70.7386V68.6818C80.1525 68.7879 79.9328 68.8864 79.6222 68.9773C79.3191 69.0682 78.9782 69.1477 78.5994 69.2159C78.2206 69.2841 77.8456 69.3447 77.4744 69.3977C77.1032 69.4508 76.7813 69.4962 76.5085 69.5341C75.8949 69.6174 75.3456 69.7538 74.8608 69.9432C74.3759 70.1326 73.9934 70.3977 73.7131 70.7386C73.4328 71.072 73.2926 71.5038 73.2926 72.0341C73.2926 72.7917 73.5691 73.3636 74.1222 73.75C74.6752 74.1364 75.3797 74.3295 76.2358 74.3295ZM75.8949 57.25L78.4403 52.0568H82.4631L78.9744 57.25H75.8949ZM102.315 64.1591L98.5653 64.5682C98.4593 64.1894 98.2737 63.8333 98.0085 63.5C97.7509 63.1667 97.4025 62.8977 96.9631 62.6932C96.5237 62.4886 95.9858 62.3864 95.3494 62.3864C94.4934 62.3864 93.7737 62.572 93.1903 62.9432C92.6146 63.3144 92.3305 63.7955 92.3381 64.3864C92.3305 64.8939 92.5161 65.3068 92.8949 65.625C93.2813 65.9432 93.9176 66.2045 94.804 66.4091L97.7812 67.0455C99.4328 67.4015 100.66 67.9659 101.463 68.7386C102.274 69.5114 102.683 70.5227 102.69 71.7727C102.683 72.8712 102.361 73.8409 101.724 74.6818C101.096 75.5152 100.221 76.1667 99.0994 76.6364C97.9782 77.1061 96.6903 77.3409 95.2358 77.3409C93.0994 77.3409 91.3797 76.8939 90.0767 76C88.7737 75.0985 87.9972 73.8447 87.7472 72.2386L91.7585 71.8523C91.9403 72.6402 92.3267 73.2348 92.9176 73.6364C93.5085 74.0379 94.2775 74.2386 95.2244 74.2386C96.2017 74.2386 96.9858 74.0379 97.5767 73.6364C98.1752 73.2348 98.4744 72.7386 98.4744 72.1477C98.4744 71.6477 98.2813 71.2348 97.8949 70.9091C97.5161 70.5833 96.9252 70.3333 96.1222 70.1591L93.1449 69.5341C91.4706 69.1856 90.232 68.5985 89.429 67.7727C88.6259 66.9394 88.2282 65.8864 88.2358 64.6136C88.2282 63.5379 88.5199 62.6061 89.1108 61.8182C89.7093 61.0227 90.5388 60.4091 91.5994 59.9773C92.6676 59.5379 93.8987 59.3182 95.2926 59.3182C97.3381 59.3182 98.9479 59.7538 100.122 60.625C101.304 61.4962 102.035 62.6742 102.315 64.1591ZM106.082 77V59.5455H110.196V77H106.082ZM108.151 57.0682C107.499 57.0682 106.938 56.8523 106.469 56.4205C105.999 55.9811 105.764 55.4545 105.764 54.8409C105.764 54.2197 105.999 53.6932 106.469 53.2614C106.938 52.822 107.499 52.6023 108.151 52.6023C108.81 52.6023 109.37 52.822 109.832 53.2614C110.302 53.6932 110.537 54.2197 110.537 54.8409C110.537 55.4545 110.302 55.9811 109.832 56.4205C109.37 56.8523 108.81 57.0682 108.151 57.0682ZM122.04 77.3409C120.297 77.3409 118.801 76.9583 117.551 76.1932C116.309 75.428 115.35 74.3712 114.676 73.0227C114.009 71.6667 113.676 70.1061 113.676 68.3409C113.676 66.5682 114.017 65.0038 114.699 63.6477C115.381 62.2841 116.343 61.2235 117.585 60.4659C118.835 59.7008 120.313 59.3182 122.017 59.3182C123.434 59.3182 124.688 59.5795 125.778 60.1023C126.877 60.6174 127.752 61.3485 128.403 62.2955C129.055 63.2348 129.426 64.3333 129.517 65.5909H125.585C125.426 64.75 125.047 64.0492 124.449 63.4886C123.858 62.9205 123.066 62.6364 122.074 62.6364C121.233 62.6364 120.494 62.8636 119.858 63.3182C119.222 63.7652 118.725 64.4091 118.369 65.25C118.021 66.0909 117.847 67.0985 117.847 68.2727C117.847 69.4621 118.021 70.4848 118.369 71.3409C118.718 72.1894 119.206 72.8447 119.835 73.3068C120.472 73.7614 121.218 73.9886 122.074 73.9886C122.68 73.9886 123.222 73.875 123.699 73.6477C124.184 73.4129 124.589 73.0758 124.915 72.6364C125.241 72.197 125.464 71.6629 125.585 71.0341H129.517C129.419 72.2689 129.055 73.3636 128.426 74.3182C127.797 75.2652 126.941 76.0076 125.858 76.5455C124.775 77.0758 123.502 77.3409 122.04 77.3409ZM140.509 77.3409C138.804 77.3409 137.327 76.9659 136.077 76.2159C134.827 75.4659 133.857 74.4167 133.168 73.0682C132.486 71.7197 132.145 70.1439 132.145 68.3409C132.145 66.5379 132.486 64.9583 133.168 63.6023C133.857 62.2462 134.827 61.1932 136.077 60.4432C137.327 59.6932 138.804 59.3182 140.509 59.3182C142.213 59.3182 143.69 59.6932 144.94 60.4432C146.19 61.1932 147.156 62.2462 147.838 63.6023C148.527 64.9583 148.872 66.5379 148.872 68.3409C148.872 70.1439 148.527 71.7197 147.838 73.0682C147.156 74.4167 146.19 75.4659 144.94 76.2159C143.69 76.9659 142.213 77.3409 140.509 77.3409ZM140.531 74.0455C141.455 74.0455 142.228 73.7917 142.849 73.2841C143.471 72.7689 143.933 72.0795 144.236 71.2159C144.546 70.3523 144.702 69.3902 144.702 68.3295C144.702 67.2614 144.546 66.2955 144.236 65.4318C143.933 64.5606 143.471 63.8674 142.849 63.3523C142.228 62.8371 141.455 62.5795 140.531 62.5795C139.584 62.5795 138.796 62.8371 138.168 63.3523C137.546 63.8674 137.08 64.5606 136.77 65.4318C136.467 66.2955 136.315 67.2614 136.315 68.3295C136.315 69.3902 136.467 70.3523 136.77 71.2159C137.08 72.0795 137.546 72.7689 138.168 73.2841C138.796 73.7917 139.584 74.0455 140.531 74.0455Z" fill="#2A292E"/>
<g filter="url(#filter1_d_0_1)">
<rect x="30" y="20" width="236" height="370" rx="20" fill="white"/>
</g>
<path d="M49.2955 77V53.7273H58.2045C59.8864 53.7273 61.2841 53.9924 62.3977 54.5227C63.5189 55.0455 64.3561 55.7614 64.9091 56.6705C65.4697 57.5795 65.75 58.6098 65.75 59.7614C65.75 60.7083 65.5682 61.5189 65.2045 62.1932C64.8409 62.8598 64.3523 63.4015 63.7386 63.8182C63.125 64.2348 62.4394 64.5341 61.6818 64.7159V64.9432C62.5076 64.9886 63.2992 65.2424 64.0568 65.7045C64.822 66.1591 65.447 66.803 65.9318 67.6364C66.4167 68.4697 66.6591 69.4773 66.6591 70.6591C66.6591 71.8636 66.3674 72.947 65.7841 73.9091C65.2008 74.8636 64.322 75.6174 63.1477 76.1705C61.9735 76.7235 60.4962 77 58.7159 77H49.2955ZM53.5114 73.4773H58.0455C59.5758 73.4773 60.678 73.1856 61.3523 72.6023C62.0341 72.0114 62.375 71.2538 62.375 70.3295C62.375 69.6402 62.2045 69.0189 61.8636 68.4659C61.5227 67.9053 61.0379 67.4659 60.4091 67.1477C59.7803 66.822 59.0303 66.6591 58.1591 66.6591H53.5114V73.4773ZM53.5114 63.625H57.6818C58.4091 63.625 59.0644 63.4924 59.6477 63.2273C60.2311 62.9545 60.6894 62.572 61.0227 62.0795C61.3636 61.5795 61.5341 60.9886 61.5341 60.3068C61.5341 59.4053 61.2159 58.6629 60.5795 58.0795C59.9508 57.4962 59.0152 57.2045 57.7727 57.2045H53.5114V63.625ZM75.1676 77.3523C74.0616 77.3523 73.0653 77.1553 72.179 76.7614C71.3002 76.3598 70.6032 75.7689 70.0881 74.9886C69.5805 74.2083 69.3267 73.2462 69.3267 72.1023C69.3267 71.1174 69.5085 70.303 69.8722 69.6591C70.2358 69.0152 70.732 68.5 71.3608 68.1136C71.9896 67.7273 72.6979 67.4356 73.4858 67.2386C74.2813 67.0341 75.1032 66.8864 75.9517 66.7955C76.9744 66.6894 77.804 66.5947 78.4403 66.5114C79.0767 66.4205 79.5388 66.2841 79.8267 66.1023C80.1222 65.9129 80.2699 65.6212 80.2699 65.2273V65.1591C80.2699 64.303 80.0161 63.6402 79.5085 63.1705C79.0009 62.7008 78.2699 62.4659 77.3153 62.4659C76.3078 62.4659 75.5085 62.6856 74.9176 63.125C74.3343 63.5644 73.9403 64.0833 73.7358 64.6818L69.8949 64.1364C70.1979 63.0758 70.6979 62.1894 71.3949 61.4773C72.0919 60.7576 72.9441 60.2197 73.9517 59.8636C74.9593 59.5 76.0729 59.3182 77.2926 59.3182C78.1335 59.3182 78.9706 59.4167 79.804 59.6136C80.6373 59.8106 81.3987 60.1364 82.0881 60.5909C82.7775 61.0379 83.3305 61.6477 83.7472 62.4205C84.1714 63.1932 84.3835 64.1591 84.3835 65.3182V77H80.429V74.6023H80.2926C80.0426 75.0871 79.6903 75.5417 79.2358 75.9659C78.7888 76.3826 78.2244 76.7197 77.5426 76.9773C76.8684 77.2273 76.0767 77.3523 75.1676 77.3523ZM76.2358 74.3295C77.0616 74.3295 77.7775 74.1667 78.3835 73.8409C78.9896 73.5076 79.4555 73.0682 79.7812 72.5227C80.1146 71.9773 80.2812 71.3826 80.2812 70.7386V68.6818C80.1525 68.7879 79.9328 68.8864 79.6222 68.9773C79.3191 69.0682 78.9782 69.1477 78.5994 69.2159C78.2206 69.2841 77.8456 69.3447 77.4744 69.3977C77.1032 69.4508 76.7813 69.4962 76.5085 69.5341C75.8949 69.6174 75.3456 69.7538 74.8608 69.9432C74.3759 70.1326 73.9934 70.3977 73.7131 70.7386C73.4328 71.072 73.2926 71.5038 73.2926 72.0341C73.2926 72.7917 73.5691 73.3636 74.1222 73.75C74.6752 74.1364 75.3797 74.3295 76.2358 74.3295ZM75.8949 57.25L78.4403 52.0568H82.4631L78.9744 57.25H75.8949ZM102.315 64.1591L98.5653 64.5682C98.4593 64.1894 98.2737 63.8333 98.0085 63.5C97.7509 63.1667 97.4025 62.8977 96.9631 62.6932C96.5237 62.4886 95.9858 62.3864 95.3494 62.3864C94.4934 62.3864 93.7737 62.572 93.1903 62.9432C92.6146 63.3144 92.3305 63.7955 92.3381 64.3864C92.3305 64.8939 92.5161 65.3068 92.8949 65.625C93.2813 65.9432 93.9176 66.2045 94.804 66.4091L97.7812 67.0455C99.4328 67.4015 100.66 67.9659 101.463 68.7386C102.274 69.5114 102.683 70.5227 102.69 71.7727C102.683 72.8712 102.361 73.8409 101.724 74.6818C101.096 75.5152 100.221 76.1667 99.0994 76.6364C97.9782 77.1061 96.6903 77.3409 95.2358 77.3409C93.0994 77.3409 91.3797 76.8939 90.0767 76C88.7737 75.0985 87.9972 73.8447 87.7472 72.2386L91.7585 71.8523C91.9403 72.6402 92.3267 73.2348 92.9176 73.6364C93.5085 74.0379 94.2775 74.2386 95.2244 74.2386C96.2017 74.2386 96.9858 74.0379 97.5767 73.6364C98.1752 73.2348 98.4744 72.7386 98.4744 72.1477C98.4744 71.6477 98.2813 71.2348 97.8949 70.9091C97.5161 70.5833 96.9252 70.3333 96.1222 70.1591L93.1449 69.5341C91.4706 69.1856 90.232 68.5985 89.429 67.7727C88.6259 66.9394 88.2282 65.8864 88.2358 64.6136C88.2282 63.5379 88.5199 62.6061 89.1108 61.8182C89.7093 61.0227 90.5388 60.4091 91.5994 59.9773C92.6676 59.5379 93.8987 59.3182 95.2926 59.3182C97.3381 59.3182 98.9479 59.7538 100.122 60.625C101.304 61.4962 102.035 62.6742 102.315 64.1591ZM106.082 77V59.5455H110.196V77H106.082ZM108.151 57.0682C107.499 57.0682 106.938 56.8523 106.469 56.4205C105.999 55.9811 105.764 55.4545 105.764 54.8409C105.764 54.2197 105.999 53.6932 106.469 53.2614C106.938 52.822 107.499 52.6023 108.151 52.6023C108.81 52.6023 109.37 52.822 109.832 53.2614C110.302 53.6932 110.537 54.2197 110.537 54.8409C110.537 55.4545 110.302 55.9811 109.832 56.4205C109.37 56.8523 108.81 57.0682 108.151 57.0682ZM122.04 77.3409C120.297 77.3409 118.801 76.9583 117.551 76.1932C116.309 75.428 115.35 74.3712 114.676 73.0227C114.009 71.6667 113.676 70.1061 113.676 68.3409C113.676 66.5682 114.017 65.0038 114.699 63.6477C115.381 62.2841 116.343 61.2235 117.585 60.4659C118.835 59.7008 120.313 59.3182 122.017 59.3182C123.434 59.3182 124.688 59.5795 125.778 60.1023C126.877 60.6174 127.752 61.3485 128.403 62.2955C129.055 63.2348 129.426 64.3333 129.517 65.5909H125.585C125.426 64.75 125.047 64.0492 124.449 63.4886C123.858 62.9205 123.066 62.6364 122.074 62.6364C121.233 62.6364 120.494 62.8636 119.858 63.3182C119.222 63.7652 118.725 64.4091 118.369 65.25C118.021 66.0909 117.847 67.0985 117.847 68.2727C117.847 69.4621 118.021 70.4848 118.369 71.3409C118.718 72.1894 119.206 72.8447 119.835 73.3068C120.472 73.7614 121.218 73.9886 122.074 73.9886C122.68 73.9886 123.222 73.875 123.699 73.6477C124.184 73.4129 124.589 73.0758 124.915 72.6364C125.241 72.197 125.464 71.6629 125.585 71.0341H129.517C129.419 72.2689 129.055 73.3636 128.426 74.3182C127.797 75.2652 126.941 76.0076 125.858 76.5455C124.775 77.0758 123.502 77.3409 122.04 77.3409ZM140.509 77.3409C138.804 77.3409 137.327 76.9659 136.077 76.2159C134.827 75.4659 133.857 74.4167 133.168 73.0682C132.486 71.7197 132.145 70.1439 132.145 68.3409C132.145 66.5379 132.486 64.9583 133.168 63.6023C133.857 62.2462 134.827 61.1932 136.077 60.4432C137.327 59.6932 138.804 59.3182 140.509 59.3182C142.213 59.3182 143.69 59.6932 144.94 60.4432C146.19 61.1932 147.156 62.2462 147.838 63.6023C148.527 64.9583 148.872 66.5379 148.872 68.3409C148.872 70.1439 148.527 71.7197 147.838 73.0682C147.156 74.4167 146.19 75.4659 144.94 76.2159C143.69 76.9659 142.213 77.3409 140.509 77.3409ZM140.531 74.0455C141.455 74.0455 142.228 73.7917 142.849 73.2841C143.471 72.7689 143.933 72.0795 144.236 71.2159C144.546 70.3523 144.702 69.3902 144.702 68.3295C144.702 67.2614 144.546 66.2955 144.236 65.4318C143.933 64.5606 143.471 63.8674 142.849 63.3523C142.228 62.8371 141.455 62.5795 140.531 62.5795C139.584 62.5795 138.796 62.8371 138.168 63.3523C137.546 63.8674 137.08 64.5606 136.77 65.4318C136.467 66.2955 136.315 67.2614 136.315 68.3295C136.315 69.3902 136.467 70.3523 136.77 71.2159C137.08 72.0795 137.546 72.7689 138.168 73.2841C138.796 73.7917 139.584 74.0455 140.531 74.0455Z" fill="#2A292E"/>
<path d="M184.205 379.547V271.422H208.736V379.547H184.205ZM142.408 337.75V313.219H250.533V337.75H142.408Z" fill="#2A292E"/>
<path d="M136.525 243.719V267H64.4941V243.719H136.525Z" fill="#2A292E"/>
<rect x="49" y="107" width="197" height="7" rx="3.5" fill="#AEAEAE"/>
<rect x="49" y="107" width="157" height="7" rx="3.5" fill="#2A292E"/>
<defs>
<filter id="filter0_d_0_1" x="0" y="0" width="296" height="430" filterUnits="userSpaceOnUse" color-interpolation-filters="sRGB">
<feFlood flood-opacity="0" result="BackgroundImageFix"/>
<feColorMatrix in="SourceAlpha" type="matrix" values="0 0 0 0 0 0 0 0 0 0 0 0 0 0 0 0 0 0 127 0" result="hardAlpha"/>
<feOffset dy="10"/>
<feGaussianBlur stdDeviation="15"/>
<feComposite in2="hardAlpha" operator="out"/>
<feColorMatrix type="matrix" values="0 0 0 0 0 0 0 0 0 0 0 0 0 0 0 0 0 0 0.25 0"/>
<feBlend mode="normal" in2="BackgroundImageFix" result="effect1_dropShadow_0_1"/>
<feBlend mode="normal" in="SourceGraphic" in2="effect1_dropShadow_0_1" result="shape"/>
</filter>
<filter id="filter1_d_0_1" x="0" y="0" width="296" height="430" filterUnits="userSpaceOnUse" color-interpolation-filters="sRGB">
<feFlood flood-opacity="0" result="BackgroundImageFix"/>
<feColorMatrix in="SourceAlpha" type="matrix" values="0 0 0 0 0 0 0 0 0 0 0 0 0 0 0 0 0 0 127 0" result="hardAlpha"/>
<feOffset dy="10"/>
<feGaussianBlur stdDeviation="15"/>
<feComposite in2="hardAlpha" operator="out"/>
<feColorMatrix type="matrix" values="0 0 0 0 0 0 0 0 0 0 0 0 0 0 0 0 0 0 0.25 0"/>
<feBlend mode="normal" in2="BackgroundImageFix" result="effect1_dropShadow_0_1"/>
<feBlend mode="normal" in="SourceGraphic" in2="effect1_dropShadow_0_1" result="shape"/>
</filter>
</defs>
</svg>
