<svg width="73" height="101" viewBox="0 0 73 101" fill="none" xmlns="http://www.w3.org/2000/svg">
<path fill-rule="evenodd" clip-rule="evenodd" d="M36.3679 0C37.586 0 40.2005 0.240659 42.1613 0.571566C44.1222 0.902472 46.796 1.5342 48.1033 1.95536C49.4105 2.40659 51.6981 3.36923 53.1539 4.15137C54.6097 4.93352 56.8379 6.31731 58.056 7.24986C59.2741 8.15233 61.3538 10.0475 62.6313 11.4313C63.9385 12.8151 65.6914 15.0412 66.553 16.3648C67.4146 17.6885 68.5733 19.7942 69.1377 21.0276C69.7319 22.261 70.5935 24.4871 71.0689 25.9912C71.5442 27.4953 72.1681 29.9922 72.4652 31.5565C72.8812 33.6321 73 35.8282 73 39.6787C73 43.439 72.8515 45.7554 72.4652 47.801C72.1681 49.3652 71.5442 51.8922 71.0689 53.3662C70.5935 54.8402 69.5537 57.4273 68.7218 59.0819C67.9196 60.7364 66.4044 63.2332 65.3646 64.6471C64.3248 66.061 62.5719 68.0765 61.4429 69.1595C60.314 70.2424 58.5314 71.7466 57.4618 72.5287C56.3923 73.2808 54.6691 74.3637 53.5996 74.9353C52.53 75.5069 50.8068 76.3191 49.7373 76.7402C48.6678 77.1614 46.6772 77.763 45.2808 78.124C43.8845 78.4549 41.4186 78.9663 39.7845 79.2672C38.1505 79.5379 35.8629 80.0794 34.7339 80.4404C33.6049 80.8014 32.2086 81.3429 31.7035 81.6136C31.1687 81.8843 30.2477 82.5461 29.6535 83.0876C29.0593 83.599 28.376 84.4113 28.1681 84.8926C27.9304 85.3438 27.7521 86.0056 27.7521 86.3967C27.7521 86.7577 28.0195 87.5097 28.3463 88.0512C28.6731 88.5927 29.505 89.2846 30.218 89.6155C31.0499 90.0066 32.0897 90.2172 33.397 90.2172C34.4665 90.2172 36.0114 90.0066 36.8136 89.7659C37.6454 89.4952 38.8338 88.9838 39.4875 88.5927C40.1411 88.2016 41.1809 87.3293 41.8048 86.6374C42.399 85.9755 43.2309 84.7422 43.6468 83.8999C44.0627 83.0576 44.4787 82.3957 44.6272 82.3957C44.7461 82.3957 45.5779 82.6063 46.4692 82.8771C47.3605 83.1478 49.054 83.8397 50.1829 84.4113C51.3119 84.9828 52.8568 85.9455 53.5996 86.5471C54.3423 87.1788 55.2336 87.9911 55.6198 88.4122C56.006 88.8334 56.63 89.8562 57.0162 90.6684C57.551 91.7213 57.7589 92.6839 57.7589 93.9173C57.7589 94.8499 57.5807 95.993 57.343 96.4442C57.135 96.9255 56.3626 97.7979 55.6495 98.4297C54.8474 99.1516 53.6293 99.8135 52.4112 100.174C51.3416 100.535 49.4105 100.866 48.1033 100.957C46.3504 101.077 44.8946 100.957 42.607 100.475C40.8838 100.144 38.6259 99.5728 37.5563 99.2118C36.4868 98.8508 34.9716 98.2492 34.1397 97.828C33.3375 97.4069 31.8521 96.5044 30.8716 95.7824C29.8912 95.0905 28.584 93.9173 27.9601 93.1953C27.3362 92.4733 26.5637 91.27 26.2369 90.518C25.7319 89.435 25.6427 88.7431 25.7319 87.0585C25.7913 85.8251 26.0884 84.4714 26.4152 83.7494C26.742 83.0876 27.7521 81.7339 28.7028 80.7412C29.6535 79.7485 30.3963 78.9062 30.3369 78.8761C30.3071 78.8159 28.9999 78.4549 27.455 78.0639C25.9101 77.6427 23.4442 76.8004 21.9587 76.1988C20.4732 75.567 18.0965 74.2434 16.611 73.2507C15.1255 72.258 12.8081 70.2725 11.4118 68.8586C10.0154 67.4448 8.114 65.2187 7.193 63.8951C6.30171 62.5714 5.08361 60.5258 4.48942 59.3827C3.92493 58.2396 3.06335 56.1338 2.55829 54.7199C2.08293 53.306 1.45903 51.2905 1.22135 50.2076C0.983672 49.1246 0.597445 47.1692 0.359767 45.8456C0.1518 44.522 -0.0264584 41.7544 0.00325133 39.6787C0.00325133 37.603 0.240929 34.5647 0.508316 32.9102C0.775703 31.2556 1.34019 28.6986 1.75612 27.1945C2.17206 25.6904 2.97422 23.4643 3.47929 22.2309C4.01406 20.9975 4.99448 19.0121 5.67781 17.869C6.36113 16.7258 7.8169 14.6201 8.94587 13.2062C10.0748 11.7923 12.006 9.80687 13.2241 8.75398C14.4422 7.7011 16.5516 6.1669 17.9479 5.32459C19.3443 4.48228 21.5428 3.36923 22.85 2.85783C24.1572 2.31635 25.821 1.7147 26.5637 1.50412C27.3065 1.29354 29.297 0.87239 31.0202 0.571566C32.7433 0.270742 35.1498 0.0300824 36.3679 0ZM35.9223 5.53516C34.9716 6.19698 33.6049 7.43036 32.8622 8.24258C32.1492 9.08489 30.9905 10.6191 30.3072 11.7021C29.6238 12.785 28.7028 14.2591 28.2869 15.0111C27.871 15.7632 26.8311 17.9893 26.029 19.9747C25.1971 21.9602 24.0681 25.2091 23.4739 27.1945C22.9094 29.1799 22.2261 31.767 21.9587 32.9102C21.6913 34.0533 21.3645 35.5574 21.216 36.2192C21.0971 36.881 20.8298 38.1746 20.6515 39.0771C20.4732 39.9795 20.1167 42.356 19.8493 44.3415C19.4928 46.8383 19.3146 50.0872 19.3146 55.0207C19.2848 59.8339 19.4037 62.8121 19.7008 64.3463C19.9088 65.5797 20.3247 67.3545 20.6218 68.257C20.8892 69.1595 21.4239 70.4831 21.7805 71.2051C22.1073 71.897 22.85 72.9499 23.3551 73.5515C23.8899 74.1532 24.8703 74.9353 25.5239 75.2662C26.4152 75.7475 27.2173 75.8979 28.6434 75.8678C29.713 75.8678 31.3173 75.5971 32.2086 75.2662C33.0999 74.9353 34.5853 74.1832 35.4766 73.6117C36.3679 73.01 37.9425 71.6563 38.9824 70.6034C40.0222 69.5505 41.5671 67.6253 42.4584 66.3016C43.32 64.978 44.6272 62.6617 45.37 61.1876C46.1127 59.7136 47.1526 57.2468 47.717 55.7728C48.2815 54.2988 49.1728 51.6515 49.6779 49.9067C50.1532 48.1619 50.6286 46.4172 50.7177 45.996C50.7771 45.5749 51.0445 44.2212 51.3119 42.9878C51.5496 41.7544 51.9061 39.8592 52.0844 38.7762C52.2626 37.6933 52.5597 35.3468 52.7083 33.5118C52.8865 31.6768 53.0054 28.2775 53.0054 25.931C53.0054 23.5545 52.7974 20.3658 52.5597 18.8617C52.322 17.3275 51.8467 15.1014 51.4902 13.9582C51.1337 12.8151 50.4503 11.0402 49.975 10.0475C49.4996 9.05481 48.6083 7.64093 48.0141 6.91896C47.4199 6.19698 46.3801 5.23434 45.7265 4.7831C45.0729 4.36195 44.0033 3.82047 43.3497 3.63997C42.6961 3.45948 41.8345 3.27898 41.4186 3.27898C41.0026 3.30907 39.9925 3.51964 39.1606 3.82047C38.3288 4.09121 36.873 4.87335 35.9223 5.53516Z" fill="#1D1D20"/>
</svg>
